<mxfile host="app.diagrams.net" modified="2023-05-17T06:19:50.678Z" agent="Mozilla/5.0 (X11; Linux x86_64) AppleWebKit/537.36 (KHTML, like Gecko) Chrome/112.0.0.0 Safari/537.36" etag="j0a96CbTnGY3vhqTNXOg" version="21.3.2" type="github" pages="2">
  <diagram name="mongo" id="9f46799a-70d6-7492-0946-bef42562c5a5">
    <mxGraphModel dx="879" dy="1399" grid="1" gridSize="10" guides="1" tooltips="1" connect="1" arrows="1" fold="1" page="1" pageScale="1" pageWidth="1169" pageHeight="827" background="none" math="0" shadow="0">
      <root>
        <mxCell id="0" />
        <mxCell id="1" parent="0" />
        <mxCell id="ns7C_bKpi_wKjAJB6SDy-2" value="User" style="swimlane;childLayout=stackLayout;horizontal=1;startSize=50;horizontalStack=0;rounded=1;fontSize=14;fontStyle=0;strokeWidth=2;resizeParent=0;resizeLast=1;shadow=0;dashed=0;align=center;arcSize=4;whiteSpace=wrap;html=1;" parent="1" vertex="1">
          <mxGeometry x="400" y="-310" width="160" height="120" as="geometry" />
        </mxCell>
        <mxCell id="ns7C_bKpi_wKjAJB6SDy-3" value="+Attribute1&#xa;+Attribute2&#xa;+Attribute3" style="align=left;strokeColor=none;fillColor=none;spacingLeft=4;fontSize=12;verticalAlign=top;resizable=0;rotatable=0;part=1;html=1;" parent="ns7C_bKpi_wKjAJB6SDy-2" vertex="1">
          <mxGeometry y="50" width="160" height="70" as="geometry" />
        </mxCell>
        <mxCell id="ns7C_bKpi_wKjAJB6SDy-4" value="UserAdmin" style="swimlane;childLayout=stackLayout;horizontal=1;startSize=50;horizontalStack=0;rounded=1;fontSize=14;fontStyle=0;strokeWidth=2;resizeParent=0;resizeLast=1;shadow=0;dashed=0;align=center;arcSize=4;whiteSpace=wrap;html=1;" parent="1" vertex="1">
          <mxGeometry x="250" y="-130" width="160" height="120" as="geometry" />
        </mxCell>
        <mxCell id="ns7C_bKpi_wKjAJB6SDy-5" value="+Attribute1&#xa;+Attribute2&#xa;+Attribute3" style="align=left;strokeColor=none;fillColor=none;spacingLeft=4;fontSize=12;verticalAlign=top;resizable=0;rotatable=0;part=1;html=1;" parent="ns7C_bKpi_wKjAJB6SDy-4" vertex="1">
          <mxGeometry y="50" width="160" height="70" as="geometry" />
        </mxCell>
        <mxCell id="ns7C_bKpi_wKjAJB6SDy-6" value="Company" style="swimlane;childLayout=stackLayout;horizontal=1;startSize=50;horizontalStack=0;rounded=1;fontSize=14;fontStyle=0;strokeWidth=2;resizeParent=0;resizeLast=1;shadow=0;dashed=0;align=center;arcSize=4;whiteSpace=wrap;html=1;" parent="1" vertex="1">
          <mxGeometry x="1240" y="-310" width="160" height="120" as="geometry" />
        </mxCell>
        <mxCell id="ns7C_bKpi_wKjAJB6SDy-7" value="+Attribute1&#xa;+Attribute2&#xa;+Attribute3" style="align=left;strokeColor=none;fillColor=none;spacingLeft=4;fontSize=12;verticalAlign=top;resizable=0;rotatable=0;part=1;html=1;" parent="ns7C_bKpi_wKjAJB6SDy-6" vertex="1">
          <mxGeometry y="50" width="160" height="70" as="geometry" />
        </mxCell>
        <mxCell id="ns7C_bKpi_wKjAJB6SDy-8" value="UserCompany" style="swimlane;childLayout=stackLayout;horizontal=1;startSize=50;horizontalStack=0;rounded=1;fontSize=14;fontStyle=0;strokeWidth=2;resizeParent=0;resizeLast=1;shadow=0;dashed=0;align=center;arcSize=4;whiteSpace=wrap;html=1;" parent="1" vertex="1">
          <mxGeometry x="690" y="-310" width="160" height="120" as="geometry" />
        </mxCell>
        <mxCell id="ns7C_bKpi_wKjAJB6SDy-9" value="+Attribute1&#xa;+Attribute2&#xa;+Attribute3" style="align=left;strokeColor=none;fillColor=none;spacingLeft=4;fontSize=12;verticalAlign=top;resizable=0;rotatable=0;part=1;html=1;" parent="ns7C_bKpi_wKjAJB6SDy-8" vertex="1">
          <mxGeometry y="50" width="160" height="70" as="geometry" />
        </mxCell>
        <mxCell id="ns7C_bKpi_wKjAJB6SDy-10" value="Role" style="swimlane;childLayout=stackLayout;horizontal=1;startSize=50;horizontalStack=0;rounded=1;fontSize=14;fontStyle=0;strokeWidth=2;resizeParent=0;resizeLast=1;shadow=0;dashed=0;align=center;arcSize=4;whiteSpace=wrap;html=1;" parent="1" vertex="1">
          <mxGeometry x="690" y="90" width="160" height="120" as="geometry" />
        </mxCell>
        <mxCell id="ns7C_bKpi_wKjAJB6SDy-11" value="+Attribute1&#xa;+Attribute2&#xa;+Attribute3" style="align=left;strokeColor=none;fillColor=none;spacingLeft=4;fontSize=12;verticalAlign=top;resizable=0;rotatable=0;part=1;html=1;" parent="ns7C_bKpi_wKjAJB6SDy-10" vertex="1">
          <mxGeometry y="50" width="160" height="70" as="geometry" />
        </mxCell>
        <mxCell id="ns7C_bKpi_wKjAJB6SDy-12" value="UserRole" style="swimlane;childLayout=stackLayout;horizontal=1;startSize=50;horizontalStack=0;rounded=1;fontSize=14;fontStyle=0;strokeWidth=2;resizeParent=0;resizeLast=1;shadow=0;dashed=0;align=center;arcSize=0;whiteSpace=wrap;html=1;" parent="1" vertex="1">
          <mxGeometry x="690" y="-110" width="160" height="120" as="geometry" />
        </mxCell>
        <mxCell id="ns7C_bKpi_wKjAJB6SDy-13" value="+Attribute1&#xa;+Attribute2&#xa;+Attribute3" style="align=left;strokeColor=none;fillColor=none;spacingLeft=4;fontSize=12;verticalAlign=top;resizable=0;rotatable=0;part=1;html=1;" parent="ns7C_bKpi_wKjAJB6SDy-12" vertex="1">
          <mxGeometry y="50" width="160" height="70" as="geometry" />
        </mxCell>
        <mxCell id="ns7C_bKpi_wKjAJB6SDy-14" value="" style="edgeStyle=entityRelationEdgeStyle;fontSize=12;html=1;endArrow=ERoneToMany;rounded=1;startSize=8;endSize=8;" parent="1" source="ns7C_bKpi_wKjAJB6SDy-2" target="ns7C_bKpi_wKjAJB6SDy-8" edge="1">
          <mxGeometry width="100" height="100" relative="1" as="geometry">
            <mxPoint x="520" y="-100" as="sourcePoint" />
            <mxPoint x="620" y="-200" as="targetPoint" />
          </mxGeometry>
        </mxCell>
        <mxCell id="ns7C_bKpi_wKjAJB6SDy-15" value="" style="edgeStyle=entityRelationEdgeStyle;fontSize=12;html=1;endArrow=ERoneToMany;rounded=1;startSize=8;endSize=8;" parent="1" source="ns7C_bKpi_wKjAJB6SDy-6" target="ns7C_bKpi_wKjAJB6SDy-8" edge="1">
          <mxGeometry width="100" height="100" relative="1" as="geometry">
            <mxPoint x="650" y="-84" as="sourcePoint" />
            <mxPoint x="779" y="-120" as="targetPoint" />
          </mxGeometry>
        </mxCell>
        <mxCell id="ns7C_bKpi_wKjAJB6SDy-18" value="" style="edgeStyle=entityRelationEdgeStyle;fontSize=12;html=1;endArrow=ERoneToMany;rounded=1;startSize=8;endSize=8;" parent="1" source="ns7C_bKpi_wKjAJB6SDy-10" target="ns7C_bKpi_wKjAJB6SDy-13" edge="1">
          <mxGeometry width="100" height="100" relative="1" as="geometry">
            <mxPoint x="940" y="160" as="sourcePoint" />
            <mxPoint x="780" y="50" as="targetPoint" />
          </mxGeometry>
        </mxCell>
        <mxCell id="ns7C_bKpi_wKjAJB6SDy-19" value="" style="edgeStyle=entityRelationEdgeStyle;fontSize=12;html=1;endArrow=ERoneToMany;rounded=1;startSize=8;endSize=8;" parent="1" source="ns7C_bKpi_wKjAJB6SDy-6" target="ns7C_bKpi_wKjAJB6SDy-12" edge="1">
          <mxGeometry width="100" height="100" relative="1" as="geometry">
            <mxPoint x="1050" y="-110" as="sourcePoint" />
            <mxPoint x="900" y="-140" as="targetPoint" />
          </mxGeometry>
        </mxCell>
        <mxCell id="ns7C_bKpi_wKjAJB6SDy-20" value="" style="edgeStyle=entityRelationEdgeStyle;fontSize=12;html=1;endArrow=ERoneToMany;rounded=1;startSize=8;endSize=8;" parent="1" source="ns7C_bKpi_wKjAJB6SDy-2" target="ns7C_bKpi_wKjAJB6SDy-12" edge="1">
          <mxGeometry width="100" height="100" relative="1" as="geometry">
            <mxPoint x="980" y="-240" as="sourcePoint" />
            <mxPoint x="860" y="-40" as="targetPoint" />
          </mxGeometry>
        </mxCell>
        <mxCell id="ns7C_bKpi_wKjAJB6SDy-23" value="Client" style="swimlane;childLayout=stackLayout;horizontal=1;startSize=50;horizontalStack=0;rounded=1;fontSize=14;fontStyle=0;strokeWidth=2;resizeParent=0;resizeLast=1;shadow=0;dashed=0;align=center;arcSize=4;whiteSpace=wrap;html=1;" parent="1" vertex="1">
          <mxGeometry x="690" y="-510" width="160" height="120" as="geometry" />
        </mxCell>
        <mxCell id="ns7C_bKpi_wKjAJB6SDy-24" value="+Attribute1&#xa;+Attribute2&#xa;+Attribute3" style="align=left;strokeColor=none;fillColor=none;spacingLeft=4;fontSize=12;verticalAlign=top;resizable=0;rotatable=0;part=1;html=1;" parent="ns7C_bKpi_wKjAJB6SDy-23" vertex="1">
          <mxGeometry y="50" width="160" height="70" as="geometry" />
        </mxCell>
        <mxCell id="ns7C_bKpi_wKjAJB6SDy-25" value="" style="edgeStyle=entityRelationEdgeStyle;fontSize=12;html=1;endArrow=ERoneToMany;rounded=1;startSize=8;endSize=8;" parent="1" source="ns7C_bKpi_wKjAJB6SDy-6" target="ns7C_bKpi_wKjAJB6SDy-23" edge="1">
          <mxGeometry width="100" height="100" relative="1" as="geometry">
            <mxPoint x="930" y="-240" as="sourcePoint" />
            <mxPoint x="850" y="-40" as="targetPoint" />
          </mxGeometry>
        </mxCell>
        <mxCell id="ns7C_bKpi_wKjAJB6SDy-26" value="BookEntry" style="swimlane;childLayout=stackLayout;horizontal=1;startSize=50;horizontalStack=0;rounded=1;fontSize=14;fontStyle=0;strokeWidth=2;resizeParent=0;resizeLast=1;shadow=0;dashed=0;align=center;arcSize=4;whiteSpace=wrap;html=1;" parent="1" vertex="1">
          <mxGeometry x="1790" y="-510" width="160" height="120" as="geometry" />
        </mxCell>
        <mxCell id="ns7C_bKpi_wKjAJB6SDy-27" value="+Attribute1&#xa;+Attribute2&#xa;+Attribute3" style="align=left;strokeColor=none;fillColor=none;spacingLeft=4;fontSize=12;verticalAlign=top;resizable=0;rotatable=0;part=1;html=1;" parent="ns7C_bKpi_wKjAJB6SDy-26" vertex="1">
          <mxGeometry y="50" width="160" height="70" as="geometry" />
        </mxCell>
        <mxCell id="ns7C_bKpi_wKjAJB6SDy-28" value="" style="edgeStyle=entityRelationEdgeStyle;fontSize=12;html=1;endArrow=ERoneToMany;rounded=1;startSize=8;endSize=8;" parent="1" source="ns7C_bKpi_wKjAJB6SDy-6" target="ns7C_bKpi_wKjAJB6SDy-26" edge="1">
          <mxGeometry width="100" height="100" relative="1" as="geometry">
            <mxPoint x="1250" y="-240" as="sourcePoint" />
            <mxPoint x="1130" y="-440" as="targetPoint" />
          </mxGeometry>
        </mxCell>
        <mxCell id="ns7C_bKpi_wKjAJB6SDy-31" value="BookEntry" style="swimlane;childLayout=stackLayout;horizontal=1;startSize=50;horizontalStack=0;rounded=1;fontSize=14;fontStyle=0;strokeWidth=2;resizeParent=0;resizeLast=1;shadow=0;dashed=0;align=center;arcSize=4;whiteSpace=wrap;html=1;" parent="1" vertex="1">
          <mxGeometry x="1790" y="-310" width="160" height="120" as="geometry" />
        </mxCell>
        <mxCell id="ns7C_bKpi_wKjAJB6SDy-34" value="+Attribute1&#xa;+Attribute2&#xa;+Attribute3" style="align=left;strokeColor=none;fillColor=none;spacingLeft=4;fontSize=12;verticalAlign=top;resizable=0;rotatable=0;part=1;html=1;" parent="ns7C_bKpi_wKjAJB6SDy-31" vertex="1">
          <mxGeometry y="50" width="160" height="70" as="geometry" />
        </mxCell>
        <mxCell id="ns7C_bKpi_wKjAJB6SDy-33" value="" style="edgeStyle=entityRelationEdgeStyle;fontSize=12;html=1;endArrow=ERoneToMany;rounded=1;startSize=8;endSize=8;" parent="1" source="ns7C_bKpi_wKjAJB6SDy-6" target="ns7C_bKpi_wKjAJB6SDy-31" edge="1">
          <mxGeometry width="100" height="100" relative="1" as="geometry">
            <mxPoint x="1500" y="-170" as="sourcePoint" />
            <mxPoint x="1430" y="-450" as="targetPoint" />
          </mxGeometry>
        </mxCell>
        <mxCell id="ns7C_bKpi_wKjAJB6SDy-35" value="BookExport" style="swimlane;childLayout=stackLayout;horizontal=1;startSize=50;horizontalStack=0;rounded=1;fontSize=14;fontStyle=0;strokeWidth=2;resizeParent=0;resizeLast=1;shadow=0;dashed=0;align=center;arcSize=4;whiteSpace=wrap;html=1;" parent="1" vertex="1">
          <mxGeometry x="1790" y="-110" width="160" height="120" as="geometry" />
        </mxCell>
        <mxCell id="ns7C_bKpi_wKjAJB6SDy-36" value="+Attribute1&#xa;+Attribute2&#xa;+Attribute3" style="align=left;strokeColor=none;fillColor=none;spacingLeft=4;fontSize=12;verticalAlign=top;resizable=0;rotatable=0;part=1;html=1;" parent="ns7C_bKpi_wKjAJB6SDy-35" vertex="1">
          <mxGeometry y="50" width="160" height="70" as="geometry" />
        </mxCell>
        <mxCell id="ns7C_bKpi_wKjAJB6SDy-37" value="" style="edgeStyle=entityRelationEdgeStyle;fontSize=12;html=1;endArrow=ERoneToMany;rounded=1;startSize=8;endSize=8;" parent="1" source="ns7C_bKpi_wKjAJB6SDy-6" target="ns7C_bKpi_wKjAJB6SDy-35" edge="1">
          <mxGeometry width="100" height="100" relative="1" as="geometry">
            <mxPoint x="1400" y="-50" as="sourcePoint" />
            <mxPoint x="1430" y="-250" as="targetPoint" />
          </mxGeometry>
        </mxCell>
        <mxCell id="ns7C_bKpi_wKjAJB6SDy-41" value="ClientIp" style="swimlane;childLayout=stackLayout;horizontal=1;startSize=50;horizontalStack=0;rounded=1;fontSize=14;fontStyle=0;strokeWidth=2;resizeParent=0;resizeLast=1;shadow=0;dashed=0;align=center;arcSize=4;whiteSpace=wrap;html=1;" parent="1" vertex="1">
          <mxGeometry x="690" y="-710" width="160" height="120" as="geometry" />
        </mxCell>
        <mxCell id="ns7C_bKpi_wKjAJB6SDy-42" value="userId (auth0)" style="align=left;strokeColor=none;fillColor=none;spacingLeft=4;fontSize=12;verticalAlign=top;resizable=0;rotatable=0;part=1;html=1;" parent="ns7C_bKpi_wKjAJB6SDy-41" vertex="1">
          <mxGeometry y="50" width="160" height="70" as="geometry" />
        </mxCell>
        <mxCell id="ns7C_bKpi_wKjAJB6SDy-44" value="" style="edgeStyle=entityRelationEdgeStyle;fontSize=12;html=1;endArrow=ERoneToMany;rounded=1;startSize=8;endSize=8;" parent="1" source="ns7C_bKpi_wKjAJB6SDy-6" target="ns7C_bKpi_wKjAJB6SDy-41" edge="1">
          <mxGeometry width="100" height="100" relative="1" as="geometry">
            <mxPoint x="980" y="-240" as="sourcePoint" />
            <mxPoint x="860" y="-440" as="targetPoint" />
          </mxGeometry>
        </mxCell>
        <mxCell id="ns7C_bKpi_wKjAJB6SDy-45" value="ClientProject" style="swimlane;childLayout=stackLayout;horizontal=1;startSize=50;horizontalStack=0;rounded=1;fontSize=14;fontStyle=0;strokeWidth=2;resizeParent=0;resizeLast=1;shadow=0;dashed=0;align=center;arcSize=4;whiteSpace=wrap;html=1;" parent="1" vertex="1">
          <mxGeometry x="1240" y="-510" width="160" height="120" as="geometry" />
        </mxCell>
        <mxCell id="ns7C_bKpi_wKjAJB6SDy-47" value="" style="edgeStyle=entityRelationEdgeStyle;fontSize=12;html=1;endArrow=ERoneToMany;rounded=1;startSize=8;endSize=8;" parent="1" source="ns7C_bKpi_wKjAJB6SDy-6" target="ns7C_bKpi_wKjAJB6SDy-45" edge="1">
          <mxGeometry width="100" height="100" relative="1" as="geometry">
            <mxPoint x="1250" y="-240" as="sourcePoint" />
            <mxPoint x="1130" y="-640" as="targetPoint" />
          </mxGeometry>
        </mxCell>
        <mxCell id="ns7C_bKpi_wKjAJB6SDy-48" value="" style="edgeStyle=entityRelationEdgeStyle;fontSize=12;html=1;endArrow=ERoneToMany;rounded=1;startSize=8;endSize=8;" parent="1" source="ns7C_bKpi_wKjAJB6SDy-23" target="ns7C_bKpi_wKjAJB6SDy-45" edge="1">
          <mxGeometry width="100" height="100" relative="1" as="geometry">
            <mxPoint x="1140" y="-240" as="sourcePoint" />
            <mxPoint x="1140" y="-440" as="targetPoint" />
          </mxGeometry>
        </mxCell>
        <mxCell id="ns7C_bKpi_wKjAJB6SDy-50" value="ClientSequence" style="swimlane;childLayout=stackLayout;horizontal=1;startSize=50;horizontalStack=0;rounded=1;fontSize=14;fontStyle=0;strokeWidth=2;resizeParent=0;resizeLast=1;shadow=0;dashed=0;align=center;arcSize=4;whiteSpace=wrap;html=1;" parent="1" vertex="1">
          <mxGeometry x="1240" y="-710" width="160" height="120" as="geometry" />
        </mxCell>
        <mxCell id="ns7C_bKpi_wKjAJB6SDy-51" value="userId (auth0)" style="align=left;strokeColor=none;fillColor=none;spacingLeft=4;fontSize=12;verticalAlign=top;resizable=0;rotatable=0;part=1;html=1;" parent="ns7C_bKpi_wKjAJB6SDy-50" vertex="1">
          <mxGeometry y="50" width="160" height="70" as="geometry" />
        </mxCell>
        <mxCell id="ns7C_bKpi_wKjAJB6SDy-52" value="" style="edgeStyle=entityRelationEdgeStyle;fontSize=12;html=1;endArrow=ERoneToMany;rounded=1;startSize=8;endSize=8;" parent="1" source="ns7C_bKpi_wKjAJB6SDy-6" target="ns7C_bKpi_wKjAJB6SDy-50" edge="1">
          <mxGeometry width="100" height="100" relative="1" as="geometry">
            <mxPoint x="1520" y="-250" as="sourcePoint" />
            <mxPoint x="1410" y="-440" as="targetPoint" />
          </mxGeometry>
        </mxCell>
        <mxCell id="ns7C_bKpi_wKjAJB6SDy-53" value="EmailTemplate" style="swimlane;childLayout=stackLayout;horizontal=1;startSize=50;horizontalStack=0;rounded=1;fontSize=14;fontStyle=0;strokeWidth=2;resizeParent=0;resizeLast=1;shadow=0;dashed=0;align=center;arcSize=4;whiteSpace=wrap;html=1;" parent="1" vertex="1">
          <mxGeometry x="1790" y="-710" width="160" height="120" as="geometry" />
        </mxCell>
        <mxCell id="ns7C_bKpi_wKjAJB6SDy-54" value="userId (auth0)" style="align=left;strokeColor=none;fillColor=none;spacingLeft=4;fontSize=12;verticalAlign=top;resizable=0;rotatable=0;part=1;html=1;" parent="ns7C_bKpi_wKjAJB6SDy-53" vertex="1">
          <mxGeometry y="50" width="160" height="70" as="geometry" />
        </mxCell>
        <mxCell id="ns7C_bKpi_wKjAJB6SDy-55" value="" style="edgeStyle=entityRelationEdgeStyle;fontSize=12;html=1;endArrow=ERoneToMany;rounded=1;startSize=8;endSize=8;" parent="1" source="ns7C_bKpi_wKjAJB6SDy-6" target="ns7C_bKpi_wKjAJB6SDy-53" edge="1">
          <mxGeometry width="100" height="100" relative="1" as="geometry">
            <mxPoint x="1410" y="-240" as="sourcePoint" />
            <mxPoint x="1410" y="-640" as="targetPoint" />
          </mxGeometry>
        </mxCell>
        <mxCell id="ns7C_bKpi_wKjAJB6SDy-56" value="" style="edgeStyle=entityRelationEdgeStyle;fontSize=12;html=1;endArrow=ERoneToMany;rounded=1;startSize=8;endSize=8;" parent="1" source="ns7C_bKpi_wKjAJB6SDy-6" target="ns7C_bKpi_wKjAJB6SDy-10" edge="1">
          <mxGeometry width="100" height="100" relative="1" as="geometry">
            <mxPoint x="1410" y="-240" as="sourcePoint" />
            <mxPoint x="1800" y="-40" as="targetPoint" />
          </mxGeometry>
        </mxCell>
        <mxCell id="ns7C_bKpi_wKjAJB6SDy-57" value="ProjectSequence" style="swimlane;childLayout=stackLayout;horizontal=1;startSize=50;horizontalStack=0;rounded=1;fontSize=14;fontStyle=0;strokeWidth=2;resizeParent=0;resizeLast=1;shadow=0;dashed=0;align=center;arcSize=4;whiteSpace=wrap;html=1;" parent="1" vertex="1">
          <mxGeometry x="970" y="90" width="160" height="120" as="geometry" />
        </mxCell>
        <mxCell id="ns7C_bKpi_wKjAJB6SDy-58" value="+Attribute1&#xa;+Attribute2&#xa;+Attribute3" style="align=left;strokeColor=none;fillColor=none;spacingLeft=4;fontSize=12;verticalAlign=top;resizable=0;rotatable=0;part=1;html=1;" parent="ns7C_bKpi_wKjAJB6SDy-57" vertex="1">
          <mxGeometry y="50" width="160" height="70" as="geometry" />
        </mxCell>
        <mxCell id="ns7C_bKpi_wKjAJB6SDy-60" value="" style="edgeStyle=entityRelationEdgeStyle;fontSize=12;html=1;endArrow=ERoneToMany;rounded=1;startSize=8;endSize=8;" parent="1" source="ns7C_bKpi_wKjAJB6SDy-6" target="ns7C_bKpi_wKjAJB6SDy-57" edge="1">
          <mxGeometry width="100" height="100" relative="1" as="geometry">
            <mxPoint x="1440" y="-200" as="sourcePoint" />
            <mxPoint x="1060" y="200" as="targetPoint" />
          </mxGeometry>
        </mxCell>
        <mxCell id="ns7C_bKpi_wKjAJB6SDy-61" value="ExpenseCategory" style="swimlane;childLayout=stackLayout;horizontal=1;startSize=50;horizontalStack=0;rounded=1;fontSize=14;fontStyle=0;strokeWidth=2;resizeParent=0;resizeLast=1;shadow=0;dashed=0;align=center;arcSize=4;whiteSpace=wrap;html=1;" parent="1" vertex="1">
          <mxGeometry x="1240" y="90" width="160" height="120" as="geometry" />
        </mxCell>
        <mxCell id="ns7C_bKpi_wKjAJB6SDy-64" value="+Attribute1&#xa;+Attribute2&#xa;+Attribute3" style="align=left;strokeColor=none;fillColor=none;spacingLeft=4;fontSize=12;verticalAlign=top;resizable=0;rotatable=0;part=1;html=1;" parent="ns7C_bKpi_wKjAJB6SDy-61" vertex="1">
          <mxGeometry y="50" width="160" height="70" as="geometry" />
        </mxCell>
        <mxCell id="ns7C_bKpi_wKjAJB6SDy-63" value="" style="edgeStyle=entityRelationEdgeStyle;fontSize=12;html=1;endArrow=ERoneToMany;rounded=1;startSize=8;endSize=8;" parent="1" source="ns7C_bKpi_wKjAJB6SDy-6" target="ns7C_bKpi_wKjAJB6SDy-61" edge="1">
          <mxGeometry width="100" height="100" relative="1" as="geometry">
            <mxPoint x="1410" y="-240" as="sourcePoint" />
            <mxPoint x="1410" y="160" as="targetPoint" />
          </mxGeometry>
        </mxCell>
        <mxCell id="ns7C_bKpi_wKjAJB6SDy-65" value="" style="edgeStyle=entityRelationEdgeStyle;fontSize=12;html=1;endArrow=ERoneToMany;rounded=1;startSize=8;endSize=8;" parent="1" source="ns7C_bKpi_wKjAJB6SDy-61" target="ns7C_bKpi_wKjAJB6SDy-61" edge="1">
          <mxGeometry width="100" height="100" relative="1" as="geometry">
            <mxPoint x="1550" y="40" as="sourcePoint" />
            <mxPoint x="1550" y="440" as="targetPoint" />
          </mxGeometry>
        </mxCell>
        <mxCell id="ns7C_bKpi_wKjAJB6SDy-66" value="Expense" style="swimlane;childLayout=stackLayout;horizontal=1;startSize=50;horizontalStack=0;rounded=1;fontSize=14;fontStyle=0;strokeWidth=2;resizeParent=0;resizeLast=1;shadow=0;dashed=0;align=center;arcSize=4;whiteSpace=wrap;html=1;" parent="1" vertex="1">
          <mxGeometry x="1240" y="-110" width="160" height="160" as="geometry" />
        </mxCell>
        <mxCell id="ns7C_bKpi_wKjAJB6SDy-67" value="+ categoryId&lt;br&gt;+ clientId&lt;br&gt;+ projectId&lt;br&gt;+ userId&lt;br&gt;+ companyId&lt;br&gt;+ payeeId&lt;br&gt;+ supervisorId" style="align=left;strokeColor=none;fillColor=none;spacingLeft=4;fontSize=12;verticalAlign=top;resizable=0;rotatable=0;part=1;html=1;" parent="ns7C_bKpi_wKjAJB6SDy-66" vertex="1">
          <mxGeometry y="50" width="160" height="110" as="geometry" />
        </mxCell>
        <mxCell id="ns7C_bKpi_wKjAJB6SDy-68" value="" style="edgeStyle=entityRelationEdgeStyle;fontSize=12;html=1;endArrow=ERoneToMany;rounded=1;startSize=8;endSize=8;" parent="1" source="ns7C_bKpi_wKjAJB6SDy-66" target="ns7C_bKpi_wKjAJB6SDy-61" edge="1">
          <mxGeometry width="100" height="100" relative="1" as="geometry">
            <mxPoint x="1250" y="-240" as="sourcePoint" />
            <mxPoint x="1140" y="160" as="targetPoint" />
          </mxGeometry>
        </mxCell>
        <mxCell id="ns7C_bKpi_wKjAJB6SDy-69" value="" style="edgeStyle=entityRelationEdgeStyle;fontSize=12;html=1;endArrow=ERoneToMany;rounded=1;startSize=8;endSize=8;" parent="1" source="ns7C_bKpi_wKjAJB6SDy-23" target="ns7C_bKpi_wKjAJB6SDy-66" edge="1">
          <mxGeometry width="100" height="100" relative="1" as="geometry">
            <mxPoint x="1090" y="-680" as="sourcePoint" />
            <mxPoint x="860" y="-640" as="targetPoint" />
          </mxGeometry>
        </mxCell>
        <mxCell id="ns7C_bKpi_wKjAJB6SDy-70" value="" style="edgeStyle=entityRelationEdgeStyle;fontSize=12;html=1;endArrow=ERoneToMany;rounded=1;startSize=8;endSize=8;" parent="1" source="ns7C_bKpi_wKjAJB6SDy-45" target="ns7C_bKpi_wKjAJB6SDy-66" edge="1">
          <mxGeometry width="100" height="100" relative="1" as="geometry">
            <mxPoint x="1550" y="-100" as="sourcePoint" />
            <mxPoint x="1250" y="-40" as="targetPoint" />
          </mxGeometry>
        </mxCell>
        <mxCell id="ns7C_bKpi_wKjAJB6SDy-71" value="Provider" style="swimlane;childLayout=stackLayout;horizontal=1;startSize=50;horizontalStack=0;rounded=1;fontSize=14;fontStyle=0;strokeWidth=2;resizeParent=0;resizeLast=1;shadow=0;dashed=0;align=center;arcSize=4;whiteSpace=wrap;html=1;" parent="1" vertex="1">
          <mxGeometry x="970" y="-710" width="160" height="120" as="geometry" />
        </mxCell>
        <mxCell id="ns7C_bKpi_wKjAJB6SDy-73" value="" style="edgeStyle=entityRelationEdgeStyle;fontSize=12;html=1;endArrow=ERoneToMany;rounded=1;startSize=8;endSize=8;" parent="1" source="ns7C_bKpi_wKjAJB6SDy-6" target="ns7C_bKpi_wKjAJB6SDy-71" edge="1">
          <mxGeometry width="100" height="100" relative="1" as="geometry">
            <mxPoint x="1060" y="-420" as="sourcePoint" />
            <mxPoint x="1160" y="-520" as="targetPoint" />
          </mxGeometry>
        </mxCell>
        <mxCell id="ns7C_bKpi_wKjAJB6SDy-74" value="" style="edgeStyle=entityRelationEdgeStyle;fontSize=12;html=1;endArrow=ERoneToMany;rounded=1;startSize=8;endSize=8;exitX=0.5;exitY=1;exitDx=0;exitDy=0;" parent="1" source="ns7C_bKpi_wKjAJB6SDy-71" target="ns7C_bKpi_wKjAJB6SDy-66" edge="1">
          <mxGeometry width="100" height="100" relative="1" as="geometry">
            <mxPoint x="860" y="-440" as="sourcePoint" />
            <mxPoint x="1250" y="-40" as="targetPoint" />
          </mxGeometry>
        </mxCell>
        <mxCell id="ns7C_bKpi_wKjAJB6SDy-76" value="" style="edgeStyle=entityRelationEdgeStyle;fontSize=12;html=1;endArrow=ERoneToMany;rounded=1;startSize=8;endSize=8;exitX=1;exitY=0.25;exitDx=0;exitDy=0;" parent="1" source="ns7C_bKpi_wKjAJB6SDy-2" target="ns7C_bKpi_wKjAJB6SDy-66" edge="1">
          <mxGeometry width="100" height="100" relative="1" as="geometry">
            <mxPoint x="860" y="-440" as="sourcePoint" />
            <mxPoint x="1250" y="-35" as="targetPoint" />
          </mxGeometry>
        </mxCell>
        <mxCell id="ns7C_bKpi_wKjAJB6SDy-77" value="ExpenseSequence" style="swimlane;childLayout=stackLayout;horizontal=1;startSize=50;horizontalStack=0;rounded=1;fontSize=14;fontStyle=0;strokeWidth=2;resizeParent=0;resizeLast=1;shadow=0;dashed=0;align=center;arcSize=4;whiteSpace=wrap;html=1;" parent="1" vertex="1">
          <mxGeometry x="1510" y="-110" width="160" height="120" as="geometry" />
        </mxCell>
        <mxCell id="ns7C_bKpi_wKjAJB6SDy-79" value="" style="edgeStyle=entityRelationEdgeStyle;fontSize=12;html=1;endArrow=ERoneToMany;rounded=1;startSize=8;endSize=8;" parent="1" source="ns7C_bKpi_wKjAJB6SDy-6" target="ns7C_bKpi_wKjAJB6SDy-77" edge="1">
          <mxGeometry width="100" height="100" relative="1" as="geometry">
            <mxPoint x="1410" y="-240" as="sourcePoint" />
            <mxPoint x="1800" y="-40" as="targetPoint" />
          </mxGeometry>
        </mxCell>
        <mxCell id="ns7C_bKpi_wKjAJB6SDy-80" value="InternalExpense" style="swimlane;childLayout=stackLayout;horizontal=1;startSize=50;horizontalStack=0;rounded=1;fontSize=14;fontStyle=0;strokeWidth=2;resizeParent=0;resizeLast=1;shadow=0;dashed=0;align=center;arcSize=4;whiteSpace=wrap;html=1;" parent="1" vertex="1">
          <mxGeometry x="1510" y="90" width="160" height="120" as="geometry" />
        </mxCell>
        <mxCell id="ns7C_bKpi_wKjAJB6SDy-81" value="" style="edgeStyle=entityRelationEdgeStyle;fontSize=12;html=1;endArrow=ERoneToMany;rounded=1;startSize=8;endSize=8;" parent="1" source="ns7C_bKpi_wKjAJB6SDy-6" target="ns7C_bKpi_wKjAJB6SDy-80" edge="1">
          <mxGeometry width="100" height="100" relative="1" as="geometry">
            <mxPoint x="1410" y="-240" as="sourcePoint" />
            <mxPoint x="1520" y="-40" as="targetPoint" />
          </mxGeometry>
        </mxCell>
        <mxCell id="ns7C_bKpi_wKjAJB6SDy-82" value="DepositPDFPool" style="swimlane;childLayout=stackLayout;horizontal=1;startSize=50;horizontalStack=0;rounded=1;fontSize=14;fontStyle=0;strokeWidth=2;resizeParent=0;resizeLast=1;shadow=0;dashed=0;align=center;arcSize=4;whiteSpace=wrap;html=1;" parent="1" vertex="1">
          <mxGeometry x="1510" y="-310" width="160" height="120" as="geometry" />
        </mxCell>
        <mxCell id="ns7C_bKpi_wKjAJB6SDy-83" value="" style="edgeStyle=entityRelationEdgeStyle;fontSize=12;html=1;endArrow=ERoneToMany;rounded=1;startSize=8;endSize=8;" parent="1" source="ns7C_bKpi_wKjAJB6SDy-6" target="ns7C_bKpi_wKjAJB6SDy-82" edge="1">
          <mxGeometry width="100" height="100" relative="1" as="geometry">
            <mxPoint x="1410" y="-240" as="sourcePoint" />
            <mxPoint x="1800" y="-440" as="targetPoint" />
          </mxGeometry>
        </mxCell>
        <mxCell id="ns7C_bKpi_wKjAJB6SDy-84" value="DistanceRate" style="swimlane;childLayout=stackLayout;horizontal=1;startSize=50;horizontalStack=0;rounded=1;fontSize=14;fontStyle=0;strokeWidth=2;resizeParent=0;resizeLast=1;shadow=0;dashed=0;align=center;arcSize=4;whiteSpace=wrap;html=1;" parent="1" vertex="1">
          <mxGeometry x="250" y="50" width="160" height="120" as="geometry" />
        </mxCell>
        <mxCell id="ns7C_bKpi_wKjAJB6SDy-85" value="+Attribute1&#xa;+Attribute2&#xa;+Attribute3" style="align=left;strokeColor=none;fillColor=none;spacingLeft=4;fontSize=12;verticalAlign=top;resizable=0;rotatable=0;part=1;html=1;" parent="ns7C_bKpi_wKjAJB6SDy-84" vertex="1">
          <mxGeometry y="50" width="160" height="70" as="geometry" />
        </mxCell>
        <mxCell id="ns7C_bKpi_wKjAJB6SDy-86" value="Item" style="swimlane;childLayout=stackLayout;horizontal=1;startSize=50;horizontalStack=0;rounded=1;fontSize=14;fontStyle=0;strokeWidth=2;resizeParent=0;resizeLast=1;shadow=0;dashed=0;align=center;arcSize=4;whiteSpace=wrap;html=1;" parent="1" vertex="1">
          <mxGeometry x="1520" y="-510" width="160" height="120" as="geometry" />
        </mxCell>
        <mxCell id="ns7C_bKpi_wKjAJB6SDy-88" value="" style="edgeStyle=entityRelationEdgeStyle;fontSize=12;html=1;endArrow=ERoneToMany;rounded=1;startSize=8;endSize=8;" parent="1" source="ns7C_bKpi_wKjAJB6SDy-6" target="ns7C_bKpi_wKjAJB6SDy-86" edge="1">
          <mxGeometry width="100" height="100" relative="1" as="geometry">
            <mxPoint x="1410" y="-240" as="sourcePoint" />
            <mxPoint x="1800" y="-640" as="targetPoint" />
          </mxGeometry>
        </mxCell>
        <mxCell id="ns7C_bKpi_wKjAJB6SDy-89" value="Revenue" style="swimlane;childLayout=stackLayout;horizontal=1;startSize=50;horizontalStack=0;rounded=1;fontSize=14;fontStyle=0;strokeWidth=2;resizeParent=0;resizeLast=1;shadow=0;dashed=0;align=center;arcSize=4;whiteSpace=wrap;html=1;glass=0;" parent="1" vertex="1">
          <mxGeometry x="1450" y="280" width="160" height="120" as="geometry" />
        </mxCell>
        <mxCell id="ns7C_bKpi_wKjAJB6SDy-90" value="RevenueCategory" style="swimlane;childLayout=stackLayout;horizontal=1;startSize=50;horizontalStack=0;rounded=1;fontSize=14;fontStyle=0;strokeWidth=2;resizeParent=0;resizeLast=1;shadow=0;dashed=0;align=center;arcSize=4;whiteSpace=wrap;html=1;" parent="1" vertex="1">
          <mxGeometry x="1180" y="280" width="160" height="120" as="geometry" />
        </mxCell>
        <mxCell id="ns7C_bKpi_wKjAJB6SDy-91" value="" style="edgeStyle=entityRelationEdgeStyle;fontSize=12;html=1;endArrow=ERoneToMany;rounded=1;startSize=8;endSize=8;" parent="1" source="ns7C_bKpi_wKjAJB6SDy-90" target="ns7C_bKpi_wKjAJB6SDy-90" edge="1">
          <mxGeometry width="100" height="100" relative="1" as="geometry">
            <mxPoint x="1410" y="150" as="sourcePoint" />
            <mxPoint x="1410" y="170" as="targetPoint" />
          </mxGeometry>
        </mxCell>
        <mxCell id="ns7C_bKpi_wKjAJB6SDy-92" value="" style="edgeStyle=entityRelationEdgeStyle;fontSize=12;html=1;endArrow=ERoneToMany;rounded=1;startSize=8;endSize=8;" parent="1" source="ns7C_bKpi_wKjAJB6SDy-90" target="ns7C_bKpi_wKjAJB6SDy-89" edge="1">
          <mxGeometry width="100" height="100" relative="1" as="geometry">
            <mxPoint x="1350" y="340" as="sourcePoint" />
            <mxPoint x="1410" y="270" as="targetPoint" />
          </mxGeometry>
        </mxCell>
      </root>
    </mxGraphModel>
  </diagram>
  <diagram id="Ukr9_n1yjuluIrUjJuxs" name="mysql">
    <mxGraphModel dx="2958" dy="2344" grid="1" gridSize="10" guides="1" tooltips="1" connect="1" arrows="1" fold="1" page="0" pageScale="1" pageWidth="1169" pageHeight="827" math="0" shadow="0">
      <root>
        <mxCell id="0" />
        <mxCell id="1" parent="0" />
        <mxCell id="H5C_QRacnQs3EDhZYAMX-5" value="Company" style="shape=table;startSize=30;container=1;collapsible=1;childLayout=tableLayout;fixedRows=1;rowLines=0;fontStyle=1;align=center;resizeLast=1;html=1;whiteSpace=wrap;fontSize=16;" vertex="1" parent="1">
          <mxGeometry x="350" y="-140" width="240" height="780" as="geometry" />
        </mxCell>
        <mxCell id="H5C_QRacnQs3EDhZYAMX-6" value="" style="shape=tableRow;horizontal=0;startSize=0;swimlaneHead=0;swimlaneBody=0;fillColor=none;collapsible=0;dropTarget=0;points=[[0,0.5],[1,0.5]];portConstraint=eastwest;top=0;left=0;right=0;bottom=0;html=1;fontSize=16;" vertex="1" parent="H5C_QRacnQs3EDhZYAMX-5">
          <mxGeometry y="30" width="240" height="30" as="geometry" />
        </mxCell>
        <mxCell id="H5C_QRacnQs3EDhZYAMX-7" value="PK, uuid" style="shape=partialRectangle;connectable=0;fillColor=none;top=0;left=0;bottom=0;right=0;fontStyle=1;overflow=hidden;html=1;whiteSpace=wrap;fontSize=16;" vertex="1" parent="H5C_QRacnQs3EDhZYAMX-6">
          <mxGeometry width="80" height="30" as="geometry">
            <mxRectangle width="80" height="30" as="alternateBounds" />
          </mxGeometry>
        </mxCell>
        <mxCell id="H5C_QRacnQs3EDhZYAMX-8" value="Id" style="shape=partialRectangle;connectable=0;fillColor=none;top=0;left=0;bottom=0;right=0;align=left;spacingLeft=6;fontStyle=5;overflow=hidden;html=1;whiteSpace=wrap;fontSize=16;" vertex="1" parent="H5C_QRacnQs3EDhZYAMX-6">
          <mxGeometry x="80" width="160" height="30" as="geometry">
            <mxRectangle width="160" height="30" as="alternateBounds" />
          </mxGeometry>
        </mxCell>
        <mxCell id="H5C_QRacnQs3EDhZYAMX-12" value="" style="shape=tableRow;horizontal=0;startSize=0;swimlaneHead=0;swimlaneBody=0;fillColor=none;collapsible=0;dropTarget=0;points=[[0,0.5],[1,0.5]];portConstraint=eastwest;top=0;left=0;right=0;bottom=0;html=1;fontSize=16;" vertex="1" parent="H5C_QRacnQs3EDhZYAMX-5">
          <mxGeometry y="60" width="240" height="30" as="geometry" />
        </mxCell>
        <mxCell id="H5C_QRacnQs3EDhZYAMX-13" value="FK, uuid" style="shape=partialRectangle;connectable=0;fillColor=none;top=0;left=0;bottom=0;right=0;editable=1;overflow=hidden;html=1;whiteSpace=wrap;fontSize=16;" vertex="1" parent="H5C_QRacnQs3EDhZYAMX-12">
          <mxGeometry width="80" height="30" as="geometry">
            <mxRectangle width="80" height="30" as="alternateBounds" />
          </mxGeometry>
        </mxCell>
        <mxCell id="H5C_QRacnQs3EDhZYAMX-14" value="companySettingId" style="shape=partialRectangle;connectable=0;fillColor=none;top=0;left=0;bottom=0;right=0;align=left;spacingLeft=6;overflow=hidden;html=1;whiteSpace=wrap;fontSize=16;" vertex="1" parent="H5C_QRacnQs3EDhZYAMX-12">
          <mxGeometry x="80" width="160" height="30" as="geometry">
            <mxRectangle width="160" height="30" as="alternateBounds" />
          </mxGeometry>
        </mxCell>
        <mxCell id="rPhc27V8RnGPCXjF8UAi-12" value="" style="shape=tableRow;horizontal=0;startSize=0;swimlaneHead=0;swimlaneBody=0;fillColor=none;collapsible=0;dropTarget=0;points=[[0,0.5],[1,0.5]];portConstraint=eastwest;top=0;left=0;right=0;bottom=0;fontSize=16;" vertex="1" parent="H5C_QRacnQs3EDhZYAMX-5">
          <mxGeometry y="90" width="240" height="30" as="geometry" />
        </mxCell>
        <mxCell id="rPhc27V8RnGPCXjF8UAi-13" value="bool" style="shape=partialRectangle;connectable=0;fillColor=none;top=0;left=0;bottom=0;right=0;editable=1;overflow=hidden;fontSize=16;" vertex="1" parent="rPhc27V8RnGPCXjF8UAi-12">
          <mxGeometry width="80" height="30" as="geometry">
            <mxRectangle width="80" height="30" as="alternateBounds" />
          </mxGeometry>
        </mxCell>
        <mxCell id="rPhc27V8RnGPCXjF8UAi-14" value="suspended" style="shape=partialRectangle;connectable=0;fillColor=none;top=0;left=0;bottom=0;right=0;align=left;spacingLeft=6;overflow=hidden;fontSize=16;" vertex="1" parent="rPhc27V8RnGPCXjF8UAi-12">
          <mxGeometry x="80" width="160" height="30" as="geometry">
            <mxRectangle width="160" height="30" as="alternateBounds" />
          </mxGeometry>
        </mxCell>
        <mxCell id="rPhc27V8RnGPCXjF8UAi-15" value="" style="shape=tableRow;horizontal=0;startSize=0;swimlaneHead=0;swimlaneBody=0;fillColor=none;collapsible=0;dropTarget=0;points=[[0,0.5],[1,0.5]];portConstraint=eastwest;top=0;left=0;right=0;bottom=0;fontSize=16;" vertex="1" parent="H5C_QRacnQs3EDhZYAMX-5">
          <mxGeometry y="120" width="240" height="30" as="geometry" />
        </mxCell>
        <mxCell id="rPhc27V8RnGPCXjF8UAi-16" value="string" style="shape=partialRectangle;connectable=0;fillColor=none;top=0;left=0;bottom=0;right=0;editable=1;overflow=hidden;fontSize=16;" vertex="1" parent="rPhc27V8RnGPCXjF8UAi-15">
          <mxGeometry width="80" height="30" as="geometry">
            <mxRectangle width="80" height="30" as="alternateBounds" />
          </mxGeometry>
        </mxCell>
        <mxCell id="rPhc27V8RnGPCXjF8UAi-17" value="kbiz" style="shape=partialRectangle;connectable=0;fillColor=none;top=0;left=0;bottom=0;right=0;align=left;spacingLeft=6;overflow=hidden;fontSize=16;" vertex="1" parent="rPhc27V8RnGPCXjF8UAi-15">
          <mxGeometry x="80" width="160" height="30" as="geometry">
            <mxRectangle width="160" height="30" as="alternateBounds" />
          </mxGeometry>
        </mxCell>
        <mxCell id="rPhc27V8RnGPCXjF8UAi-18" value="" style="shape=tableRow;horizontal=0;startSize=0;swimlaneHead=0;swimlaneBody=0;fillColor=none;collapsible=0;dropTarget=0;points=[[0,0.5],[1,0.5]];portConstraint=eastwest;top=0;left=0;right=0;bottom=0;fontSize=16;" vertex="1" parent="H5C_QRacnQs3EDhZYAMX-5">
          <mxGeometry y="150" width="240" height="30" as="geometry" />
        </mxCell>
        <mxCell id="rPhc27V8RnGPCXjF8UAi-19" value="bool" style="shape=partialRectangle;connectable=0;fillColor=none;top=0;left=0;bottom=0;right=0;editable=1;overflow=hidden;fontSize=16;" vertex="1" parent="rPhc27V8RnGPCXjF8UAi-18">
          <mxGeometry width="80" height="30" as="geometry">
            <mxRectangle width="80" height="30" as="alternateBounds" />
          </mxGeometry>
        </mxCell>
        <mxCell id="rPhc27V8RnGPCXjF8UAi-20" value="creation" style="shape=partialRectangle;connectable=0;fillColor=none;top=0;left=0;bottom=0;right=0;align=left;spacingLeft=6;overflow=hidden;fontSize=16;" vertex="1" parent="rPhc27V8RnGPCXjF8UAi-18">
          <mxGeometry x="80" width="160" height="30" as="geometry">
            <mxRectangle width="160" height="30" as="alternateBounds" />
          </mxGeometry>
        </mxCell>
        <mxCell id="rPhc27V8RnGPCXjF8UAi-21" value="" style="shape=tableRow;horizontal=0;startSize=0;swimlaneHead=0;swimlaneBody=0;fillColor=none;collapsible=0;dropTarget=0;points=[[0,0.5],[1,0.5]];portConstraint=eastwest;top=0;left=0;right=0;bottom=0;fontSize=16;" vertex="1" parent="H5C_QRacnQs3EDhZYAMX-5">
          <mxGeometry y="180" width="240" height="30" as="geometry" />
        </mxCell>
        <mxCell id="rPhc27V8RnGPCXjF8UAi-22" value="string" style="shape=partialRectangle;connectable=0;fillColor=none;top=0;left=0;bottom=0;right=0;editable=1;overflow=hidden;fontSize=16;" vertex="1" parent="rPhc27V8RnGPCXjF8UAi-21">
          <mxGeometry width="80" height="30" as="geometry">
            <mxRectangle width="80" height="30" as="alternateBounds" />
          </mxGeometry>
        </mxCell>
        <mxCell id="rPhc27V8RnGPCXjF8UAi-23" value="name" style="shape=partialRectangle;connectable=0;fillColor=none;top=0;left=0;bottom=0;right=0;align=left;spacingLeft=6;overflow=hidden;fontSize=16;" vertex="1" parent="rPhc27V8RnGPCXjF8UAi-21">
          <mxGeometry x="80" width="160" height="30" as="geometry">
            <mxRectangle width="160" height="30" as="alternateBounds" />
          </mxGeometry>
        </mxCell>
        <mxCell id="rPhc27V8RnGPCXjF8UAi-24" value="" style="shape=tableRow;horizontal=0;startSize=0;swimlaneHead=0;swimlaneBody=0;fillColor=none;collapsible=0;dropTarget=0;points=[[0,0.5],[1,0.5]];portConstraint=eastwest;top=0;left=0;right=0;bottom=0;fontSize=16;" vertex="1" parent="H5C_QRacnQs3EDhZYAMX-5">
          <mxGeometry y="210" width="240" height="30" as="geometry" />
        </mxCell>
        <mxCell id="rPhc27V8RnGPCXjF8UAi-25" value="string" style="shape=partialRectangle;connectable=0;fillColor=none;top=0;left=0;bottom=0;right=0;editable=1;overflow=hidden;fontSize=16;" vertex="1" parent="rPhc27V8RnGPCXjF8UAi-24">
          <mxGeometry width="80" height="30" as="geometry">
            <mxRectangle width="80" height="30" as="alternateBounds" />
          </mxGeometry>
        </mxCell>
        <mxCell id="rPhc27V8RnGPCXjF8UAi-26" value="businessName" style="shape=partialRectangle;connectable=0;fillColor=none;top=0;left=0;bottom=0;right=0;align=left;spacingLeft=6;overflow=hidden;fontSize=16;" vertex="1" parent="rPhc27V8RnGPCXjF8UAi-24">
          <mxGeometry x="80" width="160" height="30" as="geometry">
            <mxRectangle width="160" height="30" as="alternateBounds" />
          </mxGeometry>
        </mxCell>
        <mxCell id="rPhc27V8RnGPCXjF8UAi-27" value="" style="shape=tableRow;horizontal=0;startSize=0;swimlaneHead=0;swimlaneBody=0;fillColor=none;collapsible=0;dropTarget=0;points=[[0,0.5],[1,0.5]];portConstraint=eastwest;top=0;left=0;right=0;bottom=0;fontSize=16;" vertex="1" parent="H5C_QRacnQs3EDhZYAMX-5">
          <mxGeometry y="240" width="240" height="30" as="geometry" />
        </mxCell>
        <mxCell id="rPhc27V8RnGPCXjF8UAi-28" value="FK" style="shape=partialRectangle;connectable=0;fillColor=none;top=0;left=0;bottom=0;right=0;editable=1;overflow=hidden;fontSize=16;" vertex="1" parent="rPhc27V8RnGPCXjF8UAi-27">
          <mxGeometry width="80" height="30" as="geometry">
            <mxRectangle width="80" height="30" as="alternateBounds" />
          </mxGeometry>
        </mxCell>
        <mxCell id="rPhc27V8RnGPCXjF8UAi-29" value="addressId" style="shape=partialRectangle;connectable=0;fillColor=none;top=0;left=0;bottom=0;right=0;align=left;spacingLeft=6;overflow=hidden;fontSize=16;" vertex="1" parent="rPhc27V8RnGPCXjF8UAi-27">
          <mxGeometry x="80" width="160" height="30" as="geometry">
            <mxRectangle width="160" height="30" as="alternateBounds" />
          </mxGeometry>
        </mxCell>
        <mxCell id="rPhc27V8RnGPCXjF8UAi-30" value="" style="shape=tableRow;horizontal=0;startSize=0;swimlaneHead=0;swimlaneBody=0;fillColor=none;collapsible=0;dropTarget=0;points=[[0,0.5],[1,0.5]];portConstraint=eastwest;top=0;left=0;right=0;bottom=0;fontSize=16;" vertex="1" parent="H5C_QRacnQs3EDhZYAMX-5">
          <mxGeometry y="270" width="240" height="30" as="geometry" />
        </mxCell>
        <mxCell id="rPhc27V8RnGPCXjF8UAi-31" value="string" style="shape=partialRectangle;connectable=0;fillColor=none;top=0;left=0;bottom=0;right=0;editable=1;overflow=hidden;fontSize=16;" vertex="1" parent="rPhc27V8RnGPCXjF8UAi-30">
          <mxGeometry width="80" height="30" as="geometry">
            <mxRectangle width="80" height="30" as="alternateBounds" />
          </mxGeometry>
        </mxCell>
        <mxCell id="rPhc27V8RnGPCXjF8UAi-32" value="rcs" style="shape=partialRectangle;connectable=0;fillColor=none;top=0;left=0;bottom=0;right=0;align=left;spacingLeft=6;overflow=hidden;fontSize=16;" vertex="1" parent="rPhc27V8RnGPCXjF8UAi-30">
          <mxGeometry x="80" width="160" height="30" as="geometry">
            <mxRectangle width="160" height="30" as="alternateBounds" />
          </mxGeometry>
        </mxCell>
        <mxCell id="rPhc27V8RnGPCXjF8UAi-33" value="" style="shape=tableRow;horizontal=0;startSize=0;swimlaneHead=0;swimlaneBody=0;fillColor=none;collapsible=0;dropTarget=0;points=[[0,0.5],[1,0.5]];portConstraint=eastwest;top=0;left=0;right=0;bottom=0;fontSize=16;" vertex="1" parent="H5C_QRacnQs3EDhZYAMX-5">
          <mxGeometry y="300" width="240" height="30" as="geometry" />
        </mxCell>
        <mxCell id="rPhc27V8RnGPCXjF8UAi-34" value="string" style="shape=partialRectangle;connectable=0;fillColor=none;top=0;left=0;bottom=0;right=0;editable=1;overflow=hidden;fontSize=16;" vertex="1" parent="rPhc27V8RnGPCXjF8UAi-33">
          <mxGeometry width="80" height="30" as="geometry">
            <mxRectangle width="80" height="30" as="alternateBounds" />
          </mxGeometry>
        </mxCell>
        <mxCell id="rPhc27V8RnGPCXjF8UAi-35" value="siren" style="shape=partialRectangle;connectable=0;fillColor=none;top=0;left=0;bottom=0;right=0;align=left;spacingLeft=6;overflow=hidden;fontSize=16;" vertex="1" parent="rPhc27V8RnGPCXjF8UAi-33">
          <mxGeometry x="80" width="160" height="30" as="geometry">
            <mxRectangle width="160" height="30" as="alternateBounds" />
          </mxGeometry>
        </mxCell>
        <mxCell id="rPhc27V8RnGPCXjF8UAi-36" value="" style="shape=tableRow;horizontal=0;startSize=0;swimlaneHead=0;swimlaneBody=0;fillColor=none;collapsible=0;dropTarget=0;points=[[0,0.5],[1,0.5]];portConstraint=eastwest;top=0;left=0;right=0;bottom=0;fontSize=16;" vertex="1" parent="H5C_QRacnQs3EDhZYAMX-5">
          <mxGeometry y="330" width="240" height="30" as="geometry" />
        </mxCell>
        <mxCell id="rPhc27V8RnGPCXjF8UAi-37" value="string" style="shape=partialRectangle;connectable=0;fillColor=none;top=0;left=0;bottom=0;right=0;editable=1;overflow=hidden;fontSize=16;" vertex="1" parent="rPhc27V8RnGPCXjF8UAi-36">
          <mxGeometry width="80" height="30" as="geometry">
            <mxRectangle width="80" height="30" as="alternateBounds" />
          </mxGeometry>
        </mxCell>
        <mxCell id="rPhc27V8RnGPCXjF8UAi-38" value="nic" style="shape=partialRectangle;connectable=0;fillColor=none;top=0;left=0;bottom=0;right=0;align=left;spacingLeft=6;overflow=hidden;fontSize=16;" vertex="1" parent="rPhc27V8RnGPCXjF8UAi-36">
          <mxGeometry x="80" width="160" height="30" as="geometry">
            <mxRectangle width="160" height="30" as="alternateBounds" />
          </mxGeometry>
        </mxCell>
        <mxCell id="rPhc27V8RnGPCXjF8UAi-39" value="" style="shape=tableRow;horizontal=0;startSize=0;swimlaneHead=0;swimlaneBody=0;fillColor=none;collapsible=0;dropTarget=0;points=[[0,0.5],[1,0.5]];portConstraint=eastwest;top=0;left=0;right=0;bottom=0;fontSize=16;" vertex="1" parent="H5C_QRacnQs3EDhZYAMX-5">
          <mxGeometry y="360" width="240" height="30" as="geometry" />
        </mxCell>
        <mxCell id="rPhc27V8RnGPCXjF8UAi-40" value="string" style="shape=partialRectangle;connectable=0;fillColor=none;top=0;left=0;bottom=0;right=0;editable=1;overflow=hidden;fontSize=16;" vertex="1" parent="rPhc27V8RnGPCXjF8UAi-39">
          <mxGeometry width="80" height="30" as="geometry">
            <mxRectangle width="80" height="30" as="alternateBounds" />
          </mxGeometry>
        </mxCell>
        <mxCell id="rPhc27V8RnGPCXjF8UAi-41" value="intracomvat" style="shape=partialRectangle;connectable=0;fillColor=none;top=0;left=0;bottom=0;right=0;align=left;spacingLeft=6;overflow=hidden;fontSize=16;" vertex="1" parent="rPhc27V8RnGPCXjF8UAi-39">
          <mxGeometry x="80" width="160" height="30" as="geometry">
            <mxRectangle width="160" height="30" as="alternateBounds" />
          </mxGeometry>
        </mxCell>
        <mxCell id="rPhc27V8RnGPCXjF8UAi-42" value="" style="shape=tableRow;horizontal=0;startSize=0;swimlaneHead=0;swimlaneBody=0;fillColor=none;collapsible=0;dropTarget=0;points=[[0,0.5],[1,0.5]];portConstraint=eastwest;top=0;left=0;right=0;bottom=0;fontSize=16;" vertex="1" parent="H5C_QRacnQs3EDhZYAMX-5">
          <mxGeometry y="390" width="240" height="30" as="geometry" />
        </mxCell>
        <mxCell id="rPhc27V8RnGPCXjF8UAi-43" value="string" style="shape=partialRectangle;connectable=0;fillColor=none;top=0;left=0;bottom=0;right=0;editable=1;overflow=hidden;fontSize=16;" vertex="1" parent="rPhc27V8RnGPCXjF8UAi-42">
          <mxGeometry width="80" height="30" as="geometry">
            <mxRectangle width="80" height="30" as="alternateBounds" />
          </mxGeometry>
        </mxCell>
        <mxCell id="rPhc27V8RnGPCXjF8UAi-44" value="code_ape" style="shape=partialRectangle;connectable=0;fillColor=none;top=0;left=0;bottom=0;right=0;align=left;spacingLeft=6;overflow=hidden;fontSize=16;" vertex="1" parent="rPhc27V8RnGPCXjF8UAi-42">
          <mxGeometry x="80" width="160" height="30" as="geometry">
            <mxRectangle width="160" height="30" as="alternateBounds" />
          </mxGeometry>
        </mxCell>
        <mxCell id="rPhc27V8RnGPCXjF8UAi-45" value="" style="shape=tableRow;horizontal=0;startSize=0;swimlaneHead=0;swimlaneBody=0;fillColor=none;collapsible=0;dropTarget=0;points=[[0,0.5],[1,0.5]];portConstraint=eastwest;top=0;left=0;right=0;bottom=0;fontSize=16;" vertex="1" parent="H5C_QRacnQs3EDhZYAMX-5">
          <mxGeometry y="420" width="240" height="30" as="geometry" />
        </mxCell>
        <mxCell id="rPhc27V8RnGPCXjF8UAi-46" value="string" style="shape=partialRectangle;connectable=0;fillColor=none;top=0;left=0;bottom=0;right=0;editable=1;overflow=hidden;fontSize=16;" vertex="1" parent="rPhc27V8RnGPCXjF8UAi-45">
          <mxGeometry width="80" height="30" as="geometry">
            <mxRectangle width="80" height="30" as="alternateBounds" />
          </mxGeometry>
        </mxCell>
        <mxCell id="rPhc27V8RnGPCXjF8UAi-47" value="legal_form" style="shape=partialRectangle;connectable=0;fillColor=none;top=0;left=0;bottom=0;right=0;align=left;spacingLeft=6;overflow=hidden;fontSize=16;" vertex="1" parent="rPhc27V8RnGPCXjF8UAi-45">
          <mxGeometry x="80" width="160" height="30" as="geometry">
            <mxRectangle width="160" height="30" as="alternateBounds" />
          </mxGeometry>
        </mxCell>
        <mxCell id="rPhc27V8RnGPCXjF8UAi-48" value="" style="shape=tableRow;horizontal=0;startSize=0;swimlaneHead=0;swimlaneBody=0;fillColor=none;collapsible=0;dropTarget=0;points=[[0,0.5],[1,0.5]];portConstraint=eastwest;top=0;left=0;right=0;bottom=0;fontSize=16;" vertex="1" parent="H5C_QRacnQs3EDhZYAMX-5">
          <mxGeometry y="450" width="240" height="30" as="geometry" />
        </mxCell>
        <mxCell id="rPhc27V8RnGPCXjF8UAi-49" value="int" style="shape=partialRectangle;connectable=0;fillColor=none;top=0;left=0;bottom=0;right=0;editable=1;overflow=hidden;fontSize=16;" vertex="1" parent="rPhc27V8RnGPCXjF8UAi-48">
          <mxGeometry width="80" height="30" as="geometry">
            <mxRectangle width="80" height="30" as="alternateBounds" />
          </mxGeometry>
        </mxCell>
        <mxCell id="rPhc27V8RnGPCXjF8UAi-50" value="legalFormId" style="shape=partialRectangle;connectable=0;fillColor=none;top=0;left=0;bottom=0;right=0;align=left;spacingLeft=6;overflow=hidden;fontSize=16;" vertex="1" parent="rPhc27V8RnGPCXjF8UAi-48">
          <mxGeometry x="80" width="160" height="30" as="geometry">
            <mxRectangle width="160" height="30" as="alternateBounds" />
          </mxGeometry>
        </mxCell>
        <mxCell id="rPhc27V8RnGPCXjF8UAi-100" value="" style="shape=tableRow;horizontal=0;startSize=0;swimlaneHead=0;swimlaneBody=0;fillColor=none;collapsible=0;dropTarget=0;points=[[0,0.5],[1,0.5]];portConstraint=eastwest;top=0;left=0;right=0;bottom=0;fontSize=16;" vertex="1" parent="H5C_QRacnQs3EDhZYAMX-5">
          <mxGeometry y="480" width="240" height="30" as="geometry" />
        </mxCell>
        <mxCell id="rPhc27V8RnGPCXjF8UAi-101" value="int" style="shape=partialRectangle;connectable=0;fillColor=none;top=0;left=0;bottom=0;right=0;editable=1;overflow=hidden;fontSize=16;" vertex="1" parent="rPhc27V8RnGPCXjF8UAi-100">
          <mxGeometry width="80" height="30" as="geometry">
            <mxRectangle width="80" height="30" as="alternateBounds" />
          </mxGeometry>
        </mxCell>
        <mxCell id="rPhc27V8RnGPCXjF8UAi-102" value="capital" style="shape=partialRectangle;connectable=0;fillColor=none;top=0;left=0;bottom=0;right=0;align=left;spacingLeft=6;overflow=hidden;fontSize=16;" vertex="1" parent="rPhc27V8RnGPCXjF8UAi-100">
          <mxGeometry x="80" width="160" height="30" as="geometry">
            <mxRectangle width="160" height="30" as="alternateBounds" />
          </mxGeometry>
        </mxCell>
        <mxCell id="rPhc27V8RnGPCXjF8UAi-124" value="" style="shape=tableRow;horizontal=0;startSize=0;swimlaneHead=0;swimlaneBody=0;fillColor=none;collapsible=0;dropTarget=0;points=[[0,0.5],[1,0.5]];portConstraint=eastwest;top=0;left=0;right=0;bottom=0;fontSize=16;" vertex="1" parent="H5C_QRacnQs3EDhZYAMX-5">
          <mxGeometry y="510" width="240" height="30" as="geometry" />
        </mxCell>
        <mxCell id="rPhc27V8RnGPCXjF8UAi-125" value="string" style="shape=partialRectangle;connectable=0;fillColor=none;top=0;left=0;bottom=0;right=0;editable=1;overflow=hidden;fontSize=16;" vertex="1" parent="rPhc27V8RnGPCXjF8UAi-124">
          <mxGeometry width="80" height="30" as="geometry">
            <mxRectangle width="80" height="30" as="alternateBounds" />
          </mxGeometry>
        </mxCell>
        <mxCell id="rPhc27V8RnGPCXjF8UAi-126" value="endFiscalYear" style="shape=partialRectangle;connectable=0;fillColor=none;top=0;left=0;bottom=0;right=0;align=left;spacingLeft=6;overflow=hidden;fontSize=16;" vertex="1" parent="rPhc27V8RnGPCXjF8UAi-124">
          <mxGeometry x="80" width="160" height="30" as="geometry">
            <mxRectangle width="160" height="30" as="alternateBounds" />
          </mxGeometry>
        </mxCell>
        <mxCell id="rPhc27V8RnGPCXjF8UAi-133" value="" style="shape=tableRow;horizontal=0;startSize=0;swimlaneHead=0;swimlaneBody=0;fillColor=none;collapsible=0;dropTarget=0;points=[[0,0.5],[1,0.5]];portConstraint=eastwest;top=0;left=0;right=0;bottom=0;fontSize=16;" vertex="1" parent="H5C_QRacnQs3EDhZYAMX-5">
          <mxGeometry y="540" width="240" height="30" as="geometry" />
        </mxCell>
        <mxCell id="rPhc27V8RnGPCXjF8UAi-134" value="string" style="shape=partialRectangle;connectable=0;fillColor=none;top=0;left=0;bottom=0;right=0;editable=1;overflow=hidden;fontSize=16;" vertex="1" parent="rPhc27V8RnGPCXjF8UAi-133">
          <mxGeometry width="80" height="30" as="geometry">
            <mxRectangle width="80" height="30" as="alternateBounds" />
          </mxGeometry>
        </mxCell>
        <mxCell id="rPhc27V8RnGPCXjF8UAi-135" value="alternativeId" style="shape=partialRectangle;connectable=0;fillColor=none;top=0;left=0;bottom=0;right=0;align=left;spacingLeft=6;overflow=hidden;fontSize=16;" vertex="1" parent="rPhc27V8RnGPCXjF8UAi-133">
          <mxGeometry x="80" width="160" height="30" as="geometry">
            <mxRectangle width="160" height="30" as="alternateBounds" />
          </mxGeometry>
        </mxCell>
        <mxCell id="rPhc27V8RnGPCXjF8UAi-136" value="" style="shape=tableRow;horizontal=0;startSize=0;swimlaneHead=0;swimlaneBody=0;fillColor=none;collapsible=0;dropTarget=0;points=[[0,0.5],[1,0.5]];portConstraint=eastwest;top=0;left=0;right=0;bottom=0;fontSize=16;" vertex="1" parent="H5C_QRacnQs3EDhZYAMX-5">
          <mxGeometry y="570" width="240" height="30" as="geometry" />
        </mxCell>
        <mxCell id="rPhc27V8RnGPCXjF8UAi-137" value="string" style="shape=partialRectangle;connectable=0;fillColor=none;top=0;left=0;bottom=0;right=0;editable=1;overflow=hidden;fontSize=16;" vertex="1" parent="rPhc27V8RnGPCXjF8UAi-136">
          <mxGeometry width="80" height="30" as="geometry">
            <mxRectangle width="80" height="30" as="alternateBounds" />
          </mxGeometry>
        </mxCell>
        <mxCell id="rPhc27V8RnGPCXjF8UAi-138" value="fileName" style="shape=partialRectangle;connectable=0;fillColor=none;top=0;left=0;bottom=0;right=0;align=left;spacingLeft=6;overflow=hidden;fontSize=16;" vertex="1" parent="rPhc27V8RnGPCXjF8UAi-136">
          <mxGeometry x="80" width="160" height="30" as="geometry">
            <mxRectangle width="160" height="30" as="alternateBounds" />
          </mxGeometry>
        </mxCell>
        <mxCell id="rPhc27V8RnGPCXjF8UAi-139" value="" style="shape=tableRow;horizontal=0;startSize=0;swimlaneHead=0;swimlaneBody=0;fillColor=none;collapsible=0;dropTarget=0;points=[[0,0.5],[1,0.5]];portConstraint=eastwest;top=0;left=0;right=0;bottom=0;fontSize=16;" vertex="1" parent="H5C_QRacnQs3EDhZYAMX-5">
          <mxGeometry y="600" width="240" height="30" as="geometry" />
        </mxCell>
        <mxCell id="rPhc27V8RnGPCXjF8UAi-140" value="FK" style="shape=partialRectangle;connectable=0;fillColor=none;top=0;left=0;bottom=0;right=0;editable=1;overflow=hidden;fontSize=16;" vertex="1" parent="rPhc27V8RnGPCXjF8UAi-139">
          <mxGeometry width="80" height="30" as="geometry">
            <mxRectangle width="80" height="30" as="alternateBounds" />
          </mxGeometry>
        </mxCell>
        <mxCell id="rPhc27V8RnGPCXjF8UAi-141" value="treezorUser" style="shape=partialRectangle;connectable=0;fillColor=none;top=0;left=0;bottom=0;right=0;align=left;spacingLeft=6;overflow=hidden;fontSize=16;" vertex="1" parent="rPhc27V8RnGPCXjF8UAi-139">
          <mxGeometry x="80" width="160" height="30" as="geometry">
            <mxRectangle width="160" height="30" as="alternateBounds" />
          </mxGeometry>
        </mxCell>
        <mxCell id="rPhc27V8RnGPCXjF8UAi-228" value="" style="shape=tableRow;horizontal=0;startSize=0;swimlaneHead=0;swimlaneBody=0;fillColor=none;collapsible=0;dropTarget=0;points=[[0,0.5],[1,0.5]];portConstraint=eastwest;top=0;left=0;right=0;bottom=0;fontSize=16;" vertex="1" parent="H5C_QRacnQs3EDhZYAMX-5">
          <mxGeometry y="630" width="240" height="30" as="geometry" />
        </mxCell>
        <mxCell id="rPhc27V8RnGPCXjF8UAi-229" value="string" style="shape=partialRectangle;connectable=0;fillColor=none;top=0;left=0;bottom=0;right=0;editable=1;overflow=hidden;fontSize=16;" vertex="1" parent="rPhc27V8RnGPCXjF8UAi-228">
          <mxGeometry width="80" height="30" as="geometry">
            <mxRectangle width="80" height="30" as="alternateBounds" />
          </mxGeometry>
        </mxCell>
        <mxCell id="rPhc27V8RnGPCXjF8UAi-230" value="paypald" style="shape=partialRectangle;connectable=0;fillColor=none;top=0;left=0;bottom=0;right=0;align=left;spacingLeft=6;overflow=hidden;fontSize=16;" vertex="1" parent="rPhc27V8RnGPCXjF8UAi-228">
          <mxGeometry x="80" width="160" height="30" as="geometry">
            <mxRectangle width="160" height="30" as="alternateBounds" />
          </mxGeometry>
        </mxCell>
        <mxCell id="rPhc27V8RnGPCXjF8UAi-231" value="" style="shape=tableRow;horizontal=0;startSize=0;swimlaneHead=0;swimlaneBody=0;fillColor=none;collapsible=0;dropTarget=0;points=[[0,0.5],[1,0.5]];portConstraint=eastwest;top=0;left=0;right=0;bottom=0;fontSize=16;" vertex="1" parent="H5C_QRacnQs3EDhZYAMX-5">
          <mxGeometry y="660" width="240" height="30" as="geometry" />
        </mxCell>
        <mxCell id="rPhc27V8RnGPCXjF8UAi-232" value="string" style="shape=partialRectangle;connectable=0;fillColor=none;top=0;left=0;bottom=0;right=0;editable=1;overflow=hidden;fontSize=16;" vertex="1" parent="rPhc27V8RnGPCXjF8UAi-231">
          <mxGeometry width="80" height="30" as="geometry">
            <mxRectangle width="80" height="30" as="alternateBounds" />
          </mxGeometry>
        </mxCell>
        <mxCell id="rPhc27V8RnGPCXjF8UAi-233" value="referrer" style="shape=partialRectangle;connectable=0;fillColor=none;top=0;left=0;bottom=0;right=0;align=left;spacingLeft=6;overflow=hidden;fontSize=16;" vertex="1" parent="rPhc27V8RnGPCXjF8UAi-231">
          <mxGeometry x="80" width="160" height="30" as="geometry">
            <mxRectangle width="160" height="30" as="alternateBounds" />
          </mxGeometry>
        </mxCell>
        <mxCell id="rPhc27V8RnGPCXjF8UAi-234" value="" style="shape=tableRow;horizontal=0;startSize=0;swimlaneHead=0;swimlaneBody=0;fillColor=none;collapsible=0;dropTarget=0;points=[[0,0.5],[1,0.5]];portConstraint=eastwest;top=0;left=0;right=0;bottom=0;fontSize=16;" vertex="1" parent="H5C_QRacnQs3EDhZYAMX-5">
          <mxGeometry y="690" width="240" height="30" as="geometry" />
        </mxCell>
        <mxCell id="rPhc27V8RnGPCXjF8UAi-235" value="string" style="shape=partialRectangle;connectable=0;fillColor=none;top=0;left=0;bottom=0;right=0;editable=1;overflow=hidden;fontSize=16;" vertex="1" parent="rPhc27V8RnGPCXjF8UAi-234">
          <mxGeometry width="80" height="30" as="geometry">
            <mxRectangle width="80" height="30" as="alternateBounds" />
          </mxGeometry>
        </mxCell>
        <mxCell id="rPhc27V8RnGPCXjF8UAi-236" value="phoneNumber" style="shape=partialRectangle;connectable=0;fillColor=none;top=0;left=0;bottom=0;right=0;align=left;spacingLeft=6;overflow=hidden;fontSize=16;" vertex="1" parent="rPhc27V8RnGPCXjF8UAi-234">
          <mxGeometry x="80" width="160" height="30" as="geometry">
            <mxRectangle width="160" height="30" as="alternateBounds" />
          </mxGeometry>
        </mxCell>
        <mxCell id="rPhc27V8RnGPCXjF8UAi-127" value="" style="shape=tableRow;horizontal=0;startSize=0;swimlaneHead=0;swimlaneBody=0;fillColor=none;collapsible=0;dropTarget=0;points=[[0,0.5],[1,0.5]];portConstraint=eastwest;top=0;left=0;right=0;bottom=0;fontSize=16;" vertex="1" parent="H5C_QRacnQs3EDhZYAMX-5">
          <mxGeometry y="720" width="240" height="30" as="geometry" />
        </mxCell>
        <mxCell id="rPhc27V8RnGPCXjF8UAi-128" value="datetime" style="shape=partialRectangle;connectable=0;fillColor=none;top=0;left=0;bottom=0;right=0;editable=1;overflow=hidden;fontSize=16;" vertex="1" parent="rPhc27V8RnGPCXjF8UAi-127">
          <mxGeometry width="80" height="30" as="geometry">
            <mxRectangle width="80" height="30" as="alternateBounds" />
          </mxGeometry>
        </mxCell>
        <mxCell id="rPhc27V8RnGPCXjF8UAi-129" value="created" style="shape=partialRectangle;connectable=0;fillColor=none;top=0;left=0;bottom=0;right=0;align=left;spacingLeft=6;overflow=hidden;fontSize=16;" vertex="1" parent="rPhc27V8RnGPCXjF8UAi-127">
          <mxGeometry x="80" width="160" height="30" as="geometry">
            <mxRectangle width="160" height="30" as="alternateBounds" />
          </mxGeometry>
        </mxCell>
        <mxCell id="rPhc27V8RnGPCXjF8UAi-130" value="" style="shape=tableRow;horizontal=0;startSize=0;swimlaneHead=0;swimlaneBody=0;fillColor=none;collapsible=0;dropTarget=0;points=[[0,0.5],[1,0.5]];portConstraint=eastwest;top=0;left=0;right=0;bottom=0;fontSize=16;" vertex="1" parent="H5C_QRacnQs3EDhZYAMX-5">
          <mxGeometry y="750" width="240" height="30" as="geometry" />
        </mxCell>
        <mxCell id="rPhc27V8RnGPCXjF8UAi-131" value="datetime" style="shape=partialRectangle;connectable=0;fillColor=none;top=0;left=0;bottom=0;right=0;editable=1;overflow=hidden;fontSize=16;" vertex="1" parent="rPhc27V8RnGPCXjF8UAi-130">
          <mxGeometry width="80" height="30" as="geometry">
            <mxRectangle width="80" height="30" as="alternateBounds" />
          </mxGeometry>
        </mxCell>
        <mxCell id="rPhc27V8RnGPCXjF8UAi-132" value="updated" style="shape=partialRectangle;connectable=0;fillColor=none;top=0;left=0;bottom=0;right=0;align=left;spacingLeft=6;overflow=hidden;fontSize=16;" vertex="1" parent="rPhc27V8RnGPCXjF8UAi-130">
          <mxGeometry x="80" width="160" height="30" as="geometry">
            <mxRectangle width="160" height="30" as="alternateBounds" />
          </mxGeometry>
        </mxCell>
        <mxCell id="rPhc27V8RnGPCXjF8UAi-1" value="CompanySetting" style="shape=table;startSize=30;container=1;collapsible=1;childLayout=tableLayout;fixedRows=1;rowLines=0;fontStyle=1;align=center;resizeLast=1;html=1;whiteSpace=wrap;fontSize=16;" vertex="1" parent="1">
          <mxGeometry x="730" y="-140" width="290" height="390" as="geometry" />
        </mxCell>
        <mxCell id="rPhc27V8RnGPCXjF8UAi-2" value="" style="shape=tableRow;horizontal=0;startSize=0;swimlaneHead=0;swimlaneBody=0;fillColor=none;collapsible=0;dropTarget=0;points=[[0,0.5],[1,0.5]];portConstraint=eastwest;top=0;left=0;right=0;bottom=0;html=1;fontSize=16;" vertex="1" parent="rPhc27V8RnGPCXjF8UAi-1">
          <mxGeometry y="30" width="290" height="30" as="geometry" />
        </mxCell>
        <mxCell id="rPhc27V8RnGPCXjF8UAi-3" value="PK, uuid" style="shape=partialRectangle;connectable=0;fillColor=none;top=0;left=0;bottom=0;right=0;fontStyle=1;overflow=hidden;html=1;whiteSpace=wrap;fontSize=16;" vertex="1" parent="rPhc27V8RnGPCXjF8UAi-2">
          <mxGeometry width="100" height="30" as="geometry">
            <mxRectangle width="100" height="30" as="alternateBounds" />
          </mxGeometry>
        </mxCell>
        <mxCell id="rPhc27V8RnGPCXjF8UAi-4" value="Id" style="shape=partialRectangle;connectable=0;fillColor=none;top=0;left=0;bottom=0;right=0;align=left;spacingLeft=6;fontStyle=5;overflow=hidden;html=1;whiteSpace=wrap;fontSize=16;" vertex="1" parent="rPhc27V8RnGPCXjF8UAi-2">
          <mxGeometry x="100" width="190" height="30" as="geometry">
            <mxRectangle width="190" height="30" as="alternateBounds" />
          </mxGeometry>
        </mxCell>
        <mxCell id="rPhc27V8RnGPCXjF8UAi-5" value="" style="shape=tableRow;horizontal=0;startSize=0;swimlaneHead=0;swimlaneBody=0;fillColor=none;collapsible=0;dropTarget=0;points=[[0,0.5],[1,0.5]];portConstraint=eastwest;top=0;left=0;right=0;bottom=0;html=1;fontSize=16;" vertex="1" parent="rPhc27V8RnGPCXjF8UAi-1">
          <mxGeometry y="60" width="290" height="30" as="geometry" />
        </mxCell>
        <mxCell id="rPhc27V8RnGPCXjF8UAi-6" value="FK" style="shape=partialRectangle;connectable=0;fillColor=none;top=0;left=0;bottom=0;right=0;editable=1;overflow=hidden;html=1;whiteSpace=wrap;fontSize=16;" vertex="1" parent="rPhc27V8RnGPCXjF8UAi-5">
          <mxGeometry width="100" height="30" as="geometry">
            <mxRectangle width="100" height="30" as="alternateBounds" />
          </mxGeometry>
        </mxCell>
        <mxCell id="rPhc27V8RnGPCXjF8UAi-7" value="companyId" style="shape=partialRectangle;connectable=0;fillColor=none;top=0;left=0;bottom=0;right=0;align=left;spacingLeft=6;overflow=hidden;html=1;whiteSpace=wrap;fontSize=16;" vertex="1" parent="rPhc27V8RnGPCXjF8UAi-5">
          <mxGeometry x="100" width="190" height="30" as="geometry">
            <mxRectangle width="190" height="30" as="alternateBounds" />
          </mxGeometry>
        </mxCell>
        <mxCell id="rPhc27V8RnGPCXjF8UAi-237" value="" style="shape=tableRow;horizontal=0;startSize=0;swimlaneHead=0;swimlaneBody=0;fillColor=none;collapsible=0;dropTarget=0;points=[[0,0.5],[1,0.5]];portConstraint=eastwest;top=0;left=0;right=0;bottom=0;fontSize=16;" vertex="1" parent="rPhc27V8RnGPCXjF8UAi-1">
          <mxGeometry y="90" width="290" height="30" as="geometry" />
        </mxCell>
        <mxCell id="rPhc27V8RnGPCXjF8UAi-238" value="bool" style="shape=partialRectangle;connectable=0;fillColor=none;top=0;left=0;bottom=0;right=0;fontStyle=0;overflow=hidden;whiteSpace=wrap;html=1;fontSize=16;" vertex="1" parent="rPhc27V8RnGPCXjF8UAi-237">
          <mxGeometry width="100" height="30" as="geometry">
            <mxRectangle width="100" height="30" as="alternateBounds" />
          </mxGeometry>
        </mxCell>
        <mxCell id="rPhc27V8RnGPCXjF8UAi-239" value="invoiceQuotation" style="shape=partialRectangle;connectable=0;fillColor=none;top=0;left=0;bottom=0;right=0;align=left;spacingLeft=6;fontStyle=0;overflow=hidden;whiteSpace=wrap;html=1;fontSize=16;" vertex="1" parent="rPhc27V8RnGPCXjF8UAi-237">
          <mxGeometry x="100" width="190" height="30" as="geometry">
            <mxRectangle width="190" height="30" as="alternateBounds" />
          </mxGeometry>
        </mxCell>
        <mxCell id="rPhc27V8RnGPCXjF8UAi-240" value="" style="shape=tableRow;horizontal=0;startSize=0;swimlaneHead=0;swimlaneBody=0;fillColor=none;collapsible=0;dropTarget=0;points=[[0,0.5],[1,0.5]];portConstraint=eastwest;top=0;left=0;right=0;bottom=0;fontSize=16;" vertex="1" parent="rPhc27V8RnGPCXjF8UAi-1">
          <mxGeometry y="120" width="290" height="30" as="geometry" />
        </mxCell>
        <mxCell id="rPhc27V8RnGPCXjF8UAi-241" value="bool" style="shape=partialRectangle;connectable=0;fillColor=none;top=0;left=0;bottom=0;right=0;fontStyle=0;overflow=hidden;whiteSpace=wrap;html=1;fontSize=16;" vertex="1" parent="rPhc27V8RnGPCXjF8UAi-240">
          <mxGeometry width="100" height="30" as="geometry">
            <mxRectangle width="100" height="30" as="alternateBounds" />
          </mxGeometry>
        </mxCell>
        <mxCell id="rPhc27V8RnGPCXjF8UAi-242" value="invoiceOrderForm" style="shape=partialRectangle;connectable=0;fillColor=none;top=0;left=0;bottom=0;right=0;align=left;spacingLeft=6;fontStyle=0;overflow=hidden;whiteSpace=wrap;html=1;fontSize=16;" vertex="1" parent="rPhc27V8RnGPCXjF8UAi-240">
          <mxGeometry x="100" width="190" height="30" as="geometry">
            <mxRectangle width="190" height="30" as="alternateBounds" />
          </mxGeometry>
        </mxCell>
        <mxCell id="rPhc27V8RnGPCXjF8UAi-243" value="" style="shape=tableRow;horizontal=0;startSize=0;swimlaneHead=0;swimlaneBody=0;fillColor=none;collapsible=0;dropTarget=0;points=[[0,0.5],[1,0.5]];portConstraint=eastwest;top=0;left=0;right=0;bottom=0;fontSize=16;" vertex="1" parent="rPhc27V8RnGPCXjF8UAi-1">
          <mxGeometry y="150" width="290" height="30" as="geometry" />
        </mxCell>
        <mxCell id="rPhc27V8RnGPCXjF8UAi-244" value="bool" style="shape=partialRectangle;connectable=0;fillColor=none;top=0;left=0;bottom=0;right=0;fontStyle=0;overflow=hidden;whiteSpace=wrap;html=1;fontSize=16;" vertex="1" parent="rPhc27V8RnGPCXjF8UAi-243">
          <mxGeometry width="100" height="30" as="geometry">
            <mxRectangle width="100" height="30" as="alternateBounds" />
          </mxGeometry>
        </mxCell>
        <mxCell id="rPhc27V8RnGPCXjF8UAi-245" value="invoiceDeliveryForm" style="shape=partialRectangle;connectable=0;fillColor=none;top=0;left=0;bottom=0;right=0;align=left;spacingLeft=6;fontStyle=0;overflow=hidden;whiteSpace=wrap;html=1;fontSize=16;" vertex="1" parent="rPhc27V8RnGPCXjF8UAi-243">
          <mxGeometry x="100" width="190" height="30" as="geometry">
            <mxRectangle width="190" height="30" as="alternateBounds" />
          </mxGeometry>
        </mxCell>
        <mxCell id="rPhc27V8RnGPCXjF8UAi-246" value="" style="shape=tableRow;horizontal=0;startSize=0;swimlaneHead=0;swimlaneBody=0;fillColor=none;collapsible=0;dropTarget=0;points=[[0,0.5],[1,0.5]];portConstraint=eastwest;top=0;left=0;right=0;bottom=0;fontSize=16;" vertex="1" parent="rPhc27V8RnGPCXjF8UAi-1">
          <mxGeometry y="180" width="290" height="30" as="geometry" />
        </mxCell>
        <mxCell id="rPhc27V8RnGPCXjF8UAi-247" value="bool" style="shape=partialRectangle;connectable=0;fillColor=none;top=0;left=0;bottom=0;right=0;fontStyle=0;overflow=hidden;whiteSpace=wrap;html=1;fontSize=16;" vertex="1" parent="rPhc27V8RnGPCXjF8UAi-246">
          <mxGeometry width="100" height="30" as="geometry">
            <mxRectangle width="100" height="30" as="alternateBounds" />
          </mxGeometry>
        </mxCell>
        <mxCell id="rPhc27V8RnGPCXjF8UAi-248" value="taxtRegCga" style="shape=partialRectangle;connectable=0;fillColor=none;top=0;left=0;bottom=0;right=0;align=left;spacingLeft=6;fontStyle=0;overflow=hidden;whiteSpace=wrap;html=1;fontSize=16;" vertex="1" parent="rPhc27V8RnGPCXjF8UAi-246">
          <mxGeometry x="100" width="190" height="30" as="geometry">
            <mxRectangle width="190" height="30" as="alternateBounds" />
          </mxGeometry>
        </mxCell>
        <mxCell id="rPhc27V8RnGPCXjF8UAi-249" value="" style="shape=tableRow;horizontal=0;startSize=0;swimlaneHead=0;swimlaneBody=0;fillColor=none;collapsible=0;dropTarget=0;points=[[0,0.5],[1,0.5]];portConstraint=eastwest;top=0;left=0;right=0;bottom=0;fontSize=16;" vertex="1" parent="rPhc27V8RnGPCXjF8UAi-1">
          <mxGeometry y="210" width="290" height="30" as="geometry" />
        </mxCell>
        <mxCell id="rPhc27V8RnGPCXjF8UAi-250" value="bool" style="shape=partialRectangle;connectable=0;fillColor=none;top=0;left=0;bottom=0;right=0;fontStyle=0;overflow=hidden;whiteSpace=wrap;html=1;fontSize=16;" vertex="1" parent="rPhc27V8RnGPCXjF8UAi-249">
          <mxGeometry width="100" height="30" as="geometry">
            <mxRectangle width="100" height="30" as="alternateBounds" />
          </mxGeometry>
        </mxCell>
        <mxCell id="rPhc27V8RnGPCXjF8UAi-251" value="taxtRegTva" style="shape=partialRectangle;connectable=0;fillColor=none;top=0;left=0;bottom=0;right=0;align=left;spacingLeft=6;fontStyle=0;overflow=hidden;whiteSpace=wrap;html=1;fontSize=16;" vertex="1" parent="rPhc27V8RnGPCXjF8UAi-249">
          <mxGeometry x="100" width="190" height="30" as="geometry">
            <mxRectangle width="190" height="30" as="alternateBounds" />
          </mxGeometry>
        </mxCell>
        <mxCell id="rPhc27V8RnGPCXjF8UAi-252" value="" style="shape=tableRow;horizontal=0;startSize=0;swimlaneHead=0;swimlaneBody=0;fillColor=none;collapsible=0;dropTarget=0;points=[[0,0.5],[1,0.5]];portConstraint=eastwest;top=0;left=0;right=0;bottom=0;fontSize=16;" vertex="1" parent="rPhc27V8RnGPCXjF8UAi-1">
          <mxGeometry y="240" width="290" height="30" as="geometry" />
        </mxCell>
        <mxCell id="rPhc27V8RnGPCXjF8UAi-253" value="bool" style="shape=partialRectangle;connectable=0;fillColor=none;top=0;left=0;bottom=0;right=0;fontStyle=0;overflow=hidden;whiteSpace=wrap;html=1;fontSize=16;" vertex="1" parent="rPhc27V8RnGPCXjF8UAi-252">
          <mxGeometry width="100" height="30" as="geometry">
            <mxRectangle width="100" height="30" as="alternateBounds" />
          </mxGeometry>
        </mxCell>
        <mxCell id="rPhc27V8RnGPCXjF8UAi-254" value="taxtRegPresentation" style="shape=partialRectangle;connectable=0;fillColor=none;top=0;left=0;bottom=0;right=0;align=left;spacingLeft=6;fontStyle=0;overflow=hidden;whiteSpace=wrap;html=1;fontSize=16;" vertex="1" parent="rPhc27V8RnGPCXjF8UAi-252">
          <mxGeometry x="100" width="190" height="30" as="geometry">
            <mxRectangle width="190" height="30" as="alternateBounds" />
          </mxGeometry>
        </mxCell>
        <mxCell id="rPhc27V8RnGPCXjF8UAi-255" value="" style="shape=tableRow;horizontal=0;startSize=0;swimlaneHead=0;swimlaneBody=0;fillColor=none;collapsible=0;dropTarget=0;points=[[0,0.5],[1,0.5]];portConstraint=eastwest;top=0;left=0;right=0;bottom=0;fontSize=16;" vertex="1" parent="rPhc27V8RnGPCXjF8UAi-1">
          <mxGeometry y="270" width="290" height="30" as="geometry" />
        </mxCell>
        <mxCell id="rPhc27V8RnGPCXjF8UAi-256" value="bool" style="shape=partialRectangle;connectable=0;fillColor=none;top=0;left=0;bottom=0;right=0;fontStyle=0;overflow=hidden;whiteSpace=wrap;html=1;fontSize=16;" vertex="1" parent="rPhc27V8RnGPCXjF8UAi-255">
          <mxGeometry width="100" height="30" as="geometry">
            <mxRectangle width="100" height="30" as="alternateBounds" />
          </mxGeometry>
        </mxCell>
        <mxCell id="rPhc27V8RnGPCXjF8UAi-257" value="taxtRegVent" style="shape=partialRectangle;connectable=0;fillColor=none;top=0;left=0;bottom=0;right=0;align=left;spacingLeft=6;fontStyle=0;overflow=hidden;whiteSpace=wrap;html=1;fontSize=16;" vertex="1" parent="rPhc27V8RnGPCXjF8UAi-255">
          <mxGeometry x="100" width="190" height="30" as="geometry">
            <mxRectangle width="190" height="30" as="alternateBounds" />
          </mxGeometry>
        </mxCell>
        <mxCell id="rPhc27V8RnGPCXjF8UAi-258" value="" style="shape=tableRow;horizontal=0;startSize=0;swimlaneHead=0;swimlaneBody=0;fillColor=none;collapsible=0;dropTarget=0;points=[[0,0.5],[1,0.5]];portConstraint=eastwest;top=0;left=0;right=0;bottom=0;fontSize=16;" vertex="1" parent="rPhc27V8RnGPCXjF8UAi-1">
          <mxGeometry y="300" width="290" height="30" as="geometry" />
        </mxCell>
        <mxCell id="rPhc27V8RnGPCXjF8UAi-259" value="string" style="shape=partialRectangle;connectable=0;fillColor=none;top=0;left=0;bottom=0;right=0;fontStyle=0;overflow=hidden;whiteSpace=wrap;html=1;fontSize=16;" vertex="1" parent="rPhc27V8RnGPCXjF8UAi-258">
          <mxGeometry width="100" height="30" as="geometry">
            <mxRectangle width="100" height="30" as="alternateBounds" />
          </mxGeometry>
        </mxCell>
        <mxCell id="rPhc27V8RnGPCXjF8UAi-260" value="taxtRegBookKeeping" style="shape=partialRectangle;connectable=0;fillColor=none;top=0;left=0;bottom=0;right=0;align=left;spacingLeft=6;fontStyle=0;overflow=hidden;whiteSpace=wrap;html=1;fontSize=16;" vertex="1" parent="rPhc27V8RnGPCXjF8UAi-258">
          <mxGeometry x="100" width="190" height="30" as="geometry">
            <mxRectangle width="190" height="30" as="alternateBounds" />
          </mxGeometry>
        </mxCell>
        <mxCell id="rPhc27V8RnGPCXjF8UAi-261" value="" style="shape=tableRow;horizontal=0;startSize=0;swimlaneHead=0;swimlaneBody=0;fillColor=none;collapsible=0;dropTarget=0;points=[[0,0.5],[1,0.5]];portConstraint=eastwest;top=0;left=0;right=0;bottom=0;fontSize=16;" vertex="1" parent="rPhc27V8RnGPCXjF8UAi-1">
          <mxGeometry y="330" width="290" height="30" as="geometry" />
        </mxCell>
        <mxCell id="rPhc27V8RnGPCXjF8UAi-262" value="bool" style="shape=partialRectangle;connectable=0;fillColor=none;top=0;left=0;bottom=0;right=0;fontStyle=0;overflow=hidden;whiteSpace=wrap;html=1;fontSize=16;" vertex="1" parent="rPhc27V8RnGPCXjF8UAi-261">
          <mxGeometry width="100" height="30" as="geometry">
            <mxRectangle width="100" height="30" as="alternateBounds" />
          </mxGeometry>
        </mxCell>
        <mxCell id="rPhc27V8RnGPCXjF8UAi-263" value="taxtRegReturnOnDebit" style="shape=partialRectangle;connectable=0;fillColor=none;top=0;left=0;bottom=0;right=0;align=left;spacingLeft=6;fontStyle=0;overflow=hidden;whiteSpace=wrap;html=1;fontSize=16;" vertex="1" parent="rPhc27V8RnGPCXjF8UAi-261">
          <mxGeometry x="100" width="190" height="30" as="geometry">
            <mxRectangle width="190" height="30" as="alternateBounds" />
          </mxGeometry>
        </mxCell>
        <mxCell id="rPhc27V8RnGPCXjF8UAi-264" value="" style="shape=tableRow;horizontal=0;startSize=0;swimlaneHead=0;swimlaneBody=0;fillColor=none;collapsible=0;dropTarget=0;points=[[0,0.5],[1,0.5]];portConstraint=eastwest;top=0;left=0;right=0;bottom=0;fontSize=16;" vertex="1" parent="rPhc27V8RnGPCXjF8UAi-1">
          <mxGeometry y="360" width="290" height="30" as="geometry" />
        </mxCell>
        <mxCell id="rPhc27V8RnGPCXjF8UAi-265" value="string" style="shape=partialRectangle;connectable=0;fillColor=none;top=0;left=0;bottom=0;right=0;fontStyle=0;overflow=hidden;whiteSpace=wrap;html=1;fontSize=16;" vertex="1" parent="rPhc27V8RnGPCXjF8UAi-264">
          <mxGeometry width="100" height="30" as="geometry">
            <mxRectangle width="100" height="30" as="alternateBounds" />
          </mxGeometry>
        </mxCell>
        <mxCell id="rPhc27V8RnGPCXjF8UAi-266" value="taxtRegCompanyType" style="shape=partialRectangle;connectable=0;fillColor=none;top=0;left=0;bottom=0;right=0;align=left;spacingLeft=6;fontStyle=0;overflow=hidden;whiteSpace=wrap;html=1;fontSize=16;" vertex="1" parent="rPhc27V8RnGPCXjF8UAi-264">
          <mxGeometry x="100" width="190" height="30" as="geometry">
            <mxRectangle width="190" height="30" as="alternateBounds" />
          </mxGeometry>
        </mxCell>
        <mxCell id="rPhc27V8RnGPCXjF8UAi-8" value="" style="edgeStyle=entityRelationEdgeStyle;fontSize=12;html=1;endArrow=ERmandOne;startArrow=ERmandOne;rounded=0;startSize=8;endSize=8;entryX=0;entryY=0.5;entryDx=0;entryDy=0;exitX=1;exitY=0.5;exitDx=0;exitDy=0;" edge="1" parent="1" source="H5C_QRacnQs3EDhZYAMX-12" target="rPhc27V8RnGPCXjF8UAi-2">
          <mxGeometry width="100" height="100" relative="1" as="geometry">
            <mxPoint x="560" y="120" as="sourcePoint" />
            <mxPoint x="660" y="20" as="targetPoint" />
          </mxGeometry>
        </mxCell>
        <mxCell id="rPhc27V8RnGPCXjF8UAi-114" value="BankDetail" style="shape=table;startSize=30;container=1;collapsible=1;childLayout=tableLayout;fixedRows=1;rowLines=0;fontStyle=1;align=center;resizeLast=1;html=1;whiteSpace=wrap;fontSize=16;" vertex="1" parent="1">
          <mxGeometry x="730" y="350" width="290" height="270" as="geometry" />
        </mxCell>
        <mxCell id="rPhc27V8RnGPCXjF8UAi-115" value="" style="shape=tableRow;horizontal=0;startSize=0;swimlaneHead=0;swimlaneBody=0;fillColor=none;collapsible=0;dropTarget=0;points=[[0,0.5],[1,0.5]];portConstraint=eastwest;top=0;left=0;right=0;bottom=0;html=1;fontSize=16;" vertex="1" parent="rPhc27V8RnGPCXjF8UAi-114">
          <mxGeometry y="30" width="290" height="30" as="geometry" />
        </mxCell>
        <mxCell id="rPhc27V8RnGPCXjF8UAi-116" value="PK, uuid" style="shape=partialRectangle;connectable=0;fillColor=none;top=0;left=0;bottom=0;right=0;fontStyle=1;overflow=hidden;html=1;whiteSpace=wrap;fontSize=16;" vertex="1" parent="rPhc27V8RnGPCXjF8UAi-115">
          <mxGeometry width="100" height="30" as="geometry">
            <mxRectangle width="100" height="30" as="alternateBounds" />
          </mxGeometry>
        </mxCell>
        <mxCell id="rPhc27V8RnGPCXjF8UAi-117" value="Id" style="shape=partialRectangle;connectable=0;fillColor=none;top=0;left=0;bottom=0;right=0;align=left;spacingLeft=6;fontStyle=5;overflow=hidden;html=1;whiteSpace=wrap;fontSize=16;" vertex="1" parent="rPhc27V8RnGPCXjF8UAi-115">
          <mxGeometry x="100" width="190" height="30" as="geometry">
            <mxRectangle width="190" height="30" as="alternateBounds" />
          </mxGeometry>
        </mxCell>
        <mxCell id="rPhc27V8RnGPCXjF8UAi-118" value="" style="shape=tableRow;horizontal=0;startSize=0;swimlaneHead=0;swimlaneBody=0;fillColor=none;collapsible=0;dropTarget=0;points=[[0,0.5],[1,0.5]];portConstraint=eastwest;top=0;left=0;right=0;bottom=0;html=1;fontSize=16;" vertex="1" parent="rPhc27V8RnGPCXjF8UAi-114">
          <mxGeometry y="60" width="290" height="30" as="geometry" />
        </mxCell>
        <mxCell id="rPhc27V8RnGPCXjF8UAi-119" value="FK" style="shape=partialRectangle;connectable=0;fillColor=none;top=0;left=0;bottom=0;right=0;editable=1;overflow=hidden;html=1;whiteSpace=wrap;fontSize=16;" vertex="1" parent="rPhc27V8RnGPCXjF8UAi-118">
          <mxGeometry width="100" height="30" as="geometry">
            <mxRectangle width="100" height="30" as="alternateBounds" />
          </mxGeometry>
        </mxCell>
        <mxCell id="rPhc27V8RnGPCXjF8UAi-120" value="companyId" style="shape=partialRectangle;connectable=0;fillColor=none;top=0;left=0;bottom=0;right=0;align=left;spacingLeft=6;overflow=hidden;html=1;whiteSpace=wrap;fontSize=16;" vertex="1" parent="rPhc27V8RnGPCXjF8UAi-118">
          <mxGeometry x="100" width="190" height="30" as="geometry">
            <mxRectangle width="190" height="30" as="alternateBounds" />
          </mxGeometry>
        </mxCell>
        <mxCell id="rPhc27V8RnGPCXjF8UAi-267" value="" style="shape=tableRow;horizontal=0;startSize=0;swimlaneHead=0;swimlaneBody=0;fillColor=none;collapsible=0;dropTarget=0;points=[[0,0.5],[1,0.5]];portConstraint=eastwest;top=0;left=0;right=0;bottom=0;html=1;fontSize=16;" vertex="1" parent="rPhc27V8RnGPCXjF8UAi-114">
          <mxGeometry y="90" width="290" height="30" as="geometry" />
        </mxCell>
        <mxCell id="rPhc27V8RnGPCXjF8UAi-268" value="string" style="shape=partialRectangle;connectable=0;fillColor=none;top=0;left=0;bottom=0;right=0;editable=1;overflow=hidden;html=1;whiteSpace=wrap;fontSize=16;" vertex="1" parent="rPhc27V8RnGPCXjF8UAi-267">
          <mxGeometry width="100" height="30" as="geometry">
            <mxRectangle width="100" height="30" as="alternateBounds" />
          </mxGeometry>
        </mxCell>
        <mxCell id="rPhc27V8RnGPCXjF8UAi-269" value="bankName" style="shape=partialRectangle;connectable=0;fillColor=none;top=0;left=0;bottom=0;right=0;align=left;spacingLeft=6;overflow=hidden;html=1;whiteSpace=wrap;fontSize=16;" vertex="1" parent="rPhc27V8RnGPCXjF8UAi-267">
          <mxGeometry x="100" width="190" height="30" as="geometry">
            <mxRectangle width="190" height="30" as="alternateBounds" />
          </mxGeometry>
        </mxCell>
        <mxCell id="rPhc27V8RnGPCXjF8UAi-270" value="" style="shape=tableRow;horizontal=0;startSize=0;swimlaneHead=0;swimlaneBody=0;fillColor=none;collapsible=0;dropTarget=0;points=[[0,0.5],[1,0.5]];portConstraint=eastwest;top=0;left=0;right=0;bottom=0;html=1;fontSize=16;" vertex="1" parent="rPhc27V8RnGPCXjF8UAi-114">
          <mxGeometry y="120" width="290" height="30" as="geometry" />
        </mxCell>
        <mxCell id="rPhc27V8RnGPCXjF8UAi-271" value="string" style="shape=partialRectangle;connectable=0;fillColor=none;top=0;left=0;bottom=0;right=0;editable=1;overflow=hidden;html=1;whiteSpace=wrap;fontSize=16;" vertex="1" parent="rPhc27V8RnGPCXjF8UAi-270">
          <mxGeometry width="100" height="30" as="geometry">
            <mxRectangle width="100" height="30" as="alternateBounds" />
          </mxGeometry>
        </mxCell>
        <mxCell id="rPhc27V8RnGPCXjF8UAi-272" value="iban" style="shape=partialRectangle;connectable=0;fillColor=none;top=0;left=0;bottom=0;right=0;align=left;spacingLeft=6;overflow=hidden;html=1;whiteSpace=wrap;fontSize=16;" vertex="1" parent="rPhc27V8RnGPCXjF8UAi-270">
          <mxGeometry x="100" width="190" height="30" as="geometry">
            <mxRectangle width="190" height="30" as="alternateBounds" />
          </mxGeometry>
        </mxCell>
        <mxCell id="rPhc27V8RnGPCXjF8UAi-273" value="" style="shape=tableRow;horizontal=0;startSize=0;swimlaneHead=0;swimlaneBody=0;fillColor=none;collapsible=0;dropTarget=0;points=[[0,0.5],[1,0.5]];portConstraint=eastwest;top=0;left=0;right=0;bottom=0;html=1;fontSize=16;" vertex="1" parent="rPhc27V8RnGPCXjF8UAi-114">
          <mxGeometry y="150" width="290" height="30" as="geometry" />
        </mxCell>
        <mxCell id="rPhc27V8RnGPCXjF8UAi-274" value="string" style="shape=partialRectangle;connectable=0;fillColor=none;top=0;left=0;bottom=0;right=0;editable=1;overflow=hidden;html=1;whiteSpace=wrap;fontSize=16;" vertex="1" parent="rPhc27V8RnGPCXjF8UAi-273">
          <mxGeometry width="100" height="30" as="geometry">
            <mxRectangle width="100" height="30" as="alternateBounds" />
          </mxGeometry>
        </mxCell>
        <mxCell id="rPhc27V8RnGPCXjF8UAi-275" value="bic" style="shape=partialRectangle;connectable=0;fillColor=none;top=0;left=0;bottom=0;right=0;align=left;spacingLeft=6;overflow=hidden;html=1;whiteSpace=wrap;fontSize=16;" vertex="1" parent="rPhc27V8RnGPCXjF8UAi-273">
          <mxGeometry x="100" width="190" height="30" as="geometry">
            <mxRectangle width="190" height="30" as="alternateBounds" />
          </mxGeometry>
        </mxCell>
        <mxCell id="rPhc27V8RnGPCXjF8UAi-276" value="" style="shape=tableRow;horizontal=0;startSize=0;swimlaneHead=0;swimlaneBody=0;fillColor=none;collapsible=0;dropTarget=0;points=[[0,0.5],[1,0.5]];portConstraint=eastwest;top=0;left=0;right=0;bottom=0;html=1;fontSize=16;" vertex="1" parent="rPhc27V8RnGPCXjF8UAi-114">
          <mxGeometry y="180" width="290" height="30" as="geometry" />
        </mxCell>
        <mxCell id="rPhc27V8RnGPCXjF8UAi-277" value="string" style="shape=partialRectangle;connectable=0;fillColor=none;top=0;left=0;bottom=0;right=0;editable=1;overflow=hidden;html=1;whiteSpace=wrap;fontSize=16;" vertex="1" parent="rPhc27V8RnGPCXjF8UAi-276">
          <mxGeometry width="100" height="30" as="geometry">
            <mxRectangle width="100" height="30" as="alternateBounds" />
          </mxGeometry>
        </mxCell>
        <mxCell id="rPhc27V8RnGPCXjF8UAi-278" value="journalCode" style="shape=partialRectangle;connectable=0;fillColor=none;top=0;left=0;bottom=0;right=0;align=left;spacingLeft=6;overflow=hidden;html=1;whiteSpace=wrap;fontSize=16;" vertex="1" parent="rPhc27V8RnGPCXjF8UAi-276">
          <mxGeometry x="100" width="190" height="30" as="geometry">
            <mxRectangle width="190" height="30" as="alternateBounds" />
          </mxGeometry>
        </mxCell>
        <mxCell id="rPhc27V8RnGPCXjF8UAi-279" value="" style="shape=tableRow;horizontal=0;startSize=0;swimlaneHead=0;swimlaneBody=0;fillColor=none;collapsible=0;dropTarget=0;points=[[0,0.5],[1,0.5]];portConstraint=eastwest;top=0;left=0;right=0;bottom=0;html=1;fontSize=16;" vertex="1" parent="rPhc27V8RnGPCXjF8UAi-114">
          <mxGeometry y="210" width="290" height="30" as="geometry" />
        </mxCell>
        <mxCell id="rPhc27V8RnGPCXjF8UAi-280" value="string" style="shape=partialRectangle;connectable=0;fillColor=none;top=0;left=0;bottom=0;right=0;editable=1;overflow=hidden;html=1;whiteSpace=wrap;fontSize=16;" vertex="1" parent="rPhc27V8RnGPCXjF8UAi-279">
          <mxGeometry width="100" height="30" as="geometry">
            <mxRectangle width="100" height="30" as="alternateBounds" />
          </mxGeometry>
        </mxCell>
        <mxCell id="rPhc27V8RnGPCXjF8UAi-281" value="account" style="shape=partialRectangle;connectable=0;fillColor=none;top=0;left=0;bottom=0;right=0;align=left;spacingLeft=6;overflow=hidden;html=1;whiteSpace=wrap;fontSize=16;" vertex="1" parent="rPhc27V8RnGPCXjF8UAi-279">
          <mxGeometry x="100" width="190" height="30" as="geometry">
            <mxRectangle width="190" height="30" as="alternateBounds" />
          </mxGeometry>
        </mxCell>
        <mxCell id="rPhc27V8RnGPCXjF8UAi-282" value="" style="shape=tableRow;horizontal=0;startSize=0;swimlaneHead=0;swimlaneBody=0;fillColor=none;collapsible=0;dropTarget=0;points=[[0,0.5],[1,0.5]];portConstraint=eastwest;top=0;left=0;right=0;bottom=0;html=1;fontSize=16;" vertex="1" parent="rPhc27V8RnGPCXjF8UAi-114">
          <mxGeometry y="240" width="290" height="30" as="geometry" />
        </mxCell>
        <mxCell id="rPhc27V8RnGPCXjF8UAi-283" value="string" style="shape=partialRectangle;connectable=0;fillColor=none;top=0;left=0;bottom=0;right=0;editable=1;overflow=hidden;html=1;whiteSpace=wrap;fontSize=16;" vertex="1" parent="rPhc27V8RnGPCXjF8UAi-282">
          <mxGeometry width="100" height="30" as="geometry">
            <mxRectangle width="100" height="30" as="alternateBounds" />
          </mxGeometry>
        </mxCell>
        <mxCell id="rPhc27V8RnGPCXjF8UAi-284" value="walletId" style="shape=partialRectangle;connectable=0;fillColor=none;top=0;left=0;bottom=0;right=0;align=left;spacingLeft=6;overflow=hidden;html=1;whiteSpace=wrap;fontSize=16;" vertex="1" parent="rPhc27V8RnGPCXjF8UAi-282">
          <mxGeometry x="100" width="190" height="30" as="geometry">
            <mxRectangle width="190" height="30" as="alternateBounds" />
          </mxGeometry>
        </mxCell>
        <mxCell id="rPhc27V8RnGPCXjF8UAi-123" value="" style="edgeStyle=entityRelationEdgeStyle;fontSize=12;html=1;endArrow=ERoneToMany;rounded=0;startSize=8;endSize=8;entryX=1;entryY=0.5;entryDx=0;entryDy=0;" edge="1" parent="1" source="H5C_QRacnQs3EDhZYAMX-6" target="rPhc27V8RnGPCXjF8UAi-118">
          <mxGeometry width="100" height="100" relative="1" as="geometry">
            <mxPoint x="110" y="200" as="sourcePoint" />
            <mxPoint x="210" y="100" as="targetPoint" />
          </mxGeometry>
        </mxCell>
        <mxCell id="rPhc27V8RnGPCXjF8UAi-145" value="TreezorUser" style="shape=table;startSize=30;container=1;collapsible=1;childLayout=tableLayout;fixedRows=1;rowLines=0;fontStyle=1;align=center;resizeLast=1;html=1;whiteSpace=wrap;fontSize=16;" vertex="1" parent="1">
          <mxGeometry x="-1150" y="-50" width="290" height="60" as="geometry" />
        </mxCell>
        <mxCell id="rPhc27V8RnGPCXjF8UAi-146" value="" style="shape=tableRow;horizontal=0;startSize=0;swimlaneHead=0;swimlaneBody=0;fillColor=none;collapsible=0;dropTarget=0;points=[[0,0.5],[1,0.5]];portConstraint=eastwest;top=0;left=0;right=0;bottom=0;html=1;fontSize=16;" vertex="1" parent="rPhc27V8RnGPCXjF8UAi-145">
          <mxGeometry y="30" width="290" height="30" as="geometry" />
        </mxCell>
        <mxCell id="rPhc27V8RnGPCXjF8UAi-147" value="PK, uuid" style="shape=partialRectangle;connectable=0;fillColor=none;top=0;left=0;bottom=0;right=0;fontStyle=1;overflow=hidden;html=1;whiteSpace=wrap;fontSize=16;" vertex="1" parent="rPhc27V8RnGPCXjF8UAi-146">
          <mxGeometry width="100" height="30" as="geometry">
            <mxRectangle width="100" height="30" as="alternateBounds" />
          </mxGeometry>
        </mxCell>
        <mxCell id="rPhc27V8RnGPCXjF8UAi-148" value="Id" style="shape=partialRectangle;connectable=0;fillColor=none;top=0;left=0;bottom=0;right=0;align=left;spacingLeft=6;fontStyle=5;overflow=hidden;html=1;whiteSpace=wrap;fontSize=16;" vertex="1" parent="rPhc27V8RnGPCXjF8UAi-146">
          <mxGeometry x="100" width="190" height="30" as="geometry">
            <mxRectangle width="190" height="30" as="alternateBounds" />
          </mxGeometry>
        </mxCell>
        <mxCell id="NYheWyNIlXqnN4zP6Oqd-1" value="Client" style="shape=table;startSize=30;container=1;collapsible=1;childLayout=tableLayout;fixedRows=1;rowLines=0;fontStyle=1;align=center;resizeLast=1;html=1;whiteSpace=wrap;fontSize=16;" vertex="1" parent="1">
          <mxGeometry x="-440" y="-140" width="290" height="660" as="geometry" />
        </mxCell>
        <mxCell id="NYheWyNIlXqnN4zP6Oqd-2" value="" style="shape=tableRow;horizontal=0;startSize=0;swimlaneHead=0;swimlaneBody=0;fillColor=none;collapsible=0;dropTarget=0;points=[[0,0.5],[1,0.5]];portConstraint=eastwest;top=0;left=0;right=0;bottom=0;html=1;fontSize=16;" vertex="1" parent="NYheWyNIlXqnN4zP6Oqd-1">
          <mxGeometry y="30" width="290" height="30" as="geometry" />
        </mxCell>
        <mxCell id="NYheWyNIlXqnN4zP6Oqd-3" value="PK, uuid" style="shape=partialRectangle;connectable=0;fillColor=none;top=0;left=0;bottom=0;right=0;fontStyle=1;overflow=hidden;html=1;whiteSpace=wrap;fontSize=16;" vertex="1" parent="NYheWyNIlXqnN4zP6Oqd-2">
          <mxGeometry width="100" height="30" as="geometry">
            <mxRectangle width="100" height="30" as="alternateBounds" />
          </mxGeometry>
        </mxCell>
        <mxCell id="NYheWyNIlXqnN4zP6Oqd-4" value="Id" style="shape=partialRectangle;connectable=0;fillColor=none;top=0;left=0;bottom=0;right=0;align=left;spacingLeft=6;fontStyle=5;overflow=hidden;html=1;whiteSpace=wrap;fontSize=16;" vertex="1" parent="NYheWyNIlXqnN4zP6Oqd-2">
          <mxGeometry x="100" width="190" height="30" as="geometry">
            <mxRectangle width="190" height="30" as="alternateBounds" />
          </mxGeometry>
        </mxCell>
        <mxCell id="NYheWyNIlXqnN4zP6Oqd-5" value="" style="shape=tableRow;horizontal=0;startSize=0;swimlaneHead=0;swimlaneBody=0;fillColor=none;collapsible=0;dropTarget=0;points=[[0,0.5],[1,0.5]];portConstraint=eastwest;top=0;left=0;right=0;bottom=0;html=1;fontSize=16;" vertex="1" parent="NYheWyNIlXqnN4zP6Oqd-1">
          <mxGeometry y="60" width="290" height="30" as="geometry" />
        </mxCell>
        <mxCell id="NYheWyNIlXqnN4zP6Oqd-6" value="bool" style="shape=partialRectangle;connectable=0;fillColor=none;top=0;left=0;bottom=0;right=0;editable=1;overflow=hidden;html=1;whiteSpace=wrap;fontSize=16;" vertex="1" parent="NYheWyNIlXqnN4zP6Oqd-5">
          <mxGeometry width="100" height="30" as="geometry">
            <mxRectangle width="100" height="30" as="alternateBounds" />
          </mxGeometry>
        </mxCell>
        <mxCell id="NYheWyNIlXqnN4zP6Oqd-7" value="deleted" style="shape=partialRectangle;connectable=0;fillColor=none;top=0;left=0;bottom=0;right=0;align=left;spacingLeft=6;overflow=hidden;html=1;whiteSpace=wrap;fontSize=16;" vertex="1" parent="NYheWyNIlXqnN4zP6Oqd-5">
          <mxGeometry x="100" width="190" height="30" as="geometry">
            <mxRectangle width="190" height="30" as="alternateBounds" />
          </mxGeometry>
        </mxCell>
        <mxCell id="NYheWyNIlXqnN4zP6Oqd-43" value="" style="shape=tableRow;horizontal=0;startSize=0;swimlaneHead=0;swimlaneBody=0;fillColor=none;collapsible=0;dropTarget=0;points=[[0,0.5],[1,0.5]];portConstraint=eastwest;top=0;left=0;right=0;bottom=0;html=1;fontSize=16;" vertex="1" parent="NYheWyNIlXqnN4zP6Oqd-1">
          <mxGeometry y="90" width="290" height="30" as="geometry" />
        </mxCell>
        <mxCell id="NYheWyNIlXqnN4zP6Oqd-44" value="string" style="shape=partialRectangle;connectable=0;fillColor=none;top=0;left=0;bottom=0;right=0;editable=1;overflow=hidden;html=1;whiteSpace=wrap;fontSize=16;" vertex="1" parent="NYheWyNIlXqnN4zP6Oqd-43">
          <mxGeometry width="100" height="30" as="geometry">
            <mxRectangle width="100" height="30" as="alternateBounds" />
          </mxGeometry>
        </mxCell>
        <mxCell id="NYheWyNIlXqnN4zP6Oqd-45" value="name" style="shape=partialRectangle;connectable=0;fillColor=none;top=0;left=0;bottom=0;right=0;align=left;spacingLeft=6;overflow=hidden;html=1;whiteSpace=wrap;fontSize=16;" vertex="1" parent="NYheWyNIlXqnN4zP6Oqd-43">
          <mxGeometry x="100" width="190" height="30" as="geometry">
            <mxRectangle width="190" height="30" as="alternateBounds" />
          </mxGeometry>
        </mxCell>
        <mxCell id="NYheWyNIlXqnN4zP6Oqd-67" value="" style="shape=tableRow;horizontal=0;startSize=0;swimlaneHead=0;swimlaneBody=0;fillColor=none;collapsible=0;dropTarget=0;points=[[0,0.5],[1,0.5]];portConstraint=eastwest;top=0;left=0;right=0;bottom=0;html=1;fontSize=16;" vertex="1" parent="NYheWyNIlXqnN4zP6Oqd-1">
          <mxGeometry y="120" width="290" height="30" as="geometry" />
        </mxCell>
        <mxCell id="NYheWyNIlXqnN4zP6Oqd-68" value="string" style="shape=partialRectangle;connectable=0;fillColor=none;top=0;left=0;bottom=0;right=0;editable=1;overflow=hidden;html=1;whiteSpace=wrap;fontSize=16;" vertex="1" parent="NYheWyNIlXqnN4zP6Oqd-67">
          <mxGeometry width="100" height="30" as="geometry">
            <mxRectangle width="100" height="30" as="alternateBounds" />
          </mxGeometry>
        </mxCell>
        <mxCell id="NYheWyNIlXqnN4zP6Oqd-69" value="firstName" style="shape=partialRectangle;connectable=0;fillColor=none;top=0;left=0;bottom=0;right=0;align=left;spacingLeft=6;overflow=hidden;html=1;whiteSpace=wrap;fontSize=16;" vertex="1" parent="NYheWyNIlXqnN4zP6Oqd-67">
          <mxGeometry x="100" width="190" height="30" as="geometry">
            <mxRectangle width="190" height="30" as="alternateBounds" />
          </mxGeometry>
        </mxCell>
        <mxCell id="NYheWyNIlXqnN4zP6Oqd-82" value="" style="shape=tableRow;horizontal=0;startSize=0;swimlaneHead=0;swimlaneBody=0;fillColor=none;collapsible=0;dropTarget=0;points=[[0,0.5],[1,0.5]];portConstraint=eastwest;top=0;left=0;right=0;bottom=0;fontSize=16;" vertex="1" parent="NYheWyNIlXqnN4zP6Oqd-1">
          <mxGeometry y="150" width="290" height="30" as="geometry" />
        </mxCell>
        <mxCell id="NYheWyNIlXqnN4zP6Oqd-83" value="string" style="shape=partialRectangle;connectable=0;fillColor=none;top=0;left=0;bottom=0;right=0;editable=1;overflow=hidden;fontSize=16;" vertex="1" parent="NYheWyNIlXqnN4zP6Oqd-82">
          <mxGeometry width="100" height="30" as="geometry">
            <mxRectangle width="100" height="30" as="alternateBounds" />
          </mxGeometry>
        </mxCell>
        <mxCell id="NYheWyNIlXqnN4zP6Oqd-84" value="phoneNumber" style="shape=partialRectangle;connectable=0;fillColor=none;top=0;left=0;bottom=0;right=0;align=left;spacingLeft=6;overflow=hidden;fontSize=16;" vertex="1" parent="NYheWyNIlXqnN4zP6Oqd-82">
          <mxGeometry x="100" width="190" height="30" as="geometry">
            <mxRectangle width="190" height="30" as="alternateBounds" />
          </mxGeometry>
        </mxCell>
        <mxCell id="NYheWyNIlXqnN4zP6Oqd-46" value="" style="shape=tableRow;horizontal=0;startSize=0;swimlaneHead=0;swimlaneBody=0;fillColor=none;collapsible=0;dropTarget=0;points=[[0,0.5],[1,0.5]];portConstraint=eastwest;top=0;left=0;right=0;bottom=0;html=1;fontSize=16;" vertex="1" parent="NYheWyNIlXqnN4zP6Oqd-1">
          <mxGeometry y="180" width="290" height="30" as="geometry" />
        </mxCell>
        <mxCell id="NYheWyNIlXqnN4zP6Oqd-47" value="string" style="shape=partialRectangle;connectable=0;fillColor=none;top=0;left=0;bottom=0;right=0;editable=1;overflow=hidden;html=1;whiteSpace=wrap;fontSize=16;" vertex="1" parent="NYheWyNIlXqnN4zP6Oqd-46">
          <mxGeometry width="100" height="30" as="geometry">
            <mxRectangle width="100" height="30" as="alternateBounds" />
          </mxGeometry>
        </mxCell>
        <mxCell id="NYheWyNIlXqnN4zP6Oqd-48" value="description" style="shape=partialRectangle;connectable=0;fillColor=none;top=0;left=0;bottom=0;right=0;align=left;spacingLeft=6;overflow=hidden;html=1;whiteSpace=wrap;fontSize=16;" vertex="1" parent="NYheWyNIlXqnN4zP6Oqd-46">
          <mxGeometry x="100" width="190" height="30" as="geometry">
            <mxRectangle width="190" height="30" as="alternateBounds" />
          </mxGeometry>
        </mxCell>
        <mxCell id="NYheWyNIlXqnN4zP6Oqd-49" value="" style="shape=tableRow;horizontal=0;startSize=0;swimlaneHead=0;swimlaneBody=0;fillColor=none;collapsible=0;dropTarget=0;points=[[0,0.5],[1,0.5]];portConstraint=eastwest;top=0;left=0;right=0;bottom=0;fontSize=16;" vertex="1" parent="NYheWyNIlXqnN4zP6Oqd-1">
          <mxGeometry y="210" width="290" height="30" as="geometry" />
        </mxCell>
        <mxCell id="NYheWyNIlXqnN4zP6Oqd-50" value="string" style="shape=partialRectangle;connectable=0;fillColor=none;top=0;left=0;bottom=0;right=0;editable=1;overflow=hidden;fontSize=16;" vertex="1" parent="NYheWyNIlXqnN4zP6Oqd-49">
          <mxGeometry width="100" height="30" as="geometry">
            <mxRectangle width="100" height="30" as="alternateBounds" />
          </mxGeometry>
        </mxCell>
        <mxCell id="NYheWyNIlXqnN4zP6Oqd-51" value="intracomvat" style="shape=partialRectangle;connectable=0;fillColor=none;top=0;left=0;bottom=0;right=0;align=left;spacingLeft=6;overflow=hidden;fontSize=16;" vertex="1" parent="NYheWyNIlXqnN4zP6Oqd-49">
          <mxGeometry x="100" width="190" height="30" as="geometry">
            <mxRectangle width="190" height="30" as="alternateBounds" />
          </mxGeometry>
        </mxCell>
        <mxCell id="NYheWyNIlXqnN4zP6Oqd-52" value="" style="shape=tableRow;horizontal=0;startSize=0;swimlaneHead=0;swimlaneBody=0;fillColor=none;collapsible=0;dropTarget=0;points=[[0,0.5],[1,0.5]];portConstraint=eastwest;top=0;left=0;right=0;bottom=0;fontSize=16;" vertex="1" parent="NYheWyNIlXqnN4zP6Oqd-1">
          <mxGeometry y="240" width="290" height="30" as="geometry" />
        </mxCell>
        <mxCell id="NYheWyNIlXqnN4zP6Oqd-53" value="FK" style="shape=partialRectangle;connectable=0;fillColor=none;top=0;left=0;bottom=0;right=0;editable=1;overflow=hidden;fontSize=16;" vertex="1" parent="NYheWyNIlXqnN4zP6Oqd-52">
          <mxGeometry width="100" height="30" as="geometry">
            <mxRectangle width="100" height="30" as="alternateBounds" />
          </mxGeometry>
        </mxCell>
        <mxCell id="NYheWyNIlXqnN4zP6Oqd-54" value="addressId" style="shape=partialRectangle;connectable=0;fillColor=none;top=0;left=0;bottom=0;right=0;align=left;spacingLeft=6;overflow=hidden;fontSize=16;" vertex="1" parent="NYheWyNIlXqnN4zP6Oqd-52">
          <mxGeometry x="100" width="190" height="30" as="geometry">
            <mxRectangle width="190" height="30" as="alternateBounds" />
          </mxGeometry>
        </mxCell>
        <mxCell id="NYheWyNIlXqnN4zP6Oqd-55" value="" style="shape=tableRow;horizontal=0;startSize=0;swimlaneHead=0;swimlaneBody=0;fillColor=none;collapsible=0;dropTarget=0;points=[[0,0.5],[1,0.5]];portConstraint=eastwest;top=0;left=0;right=0;bottom=0;fontSize=16;" vertex="1" parent="NYheWyNIlXqnN4zP6Oqd-1">
          <mxGeometry y="270" width="290" height="30" as="geometry" />
        </mxCell>
        <mxCell id="NYheWyNIlXqnN4zP6Oqd-56" value="string" style="shape=partialRectangle;connectable=0;fillColor=none;top=0;left=0;bottom=0;right=0;editable=1;overflow=hidden;fontSize=16;" vertex="1" parent="NYheWyNIlXqnN4zP6Oqd-55">
          <mxGeometry width="100" height="30" as="geometry">
            <mxRectangle width="100" height="30" as="alternateBounds" />
          </mxGeometry>
        </mxCell>
        <mxCell id="NYheWyNIlXqnN4zP6Oqd-57" value="contact" style="shape=partialRectangle;connectable=0;fillColor=none;top=0;left=0;bottom=0;right=0;align=left;spacingLeft=6;overflow=hidden;fontSize=16;" vertex="1" parent="NYheWyNIlXqnN4zP6Oqd-55">
          <mxGeometry x="100" width="190" height="30" as="geometry">
            <mxRectangle width="190" height="30" as="alternateBounds" />
          </mxGeometry>
        </mxCell>
        <mxCell id="NYheWyNIlXqnN4zP6Oqd-58" value="" style="shape=tableRow;horizontal=0;startSize=0;swimlaneHead=0;swimlaneBody=0;fillColor=none;collapsible=0;dropTarget=0;points=[[0,0.5],[1,0.5]];portConstraint=eastwest;top=0;left=0;right=0;bottom=0;fontSize=16;" vertex="1" parent="NYheWyNIlXqnN4zP6Oqd-1">
          <mxGeometry y="300" width="290" height="30" as="geometry" />
        </mxCell>
        <mxCell id="NYheWyNIlXqnN4zP6Oqd-59" value="string" style="shape=partialRectangle;connectable=0;fillColor=none;top=0;left=0;bottom=0;right=0;editable=1;overflow=hidden;fontSize=16;" vertex="1" parent="NYheWyNIlXqnN4zP6Oqd-58">
          <mxGeometry width="100" height="30" as="geometry">
            <mxRectangle width="100" height="30" as="alternateBounds" />
          </mxGeometry>
        </mxCell>
        <mxCell id="NYheWyNIlXqnN4zP6Oqd-60" value="email" style="shape=partialRectangle;connectable=0;fillColor=none;top=0;left=0;bottom=0;right=0;align=left;spacingLeft=6;overflow=hidden;fontSize=16;" vertex="1" parent="NYheWyNIlXqnN4zP6Oqd-58">
          <mxGeometry x="100" width="190" height="30" as="geometry">
            <mxRectangle width="190" height="30" as="alternateBounds" />
          </mxGeometry>
        </mxCell>
        <mxCell id="NYheWyNIlXqnN4zP6Oqd-61" value="" style="shape=tableRow;horizontal=0;startSize=0;swimlaneHead=0;swimlaneBody=0;fillColor=none;collapsible=0;dropTarget=0;points=[[0,0.5],[1,0.5]];portConstraint=eastwest;top=0;left=0;right=0;bottom=0;fontSize=16;" vertex="1" parent="NYheWyNIlXqnN4zP6Oqd-1">
          <mxGeometry y="330" width="290" height="30" as="geometry" />
        </mxCell>
        <mxCell id="NYheWyNIlXqnN4zP6Oqd-62" value="string" style="shape=partialRectangle;connectable=0;fillColor=none;top=0;left=0;bottom=0;right=0;editable=1;overflow=hidden;fontSize=16;" vertex="1" parent="NYheWyNIlXqnN4zP6Oqd-61">
          <mxGeometry width="100" height="30" as="geometry">
            <mxRectangle width="100" height="30" as="alternateBounds" />
          </mxGeometry>
        </mxCell>
        <mxCell id="NYheWyNIlXqnN4zP6Oqd-63" value="title" style="shape=partialRectangle;connectable=0;fillColor=none;top=0;left=0;bottom=0;right=0;align=left;spacingLeft=6;overflow=hidden;fontSize=16;" vertex="1" parent="NYheWyNIlXqnN4zP6Oqd-61">
          <mxGeometry x="100" width="190" height="30" as="geometry">
            <mxRectangle width="190" height="30" as="alternateBounds" />
          </mxGeometry>
        </mxCell>
        <mxCell id="NYheWyNIlXqnN4zP6Oqd-64" value="" style="shape=tableRow;horizontal=0;startSize=0;swimlaneHead=0;swimlaneBody=0;fillColor=none;collapsible=0;dropTarget=0;points=[[0,0.5],[1,0.5]];portConstraint=eastwest;top=0;left=0;right=0;bottom=0;fontSize=16;" vertex="1" parent="NYheWyNIlXqnN4zP6Oqd-1">
          <mxGeometry y="360" width="290" height="30" as="geometry" />
        </mxCell>
        <mxCell id="NYheWyNIlXqnN4zP6Oqd-65" value="string" style="shape=partialRectangle;connectable=0;fillColor=none;top=0;left=0;bottom=0;right=0;editable=1;overflow=hidden;fontSize=16;" vertex="1" parent="NYheWyNIlXqnN4zP6Oqd-64">
          <mxGeometry width="100" height="30" as="geometry">
            <mxRectangle width="100" height="30" as="alternateBounds" />
          </mxGeometry>
        </mxCell>
        <mxCell id="NYheWyNIlXqnN4zP6Oqd-66" value="siret" style="shape=partialRectangle;connectable=0;fillColor=none;top=0;left=0;bottom=0;right=0;align=left;spacingLeft=6;overflow=hidden;fontSize=16;" vertex="1" parent="NYheWyNIlXqnN4zP6Oqd-64">
          <mxGeometry x="100" width="190" height="30" as="geometry">
            <mxRectangle width="190" height="30" as="alternateBounds" />
          </mxGeometry>
        </mxCell>
        <mxCell id="NYheWyNIlXqnN4zP6Oqd-73" value="" style="shape=tableRow;horizontal=0;startSize=0;swimlaneHead=0;swimlaneBody=0;fillColor=none;collapsible=0;dropTarget=0;points=[[0,0.5],[1,0.5]];portConstraint=eastwest;top=0;left=0;right=0;bottom=0;html=1;fontSize=16;" vertex="1" parent="NYheWyNIlXqnN4zP6Oqd-1">
          <mxGeometry y="390" width="290" height="30" as="geometry" />
        </mxCell>
        <mxCell id="NYheWyNIlXqnN4zP6Oqd-74" value="string" style="shape=partialRectangle;connectable=0;fillColor=none;top=0;left=0;bottom=0;right=0;editable=1;overflow=hidden;html=1;whiteSpace=wrap;fontSize=16;" vertex="1" parent="NYheWyNIlXqnN4zP6Oqd-73">
          <mxGeometry width="100" height="30" as="geometry">
            <mxRectangle width="100" height="30" as="alternateBounds" />
          </mxGeometry>
        </mxCell>
        <mxCell id="NYheWyNIlXqnN4zP6Oqd-75" value="bic" style="shape=partialRectangle;connectable=0;fillColor=none;top=0;left=0;bottom=0;right=0;align=left;spacingLeft=6;overflow=hidden;html=1;whiteSpace=wrap;fontSize=16;" vertex="1" parent="NYheWyNIlXqnN4zP6Oqd-73">
          <mxGeometry x="100" width="190" height="30" as="geometry">
            <mxRectangle width="190" height="30" as="alternateBounds" />
          </mxGeometry>
        </mxCell>
        <mxCell id="NYheWyNIlXqnN4zP6Oqd-70" value="" style="shape=tableRow;horizontal=0;startSize=0;swimlaneHead=0;swimlaneBody=0;fillColor=none;collapsible=0;dropTarget=0;points=[[0,0.5],[1,0.5]];portConstraint=eastwest;top=0;left=0;right=0;bottom=0;html=1;fontSize=16;" vertex="1" parent="NYheWyNIlXqnN4zP6Oqd-1">
          <mxGeometry y="420" width="290" height="30" as="geometry" />
        </mxCell>
        <mxCell id="NYheWyNIlXqnN4zP6Oqd-71" value="string" style="shape=partialRectangle;connectable=0;fillColor=none;top=0;left=0;bottom=0;right=0;editable=1;overflow=hidden;html=1;whiteSpace=wrap;fontSize=16;" vertex="1" parent="NYheWyNIlXqnN4zP6Oqd-70">
          <mxGeometry width="100" height="30" as="geometry">
            <mxRectangle width="100" height="30" as="alternateBounds" />
          </mxGeometry>
        </mxCell>
        <mxCell id="NYheWyNIlXqnN4zP6Oqd-72" value="iban" style="shape=partialRectangle;connectable=0;fillColor=none;top=0;left=0;bottom=0;right=0;align=left;spacingLeft=6;overflow=hidden;html=1;whiteSpace=wrap;fontSize=16;" vertex="1" parent="NYheWyNIlXqnN4zP6Oqd-70">
          <mxGeometry x="100" width="190" height="30" as="geometry">
            <mxRectangle width="190" height="30" as="alternateBounds" />
          </mxGeometry>
        </mxCell>
        <mxCell id="NYheWyNIlXqnN4zP6Oqd-76" value="" style="shape=tableRow;horizontal=0;startSize=0;swimlaneHead=0;swimlaneBody=0;fillColor=none;collapsible=0;dropTarget=0;points=[[0,0.5],[1,0.5]];portConstraint=eastwest;top=0;left=0;right=0;bottom=0;html=1;fontSize=16;" vertex="1" parent="NYheWyNIlXqnN4zP6Oqd-1">
          <mxGeometry y="450" width="290" height="30" as="geometry" />
        </mxCell>
        <mxCell id="NYheWyNIlXqnN4zP6Oqd-77" value="bool" style="shape=partialRectangle;connectable=0;fillColor=none;top=0;left=0;bottom=0;right=0;editable=1;overflow=hidden;html=1;whiteSpace=wrap;fontSize=16;" vertex="1" parent="NYheWyNIlXqnN4zP6Oqd-76">
          <mxGeometry width="100" height="30" as="geometry">
            <mxRectangle width="100" height="30" as="alternateBounds" />
          </mxGeometry>
        </mxCell>
        <mxCell id="NYheWyNIlXqnN4zP6Oqd-78" value="isCompany" style="shape=partialRectangle;connectable=0;fillColor=none;top=0;left=0;bottom=0;right=0;align=left;spacingLeft=6;overflow=hidden;html=1;whiteSpace=wrap;fontSize=16;" vertex="1" parent="NYheWyNIlXqnN4zP6Oqd-76">
          <mxGeometry x="100" width="190" height="30" as="geometry">
            <mxRectangle width="190" height="30" as="alternateBounds" />
          </mxGeometry>
        </mxCell>
        <mxCell id="NYheWyNIlXqnN4zP6Oqd-79" value="" style="shape=tableRow;horizontal=0;startSize=0;swimlaneHead=0;swimlaneBody=0;fillColor=none;collapsible=0;dropTarget=0;points=[[0,0.5],[1,0.5]];portConstraint=eastwest;top=0;left=0;right=0;bottom=0;html=1;fontSize=16;" vertex="1" parent="NYheWyNIlXqnN4zP6Oqd-1">
          <mxGeometry y="480" width="290" height="30" as="geometry" />
        </mxCell>
        <mxCell id="NYheWyNIlXqnN4zP6Oqd-80" value="bool" style="shape=partialRectangle;connectable=0;fillColor=none;top=0;left=0;bottom=0;right=0;editable=1;overflow=hidden;html=1;whiteSpace=wrap;fontSize=16;" vertex="1" parent="NYheWyNIlXqnN4zP6Oqd-79">
          <mxGeometry width="100" height="30" as="geometry">
            <mxRectangle width="100" height="30" as="alternateBounds" />
          </mxGeometry>
        </mxCell>
        <mxCell id="NYheWyNIlXqnN4zP6Oqd-81" value="isProspect" style="shape=partialRectangle;connectable=0;fillColor=none;top=0;left=0;bottom=0;right=0;align=left;spacingLeft=6;overflow=hidden;html=1;whiteSpace=wrap;fontSize=16;" vertex="1" parent="NYheWyNIlXqnN4zP6Oqd-79">
          <mxGeometry x="100" width="190" height="30" as="geometry">
            <mxRectangle width="190" height="30" as="alternateBounds" />
          </mxGeometry>
        </mxCell>
        <mxCell id="NYheWyNIlXqnN4zP6Oqd-85" value="" style="shape=tableRow;horizontal=0;startSize=0;swimlaneHead=0;swimlaneBody=0;fillColor=none;collapsible=0;dropTarget=0;points=[[0,0.5],[1,0.5]];portConstraint=eastwest;top=0;left=0;right=0;bottom=0;html=1;fontSize=16;" vertex="1" parent="NYheWyNIlXqnN4zP6Oqd-1">
          <mxGeometry y="510" width="290" height="30" as="geometry" />
        </mxCell>
        <mxCell id="NYheWyNIlXqnN4zP6Oqd-86" value="string" style="shape=partialRectangle;connectable=0;fillColor=none;top=0;left=0;bottom=0;right=0;editable=1;overflow=hidden;html=1;whiteSpace=wrap;fontSize=16;" vertex="1" parent="NYheWyNIlXqnN4zP6Oqd-85">
          <mxGeometry width="100" height="30" as="geometry">
            <mxRectangle width="100" height="30" as="alternateBounds" />
          </mxGeometry>
        </mxCell>
        <mxCell id="NYheWyNIlXqnN4zP6Oqd-87" value="account" style="shape=partialRectangle;connectable=0;fillColor=none;top=0;left=0;bottom=0;right=0;align=left;spacingLeft=6;overflow=hidden;html=1;whiteSpace=wrap;fontSize=16;" vertex="1" parent="NYheWyNIlXqnN4zP6Oqd-85">
          <mxGeometry x="100" width="190" height="30" as="geometry">
            <mxRectangle width="190" height="30" as="alternateBounds" />
          </mxGeometry>
        </mxCell>
        <mxCell id="NYheWyNIlXqnN4zP6Oqd-88" value="" style="shape=tableRow;horizontal=0;startSize=0;swimlaneHead=0;swimlaneBody=0;fillColor=none;collapsible=0;dropTarget=0;points=[[0,0.5],[1,0.5]];portConstraint=eastwest;top=0;left=0;right=0;bottom=0;html=1;fontSize=16;" vertex="1" parent="NYheWyNIlXqnN4zP6Oqd-1">
          <mxGeometry y="540" width="290" height="30" as="geometry" />
        </mxCell>
        <mxCell id="NYheWyNIlXqnN4zP6Oqd-89" value="FK" style="shape=partialRectangle;connectable=0;fillColor=none;top=0;left=0;bottom=0;right=0;editable=1;overflow=hidden;html=1;whiteSpace=wrap;fontSize=16;" vertex="1" parent="NYheWyNIlXqnN4zP6Oqd-88">
          <mxGeometry width="100" height="30" as="geometry">
            <mxRectangle width="100" height="30" as="alternateBounds" />
          </mxGeometry>
        </mxCell>
        <mxCell id="NYheWyNIlXqnN4zP6Oqd-90" value="companyId" style="shape=partialRectangle;connectable=0;fillColor=none;top=0;left=0;bottom=0;right=0;align=left;spacingLeft=6;overflow=hidden;html=1;whiteSpace=wrap;fontSize=16;" vertex="1" parent="NYheWyNIlXqnN4zP6Oqd-88">
          <mxGeometry x="100" width="190" height="30" as="geometry">
            <mxRectangle width="190" height="30" as="alternateBounds" />
          </mxGeometry>
        </mxCell>
        <mxCell id="NYheWyNIlXqnN4zP6Oqd-91" value="" style="shape=tableRow;horizontal=0;startSize=0;swimlaneHead=0;swimlaneBody=0;fillColor=none;collapsible=0;dropTarget=0;points=[[0,0.5],[1,0.5]];portConstraint=eastwest;top=0;left=0;right=0;bottom=0;fontSize=16;" vertex="1" parent="NYheWyNIlXqnN4zP6Oqd-1">
          <mxGeometry y="570" width="290" height="30" as="geometry" />
        </mxCell>
        <mxCell id="NYheWyNIlXqnN4zP6Oqd-92" value="datetime" style="shape=partialRectangle;connectable=0;fillColor=none;top=0;left=0;bottom=0;right=0;editable=1;overflow=hidden;fontSize=16;" vertex="1" parent="NYheWyNIlXqnN4zP6Oqd-91">
          <mxGeometry width="100" height="30" as="geometry">
            <mxRectangle width="100" height="30" as="alternateBounds" />
          </mxGeometry>
        </mxCell>
        <mxCell id="NYheWyNIlXqnN4zP6Oqd-93" value="created" style="shape=partialRectangle;connectable=0;fillColor=none;top=0;left=0;bottom=0;right=0;align=left;spacingLeft=6;overflow=hidden;fontSize=16;" vertex="1" parent="NYheWyNIlXqnN4zP6Oqd-91">
          <mxGeometry x="100" width="190" height="30" as="geometry">
            <mxRectangle width="190" height="30" as="alternateBounds" />
          </mxGeometry>
        </mxCell>
        <mxCell id="NYheWyNIlXqnN4zP6Oqd-94" value="" style="shape=tableRow;horizontal=0;startSize=0;swimlaneHead=0;swimlaneBody=0;fillColor=none;collapsible=0;dropTarget=0;points=[[0,0.5],[1,0.5]];portConstraint=eastwest;top=0;left=0;right=0;bottom=0;fontSize=16;" vertex="1" parent="NYheWyNIlXqnN4zP6Oqd-1">
          <mxGeometry y="600" width="290" height="30" as="geometry" />
        </mxCell>
        <mxCell id="NYheWyNIlXqnN4zP6Oqd-95" value="datetime" style="shape=partialRectangle;connectable=0;fillColor=none;top=0;left=0;bottom=0;right=0;editable=1;overflow=hidden;fontSize=16;" vertex="1" parent="NYheWyNIlXqnN4zP6Oqd-94">
          <mxGeometry width="100" height="30" as="geometry">
            <mxRectangle width="100" height="30" as="alternateBounds" />
          </mxGeometry>
        </mxCell>
        <mxCell id="NYheWyNIlXqnN4zP6Oqd-96" value="updated" style="shape=partialRectangle;connectable=0;fillColor=none;top=0;left=0;bottom=0;right=0;align=left;spacingLeft=6;overflow=hidden;fontSize=16;" vertex="1" parent="NYheWyNIlXqnN4zP6Oqd-94">
          <mxGeometry x="100" width="190" height="30" as="geometry">
            <mxRectangle width="190" height="30" as="alternateBounds" />
          </mxGeometry>
        </mxCell>
        <mxCell id="NYheWyNIlXqnN4zP6Oqd-26" value="Address" style="shape=table;startSize=30;container=1;collapsible=1;childLayout=tableLayout;fixedRows=1;rowLines=0;fontStyle=1;align=center;resizeLast=1;html=1;whiteSpace=wrap;fontSize=16;" vertex="1" parent="1">
          <mxGeometry x="-70" y="640" width="290" height="180" as="geometry" />
        </mxCell>
        <mxCell id="NYheWyNIlXqnN4zP6Oqd-27" value="" style="shape=tableRow;horizontal=0;startSize=0;swimlaneHead=0;swimlaneBody=0;fillColor=none;collapsible=0;dropTarget=0;points=[[0,0.5],[1,0.5]];portConstraint=eastwest;top=0;left=0;right=0;bottom=0;html=1;fontSize=16;" vertex="1" parent="NYheWyNIlXqnN4zP6Oqd-26">
          <mxGeometry y="30" width="290" height="30" as="geometry" />
        </mxCell>
        <mxCell id="NYheWyNIlXqnN4zP6Oqd-28" value="PK, uuid" style="shape=partialRectangle;connectable=0;fillColor=none;top=0;left=0;bottom=0;right=0;fontStyle=1;overflow=hidden;html=1;whiteSpace=wrap;fontSize=16;" vertex="1" parent="NYheWyNIlXqnN4zP6Oqd-27">
          <mxGeometry width="100" height="30" as="geometry">
            <mxRectangle width="100" height="30" as="alternateBounds" />
          </mxGeometry>
        </mxCell>
        <mxCell id="NYheWyNIlXqnN4zP6Oqd-29" value="Id" style="shape=partialRectangle;connectable=0;fillColor=none;top=0;left=0;bottom=0;right=0;align=left;spacingLeft=6;fontStyle=5;overflow=hidden;html=1;whiteSpace=wrap;fontSize=16;" vertex="1" parent="NYheWyNIlXqnN4zP6Oqd-27">
          <mxGeometry x="100" width="190" height="30" as="geometry">
            <mxRectangle width="190" height="30" as="alternateBounds" />
          </mxGeometry>
        </mxCell>
        <mxCell id="NYheWyNIlXqnN4zP6Oqd-30" value="" style="shape=tableRow;horizontal=0;startSize=0;swimlaneHead=0;swimlaneBody=0;fillColor=none;collapsible=0;dropTarget=0;points=[[0,0.5],[1,0.5]];portConstraint=eastwest;top=0;left=0;right=0;bottom=0;html=1;fontSize=16;" vertex="1" parent="NYheWyNIlXqnN4zP6Oqd-26">
          <mxGeometry y="60" width="290" height="30" as="geometry" />
        </mxCell>
        <mxCell id="NYheWyNIlXqnN4zP6Oqd-31" value="string" style="shape=partialRectangle;connectable=0;fillColor=none;top=0;left=0;bottom=0;right=0;editable=1;overflow=hidden;html=1;whiteSpace=wrap;fontSize=16;" vertex="1" parent="NYheWyNIlXqnN4zP6Oqd-30">
          <mxGeometry width="100" height="30" as="geometry">
            <mxRectangle width="100" height="30" as="alternateBounds" />
          </mxGeometry>
        </mxCell>
        <mxCell id="NYheWyNIlXqnN4zP6Oqd-32" value="address" style="shape=partialRectangle;connectable=0;fillColor=none;top=0;left=0;bottom=0;right=0;align=left;spacingLeft=6;overflow=hidden;html=1;whiteSpace=wrap;fontSize=16;" vertex="1" parent="NYheWyNIlXqnN4zP6Oqd-30">
          <mxGeometry x="100" width="190" height="30" as="geometry">
            <mxRectangle width="190" height="30" as="alternateBounds" />
          </mxGeometry>
        </mxCell>
        <mxCell id="NYheWyNIlXqnN4zP6Oqd-33" value="" style="shape=tableRow;horizontal=0;startSize=0;swimlaneHead=0;swimlaneBody=0;fillColor=none;collapsible=0;dropTarget=0;points=[[0,0.5],[1,0.5]];portConstraint=eastwest;top=0;left=0;right=0;bottom=0;html=1;fontSize=16;" vertex="1" parent="NYheWyNIlXqnN4zP6Oqd-26">
          <mxGeometry y="90" width="290" height="30" as="geometry" />
        </mxCell>
        <mxCell id="NYheWyNIlXqnN4zP6Oqd-34" value="string" style="shape=partialRectangle;connectable=0;fillColor=none;top=0;left=0;bottom=0;right=0;editable=1;overflow=hidden;html=1;whiteSpace=wrap;fontSize=16;" vertex="1" parent="NYheWyNIlXqnN4zP6Oqd-33">
          <mxGeometry width="100" height="30" as="geometry">
            <mxRectangle width="100" height="30" as="alternateBounds" />
          </mxGeometry>
        </mxCell>
        <mxCell id="NYheWyNIlXqnN4zP6Oqd-35" value="city" style="shape=partialRectangle;connectable=0;fillColor=none;top=0;left=0;bottom=0;right=0;align=left;spacingLeft=6;overflow=hidden;html=1;whiteSpace=wrap;fontSize=16;" vertex="1" parent="NYheWyNIlXqnN4zP6Oqd-33">
          <mxGeometry x="100" width="190" height="30" as="geometry">
            <mxRectangle width="190" height="30" as="alternateBounds" />
          </mxGeometry>
        </mxCell>
        <mxCell id="NYheWyNIlXqnN4zP6Oqd-36" value="" style="shape=tableRow;horizontal=0;startSize=0;swimlaneHead=0;swimlaneBody=0;fillColor=none;collapsible=0;dropTarget=0;points=[[0,0.5],[1,0.5]];portConstraint=eastwest;top=0;left=0;right=0;bottom=0;html=1;fontSize=16;" vertex="1" parent="NYheWyNIlXqnN4zP6Oqd-26">
          <mxGeometry y="120" width="290" height="30" as="geometry" />
        </mxCell>
        <mxCell id="NYheWyNIlXqnN4zP6Oqd-37" value="string" style="shape=partialRectangle;connectable=0;fillColor=none;top=0;left=0;bottom=0;right=0;editable=1;overflow=hidden;html=1;whiteSpace=wrap;fontSize=16;" vertex="1" parent="NYheWyNIlXqnN4zP6Oqd-36">
          <mxGeometry width="100" height="30" as="geometry">
            <mxRectangle width="100" height="30" as="alternateBounds" />
          </mxGeometry>
        </mxCell>
        <mxCell id="NYheWyNIlXqnN4zP6Oqd-38" value="country" style="shape=partialRectangle;connectable=0;fillColor=none;top=0;left=0;bottom=0;right=0;align=left;spacingLeft=6;overflow=hidden;html=1;whiteSpace=wrap;fontSize=16;" vertex="1" parent="NYheWyNIlXqnN4zP6Oqd-36">
          <mxGeometry x="100" width="190" height="30" as="geometry">
            <mxRectangle width="190" height="30" as="alternateBounds" />
          </mxGeometry>
        </mxCell>
        <mxCell id="NYheWyNIlXqnN4zP6Oqd-39" value="" style="shape=tableRow;horizontal=0;startSize=0;swimlaneHead=0;swimlaneBody=0;fillColor=none;collapsible=0;dropTarget=0;points=[[0,0.5],[1,0.5]];portConstraint=eastwest;top=0;left=0;right=0;bottom=0;html=1;fontSize=16;" vertex="1" parent="NYheWyNIlXqnN4zP6Oqd-26">
          <mxGeometry y="150" width="290" height="30" as="geometry" />
        </mxCell>
        <mxCell id="NYheWyNIlXqnN4zP6Oqd-40" value="string" style="shape=partialRectangle;connectable=0;fillColor=none;top=0;left=0;bottom=0;right=0;editable=1;overflow=hidden;html=1;whiteSpace=wrap;fontSize=16;" vertex="1" parent="NYheWyNIlXqnN4zP6Oqd-39">
          <mxGeometry width="100" height="30" as="geometry">
            <mxRectangle width="100" height="30" as="alternateBounds" />
          </mxGeometry>
        </mxCell>
        <mxCell id="NYheWyNIlXqnN4zP6Oqd-41" value="zipcode" style="shape=partialRectangle;connectable=0;fillColor=none;top=0;left=0;bottom=0;right=0;align=left;spacingLeft=6;overflow=hidden;html=1;whiteSpace=wrap;fontSize=16;" vertex="1" parent="NYheWyNIlXqnN4zP6Oqd-39">
          <mxGeometry x="100" width="190" height="30" as="geometry">
            <mxRectangle width="190" height="30" as="alternateBounds" />
          </mxGeometry>
        </mxCell>
        <mxCell id="NYheWyNIlXqnN4zP6Oqd-42" value="" style="edgeStyle=entityRelationEdgeStyle;fontSize=12;html=1;endArrow=ERmandOne;startArrow=ERmandOne;rounded=0;startSize=8;endSize=8;" edge="1" parent="1" source="NYheWyNIlXqnN4zP6Oqd-27" target="rPhc27V8RnGPCXjF8UAi-27">
          <mxGeometry width="100" height="100" relative="1" as="geometry">
            <mxPoint x="220" y="370" as="sourcePoint" />
            <mxPoint x="320" y="270" as="targetPoint" />
          </mxGeometry>
        </mxCell>
        <mxCell id="NYheWyNIlXqnN4zP6Oqd-97" value="" style="edgeStyle=entityRelationEdgeStyle;fontSize=12;html=1;endArrow=ERoneToMany;rounded=0;startSize=8;endSize=8;jumpStyle=none;shadow=0;" edge="1" parent="1" source="H5C_QRacnQs3EDhZYAMX-6" target="NYheWyNIlXqnN4zP6Oqd-88">
          <mxGeometry width="100" height="100" relative="1" as="geometry">
            <mxPoint x="790" y="275" as="sourcePoint" />
            <mxPoint x="650" y="305" as="targetPoint" />
          </mxGeometry>
        </mxCell>
        <mxCell id="NYheWyNIlXqnN4zP6Oqd-98" value="" style="edgeStyle=entityRelationEdgeStyle;fontSize=12;html=1;endArrow=ERmandOne;startArrow=ERmandOne;rounded=0;startSize=8;endSize=8;" edge="1" parent="1" source="NYheWyNIlXqnN4zP6Oqd-27" target="NYheWyNIlXqnN4zP6Oqd-52">
          <mxGeometry width="100" height="100" relative="1" as="geometry">
            <mxPoint x="170" y="910" as="sourcePoint" />
            <mxPoint x="310" y="780" as="targetPoint" />
          </mxGeometry>
        </mxCell>
        <mxCell id="NYheWyNIlXqnN4zP6Oqd-99" value="Project" style="shape=table;startSize=30;container=1;collapsible=1;childLayout=tableLayout;fixedRows=1;rowLines=0;fontStyle=1;align=center;resizeLast=1;html=1;whiteSpace=wrap;fontSize=16;" vertex="1" parent="1">
          <mxGeometry x="-90" y="-360" width="290" height="510" as="geometry">
            <mxRectangle x="-90" y="-360" width="90" height="30" as="alternateBounds" />
          </mxGeometry>
        </mxCell>
        <mxCell id="NYheWyNIlXqnN4zP6Oqd-100" value="" style="shape=tableRow;horizontal=0;startSize=0;swimlaneHead=0;swimlaneBody=0;fillColor=none;collapsible=0;dropTarget=0;points=[[0,0.5],[1,0.5]];portConstraint=eastwest;top=0;left=0;right=0;bottom=0;html=1;fontSize=16;" vertex="1" parent="NYheWyNIlXqnN4zP6Oqd-99">
          <mxGeometry y="30" width="290" height="30" as="geometry" />
        </mxCell>
        <mxCell id="NYheWyNIlXqnN4zP6Oqd-101" value="PK, uuid" style="shape=partialRectangle;connectable=0;fillColor=none;top=0;left=0;bottom=0;right=0;fontStyle=1;overflow=hidden;html=1;whiteSpace=wrap;fontSize=16;" vertex="1" parent="NYheWyNIlXqnN4zP6Oqd-100">
          <mxGeometry width="100" height="30" as="geometry">
            <mxRectangle width="100" height="30" as="alternateBounds" />
          </mxGeometry>
        </mxCell>
        <mxCell id="NYheWyNIlXqnN4zP6Oqd-102" value="Id" style="shape=partialRectangle;connectable=0;fillColor=none;top=0;left=0;bottom=0;right=0;align=left;spacingLeft=6;fontStyle=5;overflow=hidden;html=1;whiteSpace=wrap;fontSize=16;" vertex="1" parent="NYheWyNIlXqnN4zP6Oqd-100">
          <mxGeometry x="100" width="190" height="30" as="geometry">
            <mxRectangle width="190" height="30" as="alternateBounds" />
          </mxGeometry>
        </mxCell>
        <mxCell id="NYheWyNIlXqnN4zP6Oqd-114" value="" style="shape=tableRow;horizontal=0;startSize=0;swimlaneHead=0;swimlaneBody=0;fillColor=none;collapsible=0;dropTarget=0;points=[[0,0.5],[1,0.5]];portConstraint=eastwest;top=0;left=0;right=0;bottom=0;fontSize=16;" vertex="1" parent="NYheWyNIlXqnN4zP6Oqd-99">
          <mxGeometry y="60" width="290" height="30" as="geometry" />
        </mxCell>
        <mxCell id="NYheWyNIlXqnN4zP6Oqd-115" value="FK" style="shape=partialRectangle;connectable=0;fillColor=none;top=0;left=0;bottom=0;right=0;editable=1;overflow=hidden;fontSize=16;" vertex="1" parent="NYheWyNIlXqnN4zP6Oqd-114">
          <mxGeometry width="100" height="30" as="geometry">
            <mxRectangle width="100" height="30" as="alternateBounds" />
          </mxGeometry>
        </mxCell>
        <mxCell id="NYheWyNIlXqnN4zP6Oqd-116" value="clientId" style="shape=partialRectangle;connectable=0;fillColor=none;top=0;left=0;bottom=0;right=0;align=left;spacingLeft=6;overflow=hidden;fontSize=16;" vertex="1" parent="NYheWyNIlXqnN4zP6Oqd-114">
          <mxGeometry x="100" width="190" height="30" as="geometry">
            <mxRectangle width="190" height="30" as="alternateBounds" />
          </mxGeometry>
        </mxCell>
        <mxCell id="NYheWyNIlXqnN4zP6Oqd-163" value="" style="shape=tableRow;horizontal=0;startSize=0;swimlaneHead=0;swimlaneBody=0;fillColor=none;collapsible=0;dropTarget=0;points=[[0,0.5],[1,0.5]];portConstraint=eastwest;top=0;left=0;right=0;bottom=0;fontSize=16;" vertex="1" parent="NYheWyNIlXqnN4zP6Oqd-99">
          <mxGeometry y="90" width="290" height="30" as="geometry" />
        </mxCell>
        <mxCell id="NYheWyNIlXqnN4zP6Oqd-164" value="FK" style="shape=partialRectangle;connectable=0;fillColor=none;top=0;left=0;bottom=0;right=0;editable=1;overflow=hidden;fontSize=16;" vertex="1" parent="NYheWyNIlXqnN4zP6Oqd-163">
          <mxGeometry width="100" height="30" as="geometry">
            <mxRectangle width="100" height="30" as="alternateBounds" />
          </mxGeometry>
        </mxCell>
        <mxCell id="NYheWyNIlXqnN4zP6Oqd-165" value="compayId" style="shape=partialRectangle;connectable=0;fillColor=none;top=0;left=0;bottom=0;right=0;align=left;spacingLeft=6;overflow=hidden;fontSize=16;" vertex="1" parent="NYheWyNIlXqnN4zP6Oqd-163">
          <mxGeometry x="100" width="190" height="30" as="geometry">
            <mxRectangle width="190" height="30" as="alternateBounds" />
          </mxGeometry>
        </mxCell>
        <mxCell id="NYheWyNIlXqnN4zP6Oqd-160" value="" style="shape=tableRow;horizontal=0;startSize=0;swimlaneHead=0;swimlaneBody=0;fillColor=none;collapsible=0;dropTarget=0;points=[[0,0.5],[1,0.5]];portConstraint=eastwest;top=0;left=0;right=0;bottom=0;fontSize=16;" vertex="1" parent="NYheWyNIlXqnN4zP6Oqd-99">
          <mxGeometry y="120" width="290" height="30" as="geometry" />
        </mxCell>
        <mxCell id="NYheWyNIlXqnN4zP6Oqd-161" value="string" style="shape=partialRectangle;connectable=0;fillColor=none;top=0;left=0;bottom=0;right=0;editable=1;overflow=hidden;fontSize=16;" vertex="1" parent="NYheWyNIlXqnN4zP6Oqd-160">
          <mxGeometry width="100" height="30" as="geometry">
            <mxRectangle width="100" height="30" as="alternateBounds" />
          </mxGeometry>
        </mxCell>
        <mxCell id="NYheWyNIlXqnN4zP6Oqd-162" value="name" style="shape=partialRectangle;connectable=0;fillColor=none;top=0;left=0;bottom=0;right=0;align=left;spacingLeft=6;overflow=hidden;fontSize=16;" vertex="1" parent="NYheWyNIlXqnN4zP6Oqd-160">
          <mxGeometry x="100" width="190" height="30" as="geometry">
            <mxRectangle width="190" height="30" as="alternateBounds" />
          </mxGeometry>
        </mxCell>
        <mxCell id="NYheWyNIlXqnN4zP6Oqd-171" value="" style="shape=tableRow;horizontal=0;startSize=0;swimlaneHead=0;swimlaneBody=0;fillColor=none;collapsible=0;dropTarget=0;points=[[0,0.5],[1,0.5]];portConstraint=eastwest;top=0;left=0;right=0;bottom=0;html=1;fontSize=16;" vertex="1" parent="NYheWyNIlXqnN4zP6Oqd-99">
          <mxGeometry y="150" width="290" height="30" as="geometry" />
        </mxCell>
        <mxCell id="NYheWyNIlXqnN4zP6Oqd-172" value="string" style="shape=partialRectangle;connectable=0;fillColor=none;top=0;left=0;bottom=0;right=0;editable=1;overflow=hidden;html=1;whiteSpace=wrap;fontSize=16;" vertex="1" parent="NYheWyNIlXqnN4zP6Oqd-171">
          <mxGeometry width="100" height="30" as="geometry">
            <mxRectangle width="100" height="30" as="alternateBounds" />
          </mxGeometry>
        </mxCell>
        <mxCell id="NYheWyNIlXqnN4zP6Oqd-173" value="description" style="shape=partialRectangle;connectable=0;fillColor=none;top=0;left=0;bottom=0;right=0;align=left;spacingLeft=6;overflow=hidden;html=1;whiteSpace=wrap;fontSize=16;" vertex="1" parent="NYheWyNIlXqnN4zP6Oqd-171">
          <mxGeometry x="100" width="190" height="30" as="geometry">
            <mxRectangle width="190" height="30" as="alternateBounds" />
          </mxGeometry>
        </mxCell>
        <mxCell id="NYheWyNIlXqnN4zP6Oqd-148" value="" style="shape=tableRow;horizontal=0;startSize=0;swimlaneHead=0;swimlaneBody=0;fillColor=none;collapsible=0;dropTarget=0;points=[[0,0.5],[1,0.5]];portConstraint=eastwest;top=0;left=0;right=0;bottom=0;fontSize=16;" vertex="1" parent="NYheWyNIlXqnN4zP6Oqd-99">
          <mxGeometry y="180" width="290" height="30" as="geometry" />
        </mxCell>
        <mxCell id="NYheWyNIlXqnN4zP6Oqd-149" value="string" style="shape=partialRectangle;connectable=0;fillColor=none;top=0;left=0;bottom=0;right=0;editable=1;overflow=hidden;fontSize=16;" vertex="1" parent="NYheWyNIlXqnN4zP6Oqd-148">
          <mxGeometry width="100" height="30" as="geometry">
            <mxRectangle width="100" height="30" as="alternateBounds" />
          </mxGeometry>
        </mxCell>
        <mxCell id="NYheWyNIlXqnN4zP6Oqd-150" value="purchageOrderNumber" style="shape=partialRectangle;connectable=0;fillColor=none;top=0;left=0;bottom=0;right=0;align=left;spacingLeft=6;overflow=hidden;fontSize=16;" vertex="1" parent="NYheWyNIlXqnN4zP6Oqd-148">
          <mxGeometry x="100" width="190" height="30" as="geometry">
            <mxRectangle width="190" height="30" as="alternateBounds" />
          </mxGeometry>
        </mxCell>
        <mxCell id="NYheWyNIlXqnN4zP6Oqd-142" value="" style="shape=tableRow;horizontal=0;startSize=0;swimlaneHead=0;swimlaneBody=0;fillColor=none;collapsible=0;dropTarget=0;points=[[0,0.5],[1,0.5]];portConstraint=eastwest;top=0;left=0;right=0;bottom=0;fontSize=16;" vertex="1" parent="NYheWyNIlXqnN4zP6Oqd-99">
          <mxGeometry y="210" width="290" height="30" as="geometry" />
        </mxCell>
        <mxCell id="NYheWyNIlXqnN4zP6Oqd-143" value="double" style="shape=partialRectangle;connectable=0;fillColor=none;top=0;left=0;bottom=0;right=0;editable=1;overflow=hidden;fontSize=16;" vertex="1" parent="NYheWyNIlXqnN4zP6Oqd-142">
          <mxGeometry width="100" height="30" as="geometry">
            <mxRectangle width="100" height="30" as="alternateBounds" />
          </mxGeometry>
        </mxCell>
        <mxCell id="NYheWyNIlXqnN4zP6Oqd-144" value="ttc" style="shape=partialRectangle;connectable=0;fillColor=none;top=0;left=0;bottom=0;right=0;align=left;spacingLeft=6;overflow=hidden;fontSize=16;" vertex="1" parent="NYheWyNIlXqnN4zP6Oqd-142">
          <mxGeometry x="100" width="190" height="30" as="geometry">
            <mxRectangle width="190" height="30" as="alternateBounds" />
          </mxGeometry>
        </mxCell>
        <mxCell id="NYheWyNIlXqnN4zP6Oqd-139" value="" style="shape=tableRow;horizontal=0;startSize=0;swimlaneHead=0;swimlaneBody=0;fillColor=none;collapsible=0;dropTarget=0;points=[[0,0.5],[1,0.5]];portConstraint=eastwest;top=0;left=0;right=0;bottom=0;fontSize=16;" vertex="1" parent="NYheWyNIlXqnN4zP6Oqd-99">
          <mxGeometry y="240" width="290" height="30" as="geometry" />
        </mxCell>
        <mxCell id="NYheWyNIlXqnN4zP6Oqd-140" value="double" style="shape=partialRectangle;connectable=0;fillColor=none;top=0;left=0;bottom=0;right=0;editable=1;overflow=hidden;fontSize=16;" vertex="1" parent="NYheWyNIlXqnN4zP6Oqd-139">
          <mxGeometry width="100" height="30" as="geometry">
            <mxRectangle width="100" height="30" as="alternateBounds" />
          </mxGeometry>
        </mxCell>
        <mxCell id="NYheWyNIlXqnN4zP6Oqd-141" value="tva" style="shape=partialRectangle;connectable=0;fillColor=none;top=0;left=0;bottom=0;right=0;align=left;spacingLeft=6;overflow=hidden;fontSize=16;" vertex="1" parent="NYheWyNIlXqnN4zP6Oqd-139">
          <mxGeometry x="100" width="190" height="30" as="geometry">
            <mxRectangle width="190" height="30" as="alternateBounds" />
          </mxGeometry>
        </mxCell>
        <mxCell id="NYheWyNIlXqnN4zP6Oqd-136" value="" style="shape=tableRow;horizontal=0;startSize=0;swimlaneHead=0;swimlaneBody=0;fillColor=none;collapsible=0;dropTarget=0;points=[[0,0.5],[1,0.5]];portConstraint=eastwest;top=0;left=0;right=0;bottom=0;fontSize=16;" vertex="1" parent="NYheWyNIlXqnN4zP6Oqd-99">
          <mxGeometry y="270" width="290" height="30" as="geometry" />
        </mxCell>
        <mxCell id="NYheWyNIlXqnN4zP6Oqd-137" value="double" style="shape=partialRectangle;connectable=0;fillColor=none;top=0;left=0;bottom=0;right=0;editable=1;overflow=hidden;fontSize=16;" vertex="1" parent="NYheWyNIlXqnN4zP6Oqd-136">
          <mxGeometry width="100" height="30" as="geometry">
            <mxRectangle width="100" height="30" as="alternateBounds" />
          </mxGeometry>
        </mxCell>
        <mxCell id="NYheWyNIlXqnN4zP6Oqd-138" value="ht" style="shape=partialRectangle;connectable=0;fillColor=none;top=0;left=0;bottom=0;right=0;align=left;spacingLeft=6;overflow=hidden;fontSize=16;" vertex="1" parent="NYheWyNIlXqnN4zP6Oqd-136">
          <mxGeometry x="100" width="190" height="30" as="geometry">
            <mxRectangle width="190" height="30" as="alternateBounds" />
          </mxGeometry>
        </mxCell>
        <mxCell id="NYheWyNIlXqnN4zP6Oqd-145" value="" style="shape=tableRow;horizontal=0;startSize=0;swimlaneHead=0;swimlaneBody=0;fillColor=none;collapsible=0;dropTarget=0;points=[[0,0.5],[1,0.5]];portConstraint=eastwest;top=0;left=0;right=0;bottom=0;fontSize=16;" vertex="1" parent="NYheWyNIlXqnN4zP6Oqd-99">
          <mxGeometry y="300" width="290" height="30" as="geometry" />
        </mxCell>
        <mxCell id="NYheWyNIlXqnN4zP6Oqd-146" value="double" style="shape=partialRectangle;connectable=0;fillColor=none;top=0;left=0;bottom=0;right=0;editable=1;overflow=hidden;fontSize=16;" vertex="1" parent="NYheWyNIlXqnN4zP6Oqd-145">
          <mxGeometry width="100" height="30" as="geometry">
            <mxRectangle width="100" height="30" as="alternateBounds" />
          </mxGeometry>
        </mxCell>
        <mxCell id="NYheWyNIlXqnN4zP6Oqd-147" value="budget" style="shape=partialRectangle;connectable=0;fillColor=none;top=0;left=0;bottom=0;right=0;align=left;spacingLeft=6;overflow=hidden;fontSize=16;" vertex="1" parent="NYheWyNIlXqnN4zP6Oqd-145">
          <mxGeometry x="100" width="190" height="30" as="geometry">
            <mxRectangle width="190" height="30" as="alternateBounds" />
          </mxGeometry>
        </mxCell>
        <mxCell id="NYheWyNIlXqnN4zP6Oqd-151" value="" style="shape=tableRow;horizontal=0;startSize=0;swimlaneHead=0;swimlaneBody=0;fillColor=none;collapsible=0;dropTarget=0;points=[[0,0.5],[1,0.5]];portConstraint=eastwest;top=0;left=0;right=0;bottom=0;fontSize=16;" vertex="1" parent="NYheWyNIlXqnN4zP6Oqd-99">
          <mxGeometry y="330" width="290" height="30" as="geometry" />
        </mxCell>
        <mxCell id="NYheWyNIlXqnN4zP6Oqd-152" value="double" style="shape=partialRectangle;connectable=0;fillColor=none;top=0;left=0;bottom=0;right=0;editable=1;overflow=hidden;fontSize=16;" vertex="1" parent="NYheWyNIlXqnN4zP6Oqd-151">
          <mxGeometry width="100" height="30" as="geometry">
            <mxRectangle width="100" height="30" as="alternateBounds" />
          </mxGeometry>
        </mxCell>
        <mxCell id="NYheWyNIlXqnN4zP6Oqd-153" value="estimatedCost" style="shape=partialRectangle;connectable=0;fillColor=none;top=0;left=0;bottom=0;right=0;align=left;spacingLeft=6;overflow=hidden;fontSize=16;" vertex="1" parent="NYheWyNIlXqnN4zP6Oqd-151">
          <mxGeometry x="100" width="190" height="30" as="geometry">
            <mxRectangle width="190" height="30" as="alternateBounds" />
          </mxGeometry>
        </mxCell>
        <mxCell id="NYheWyNIlXqnN4zP6Oqd-167" value="" style="shape=tableRow;horizontal=0;startSize=0;swimlaneHead=0;swimlaneBody=0;fillColor=none;collapsible=0;dropTarget=0;points=[[0,0.5],[1,0.5]];portConstraint=eastwest;top=0;left=0;right=0;bottom=0;html=1;fontSize=16;" vertex="1" parent="NYheWyNIlXqnN4zP6Oqd-99">
          <mxGeometry y="360" width="290" height="30" as="geometry" />
        </mxCell>
        <mxCell id="NYheWyNIlXqnN4zP6Oqd-168" value="string" style="shape=partialRectangle;connectable=0;fillColor=none;top=0;left=0;bottom=0;right=0;editable=1;overflow=hidden;html=1;whiteSpace=wrap;fontSize=16;" vertex="1" parent="NYheWyNIlXqnN4zP6Oqd-167">
          <mxGeometry width="100" height="30" as="geometry">
            <mxRectangle width="100" height="30" as="alternateBounds" />
          </mxGeometry>
        </mxCell>
        <mxCell id="NYheWyNIlXqnN4zP6Oqd-169" value="account" style="shape=partialRectangle;connectable=0;fillColor=none;top=0;left=0;bottom=0;right=0;align=left;spacingLeft=6;overflow=hidden;html=1;whiteSpace=wrap;fontSize=16;" vertex="1" parent="NYheWyNIlXqnN4zP6Oqd-167">
          <mxGeometry x="100" width="190" height="30" as="geometry">
            <mxRectangle width="190" height="30" as="alternateBounds" />
          </mxGeometry>
        </mxCell>
        <mxCell id="NYheWyNIlXqnN4zP6Oqd-154" value="" style="shape=tableRow;horizontal=0;startSize=0;swimlaneHead=0;swimlaneBody=0;fillColor=none;collapsible=0;dropTarget=0;points=[[0,0.5],[1,0.5]];portConstraint=eastwest;top=0;left=0;right=0;bottom=0;fontSize=16;" vertex="1" parent="NYheWyNIlXqnN4zP6Oqd-99">
          <mxGeometry y="390" width="290" height="30" as="geometry" />
        </mxCell>
        <mxCell id="NYheWyNIlXqnN4zP6Oqd-155" value="int" style="shape=partialRectangle;connectable=0;fillColor=none;top=0;left=0;bottom=0;right=0;editable=1;overflow=hidden;fontSize=16;" vertex="1" parent="NYheWyNIlXqnN4zP6Oqd-154">
          <mxGeometry width="100" height="30" as="geometry">
            <mxRectangle width="100" height="30" as="alternateBounds" />
          </mxGeometry>
        </mxCell>
        <mxCell id="NYheWyNIlXqnN4zP6Oqd-156" value="status" style="shape=partialRectangle;connectable=0;fillColor=none;top=0;left=0;bottom=0;right=0;align=left;spacingLeft=6;overflow=hidden;fontSize=16;" vertex="1" parent="NYheWyNIlXqnN4zP6Oqd-154">
          <mxGeometry x="100" width="190" height="30" as="geometry">
            <mxRectangle width="190" height="30" as="alternateBounds" />
          </mxGeometry>
        </mxCell>
        <mxCell id="NYheWyNIlXqnN4zP6Oqd-157" value="" style="shape=tableRow;horizontal=0;startSize=0;swimlaneHead=0;swimlaneBody=0;fillColor=none;collapsible=0;dropTarget=0;points=[[0,0.5],[1,0.5]];portConstraint=eastwest;top=0;left=0;right=0;bottom=0;html=1;fontSize=16;" vertex="1" parent="NYheWyNIlXqnN4zP6Oqd-99">
          <mxGeometry y="420" width="290" height="30" as="geometry" />
        </mxCell>
        <mxCell id="NYheWyNIlXqnN4zP6Oqd-158" value="bool" style="shape=partialRectangle;connectable=0;fillColor=none;top=0;left=0;bottom=0;right=0;editable=1;overflow=hidden;html=1;whiteSpace=wrap;fontSize=16;" vertex="1" parent="NYheWyNIlXqnN4zP6Oqd-157">
          <mxGeometry width="100" height="30" as="geometry">
            <mxRectangle width="100" height="30" as="alternateBounds" />
          </mxGeometry>
        </mxCell>
        <mxCell id="NYheWyNIlXqnN4zP6Oqd-159" value="deleted" style="shape=partialRectangle;connectable=0;fillColor=none;top=0;left=0;bottom=0;right=0;align=left;spacingLeft=6;overflow=hidden;html=1;whiteSpace=wrap;fontSize=16;" vertex="1" parent="NYheWyNIlXqnN4zP6Oqd-157">
          <mxGeometry x="100" width="190" height="30" as="geometry">
            <mxRectangle width="190" height="30" as="alternateBounds" />
          </mxGeometry>
        </mxCell>
        <mxCell id="NYheWyNIlXqnN4zP6Oqd-174" value="" style="shape=tableRow;horizontal=0;startSize=0;swimlaneHead=0;swimlaneBody=0;fillColor=none;collapsible=0;dropTarget=0;points=[[0,0.5],[1,0.5]];portConstraint=eastwest;top=0;left=0;right=0;bottom=0;fontSize=16;" vertex="1" parent="NYheWyNIlXqnN4zP6Oqd-99">
          <mxGeometry y="450" width="290" height="30" as="geometry" />
        </mxCell>
        <mxCell id="NYheWyNIlXqnN4zP6Oqd-175" value="datetime" style="shape=partialRectangle;connectable=0;fillColor=none;top=0;left=0;bottom=0;right=0;editable=1;overflow=hidden;fontSize=16;" vertex="1" parent="NYheWyNIlXqnN4zP6Oqd-174">
          <mxGeometry width="100" height="30" as="geometry">
            <mxRectangle width="100" height="30" as="alternateBounds" />
          </mxGeometry>
        </mxCell>
        <mxCell id="NYheWyNIlXqnN4zP6Oqd-176" value="created" style="shape=partialRectangle;connectable=0;fillColor=none;top=0;left=0;bottom=0;right=0;align=left;spacingLeft=6;overflow=hidden;fontSize=16;" vertex="1" parent="NYheWyNIlXqnN4zP6Oqd-174">
          <mxGeometry x="100" width="190" height="30" as="geometry">
            <mxRectangle width="190" height="30" as="alternateBounds" />
          </mxGeometry>
        </mxCell>
        <mxCell id="NYheWyNIlXqnN4zP6Oqd-177" value="" style="shape=tableRow;horizontal=0;startSize=0;swimlaneHead=0;swimlaneBody=0;fillColor=none;collapsible=0;dropTarget=0;points=[[0,0.5],[1,0.5]];portConstraint=eastwest;top=0;left=0;right=0;bottom=0;fontSize=16;" vertex="1" parent="NYheWyNIlXqnN4zP6Oqd-99">
          <mxGeometry y="480" width="290" height="30" as="geometry" />
        </mxCell>
        <mxCell id="NYheWyNIlXqnN4zP6Oqd-178" value="datetime" style="shape=partialRectangle;connectable=0;fillColor=none;top=0;left=0;bottom=0;right=0;editable=1;overflow=hidden;fontSize=16;" vertex="1" parent="NYheWyNIlXqnN4zP6Oqd-177">
          <mxGeometry width="100" height="30" as="geometry">
            <mxRectangle width="100" height="30" as="alternateBounds" />
          </mxGeometry>
        </mxCell>
        <mxCell id="NYheWyNIlXqnN4zP6Oqd-179" value="updated" style="shape=partialRectangle;connectable=0;fillColor=none;top=0;left=0;bottom=0;right=0;align=left;spacingLeft=6;overflow=hidden;fontSize=16;" vertex="1" parent="NYheWyNIlXqnN4zP6Oqd-177">
          <mxGeometry x="100" width="190" height="30" as="geometry">
            <mxRectangle width="190" height="30" as="alternateBounds" />
          </mxGeometry>
        </mxCell>
        <mxCell id="NYheWyNIlXqnN4zP6Oqd-103" value="BudgetRevision" style="shape=table;startSize=30;container=1;collapsible=1;childLayout=tableLayout;fixedRows=1;rowLines=0;fontStyle=1;align=center;resizeLast=1;html=1;whiteSpace=wrap;fontSize=16;" vertex="1" parent="1">
          <mxGeometry x="-70" y="-720" width="290" height="240" as="geometry" />
        </mxCell>
        <mxCell id="NYheWyNIlXqnN4zP6Oqd-104" value="" style="shape=tableRow;horizontal=0;startSize=0;swimlaneHead=0;swimlaneBody=0;fillColor=none;collapsible=0;dropTarget=0;points=[[0,0.5],[1,0.5]];portConstraint=eastwest;top=0;left=0;right=0;bottom=0;html=1;fontSize=16;" vertex="1" parent="NYheWyNIlXqnN4zP6Oqd-103">
          <mxGeometry y="30" width="290" height="30" as="geometry" />
        </mxCell>
        <mxCell id="NYheWyNIlXqnN4zP6Oqd-105" value="PK, uuid" style="shape=partialRectangle;connectable=0;fillColor=none;top=0;left=0;bottom=0;right=0;fontStyle=1;overflow=hidden;html=1;whiteSpace=wrap;fontSize=16;" vertex="1" parent="NYheWyNIlXqnN4zP6Oqd-104">
          <mxGeometry width="100" height="30" as="geometry">
            <mxRectangle width="100" height="30" as="alternateBounds" />
          </mxGeometry>
        </mxCell>
        <mxCell id="NYheWyNIlXqnN4zP6Oqd-106" value="Id" style="shape=partialRectangle;connectable=0;fillColor=none;top=0;left=0;bottom=0;right=0;align=left;spacingLeft=6;fontStyle=5;overflow=hidden;html=1;whiteSpace=wrap;fontSize=16;" vertex="1" parent="NYheWyNIlXqnN4zP6Oqd-104">
          <mxGeometry x="100" width="190" height="30" as="geometry">
            <mxRectangle width="190" height="30" as="alternateBounds" />
          </mxGeometry>
        </mxCell>
        <mxCell id="NYheWyNIlXqnN4zP6Oqd-110" value="" style="shape=tableRow;horizontal=0;startSize=0;swimlaneHead=0;swimlaneBody=0;fillColor=none;collapsible=0;dropTarget=0;points=[[0,0.5],[1,0.5]];portConstraint=eastwest;top=0;left=0;right=0;bottom=0;fontSize=16;" vertex="1" parent="NYheWyNIlXqnN4zP6Oqd-103">
          <mxGeometry y="60" width="290" height="30" as="geometry" />
        </mxCell>
        <mxCell id="NYheWyNIlXqnN4zP6Oqd-111" value="FK" style="shape=partialRectangle;connectable=0;fillColor=none;top=0;left=0;bottom=0;right=0;editable=1;overflow=hidden;fontSize=16;" vertex="1" parent="NYheWyNIlXqnN4zP6Oqd-110">
          <mxGeometry width="100" height="30" as="geometry">
            <mxRectangle width="100" height="30" as="alternateBounds" />
          </mxGeometry>
        </mxCell>
        <mxCell id="NYheWyNIlXqnN4zP6Oqd-112" value="projectId" style="shape=partialRectangle;connectable=0;fillColor=none;top=0;left=0;bottom=0;right=0;align=left;spacingLeft=6;overflow=hidden;fontSize=16;" vertex="1" parent="NYheWyNIlXqnN4zP6Oqd-110">
          <mxGeometry x="100" width="190" height="30" as="geometry">
            <mxRectangle width="190" height="30" as="alternateBounds" />
          </mxGeometry>
        </mxCell>
        <mxCell id="NYheWyNIlXqnN4zP6Oqd-121" value="" style="shape=tableRow;horizontal=0;startSize=0;swimlaneHead=0;swimlaneBody=0;fillColor=none;collapsible=0;dropTarget=0;points=[[0,0.5],[1,0.5]];portConstraint=eastwest;top=0;left=0;right=0;bottom=0;fontSize=16;" vertex="1" parent="NYheWyNIlXqnN4zP6Oqd-103">
          <mxGeometry y="90" width="290" height="30" as="geometry" />
        </mxCell>
        <mxCell id="NYheWyNIlXqnN4zP6Oqd-122" value="double" style="shape=partialRectangle;connectable=0;fillColor=none;top=0;left=0;bottom=0;right=0;editable=1;overflow=hidden;fontSize=16;" vertex="1" parent="NYheWyNIlXqnN4zP6Oqd-121">
          <mxGeometry width="100" height="30" as="geometry">
            <mxRectangle width="100" height="30" as="alternateBounds" />
          </mxGeometry>
        </mxCell>
        <mxCell id="NYheWyNIlXqnN4zP6Oqd-123" value="ht" style="shape=partialRectangle;connectable=0;fillColor=none;top=0;left=0;bottom=0;right=0;align=left;spacingLeft=6;overflow=hidden;fontSize=16;" vertex="1" parent="NYheWyNIlXqnN4zP6Oqd-121">
          <mxGeometry x="100" width="190" height="30" as="geometry">
            <mxRectangle width="190" height="30" as="alternateBounds" />
          </mxGeometry>
        </mxCell>
        <mxCell id="NYheWyNIlXqnN4zP6Oqd-124" value="" style="shape=tableRow;horizontal=0;startSize=0;swimlaneHead=0;swimlaneBody=0;fillColor=none;collapsible=0;dropTarget=0;points=[[0,0.5],[1,0.5]];portConstraint=eastwest;top=0;left=0;right=0;bottom=0;fontSize=16;" vertex="1" parent="NYheWyNIlXqnN4zP6Oqd-103">
          <mxGeometry y="120" width="290" height="30" as="geometry" />
        </mxCell>
        <mxCell id="NYheWyNIlXqnN4zP6Oqd-125" value="double" style="shape=partialRectangle;connectable=0;fillColor=none;top=0;left=0;bottom=0;right=0;editable=1;overflow=hidden;fontSize=16;" vertex="1" parent="NYheWyNIlXqnN4zP6Oqd-124">
          <mxGeometry width="100" height="30" as="geometry">
            <mxRectangle width="100" height="30" as="alternateBounds" />
          </mxGeometry>
        </mxCell>
        <mxCell id="NYheWyNIlXqnN4zP6Oqd-126" value="tva" style="shape=partialRectangle;connectable=0;fillColor=none;top=0;left=0;bottom=0;right=0;align=left;spacingLeft=6;overflow=hidden;fontSize=16;" vertex="1" parent="NYheWyNIlXqnN4zP6Oqd-124">
          <mxGeometry x="100" width="190" height="30" as="geometry">
            <mxRectangle width="190" height="30" as="alternateBounds" />
          </mxGeometry>
        </mxCell>
        <mxCell id="NYheWyNIlXqnN4zP6Oqd-127" value="" style="shape=tableRow;horizontal=0;startSize=0;swimlaneHead=0;swimlaneBody=0;fillColor=none;collapsible=0;dropTarget=0;points=[[0,0.5],[1,0.5]];portConstraint=eastwest;top=0;left=0;right=0;bottom=0;fontSize=16;" vertex="1" parent="NYheWyNIlXqnN4zP6Oqd-103">
          <mxGeometry y="150" width="290" height="30" as="geometry" />
        </mxCell>
        <mxCell id="NYheWyNIlXqnN4zP6Oqd-128" value="double" style="shape=partialRectangle;connectable=0;fillColor=none;top=0;left=0;bottom=0;right=0;editable=1;overflow=hidden;fontSize=16;" vertex="1" parent="NYheWyNIlXqnN4zP6Oqd-127">
          <mxGeometry width="100" height="30" as="geometry">
            <mxRectangle width="100" height="30" as="alternateBounds" />
          </mxGeometry>
        </mxCell>
        <mxCell id="NYheWyNIlXqnN4zP6Oqd-129" value="ttc" style="shape=partialRectangle;connectable=0;fillColor=none;top=0;left=0;bottom=0;right=0;align=left;spacingLeft=6;overflow=hidden;fontSize=16;" vertex="1" parent="NYheWyNIlXqnN4zP6Oqd-127">
          <mxGeometry x="100" width="190" height="30" as="geometry">
            <mxRectangle width="190" height="30" as="alternateBounds" />
          </mxGeometry>
        </mxCell>
        <mxCell id="NYheWyNIlXqnN4zP6Oqd-130" value="" style="shape=tableRow;horizontal=0;startSize=0;swimlaneHead=0;swimlaneBody=0;fillColor=none;collapsible=0;dropTarget=0;points=[[0,0.5],[1,0.5]];portConstraint=eastwest;top=0;left=0;right=0;bottom=0;fontSize=16;" vertex="1" parent="NYheWyNIlXqnN4zP6Oqd-103">
          <mxGeometry y="180" width="290" height="30" as="geometry" />
        </mxCell>
        <mxCell id="NYheWyNIlXqnN4zP6Oqd-131" value="datetime" style="shape=partialRectangle;connectable=0;fillColor=none;top=0;left=0;bottom=0;right=0;editable=1;overflow=hidden;fontSize=16;" vertex="1" parent="NYheWyNIlXqnN4zP6Oqd-130">
          <mxGeometry width="100" height="30" as="geometry">
            <mxRectangle width="100" height="30" as="alternateBounds" />
          </mxGeometry>
        </mxCell>
        <mxCell id="NYheWyNIlXqnN4zP6Oqd-132" value="created" style="shape=partialRectangle;connectable=0;fillColor=none;top=0;left=0;bottom=0;right=0;align=left;spacingLeft=6;overflow=hidden;fontSize=16;" vertex="1" parent="NYheWyNIlXqnN4zP6Oqd-130">
          <mxGeometry x="100" width="190" height="30" as="geometry">
            <mxRectangle width="190" height="30" as="alternateBounds" />
          </mxGeometry>
        </mxCell>
        <mxCell id="NYheWyNIlXqnN4zP6Oqd-133" value="" style="shape=tableRow;horizontal=0;startSize=0;swimlaneHead=0;swimlaneBody=0;fillColor=none;collapsible=0;dropTarget=0;points=[[0,0.5],[1,0.5]];portConstraint=eastwest;top=0;left=0;right=0;bottom=0;fontSize=16;" vertex="1" parent="NYheWyNIlXqnN4zP6Oqd-103">
          <mxGeometry y="210" width="290" height="30" as="geometry" />
        </mxCell>
        <mxCell id="NYheWyNIlXqnN4zP6Oqd-134" value="datetime" style="shape=partialRectangle;connectable=0;fillColor=none;top=0;left=0;bottom=0;right=0;editable=1;overflow=hidden;fontSize=16;" vertex="1" parent="NYheWyNIlXqnN4zP6Oqd-133">
          <mxGeometry width="100" height="30" as="geometry">
            <mxRectangle width="100" height="30" as="alternateBounds" />
          </mxGeometry>
        </mxCell>
        <mxCell id="NYheWyNIlXqnN4zP6Oqd-135" value="updated" style="shape=partialRectangle;connectable=0;fillColor=none;top=0;left=0;bottom=0;right=0;align=left;spacingLeft=6;overflow=hidden;fontSize=16;" vertex="1" parent="NYheWyNIlXqnN4zP6Oqd-133">
          <mxGeometry x="100" width="190" height="30" as="geometry">
            <mxRectangle width="190" height="30" as="alternateBounds" />
          </mxGeometry>
        </mxCell>
        <mxCell id="NYheWyNIlXqnN4zP6Oqd-113" value="" style="edgeStyle=entityRelationEdgeStyle;fontSize=12;html=1;endArrow=ERmany;rounded=0;startSize=8;endSize=8;" edge="1" parent="1" source="NYheWyNIlXqnN4zP6Oqd-100" target="NYheWyNIlXqnN4zP6Oqd-110">
          <mxGeometry width="100" height="100" relative="1" as="geometry">
            <mxPoint x="-310" y="-300" as="sourcePoint" />
            <mxPoint x="-210" y="-400" as="targetPoint" />
          </mxGeometry>
        </mxCell>
        <mxCell id="NYheWyNIlXqnN4zP6Oqd-117" value="" style="edgeStyle=entityRelationEdgeStyle;fontSize=12;html=1;endArrow=ERmany;rounded=0;startSize=8;endSize=8;" edge="1" parent="1" source="NYheWyNIlXqnN4zP6Oqd-2" target="NYheWyNIlXqnN4zP6Oqd-114">
          <mxGeometry width="100" height="100" relative="1" as="geometry">
            <mxPoint x="230" y="-305" as="sourcePoint" />
            <mxPoint x="230" y="-515" as="targetPoint" />
          </mxGeometry>
        </mxCell>
        <mxCell id="NYheWyNIlXqnN4zP6Oqd-166" value="" style="edgeStyle=entityRelationEdgeStyle;fontSize=12;html=1;endArrow=ERmany;rounded=0;startSize=8;endSize=8;" edge="1" parent="1" source="H5C_QRacnQs3EDhZYAMX-6" target="NYheWyNIlXqnN4zP6Oqd-163">
          <mxGeometry width="100" height="100" relative="1" as="geometry">
            <mxPoint x="-140" y="-85" as="sourcePoint" />
            <mxPoint x="-80" y="-275" as="targetPoint" />
          </mxGeometry>
        </mxCell>
        <mxCell id="NYheWyNIlXqnN4zP6Oqd-180" value="VatRate" style="shape=table;startSize=30;container=1;collapsible=1;childLayout=tableLayout;fixedRows=1;rowLines=0;fontStyle=1;align=center;resizeLast=1;html=1;whiteSpace=wrap;fontSize=16;" vertex="1" parent="1">
          <mxGeometry x="-760" y="-880" width="290" height="150" as="geometry" />
        </mxCell>
        <mxCell id="NYheWyNIlXqnN4zP6Oqd-181" value="" style="shape=tableRow;horizontal=0;startSize=0;swimlaneHead=0;swimlaneBody=0;fillColor=none;collapsible=0;dropTarget=0;points=[[0,0.5],[1,0.5]];portConstraint=eastwest;top=0;left=0;right=0;bottom=0;html=1;fontSize=16;" vertex="1" parent="NYheWyNIlXqnN4zP6Oqd-180">
          <mxGeometry y="30" width="290" height="30" as="geometry" />
        </mxCell>
        <mxCell id="NYheWyNIlXqnN4zP6Oqd-182" value="PK, uuid" style="shape=partialRectangle;connectable=0;fillColor=none;top=0;left=0;bottom=0;right=0;fontStyle=1;overflow=hidden;html=1;whiteSpace=wrap;fontSize=16;" vertex="1" parent="NYheWyNIlXqnN4zP6Oqd-181">
          <mxGeometry width="100" height="30" as="geometry">
            <mxRectangle width="100" height="30" as="alternateBounds" />
          </mxGeometry>
        </mxCell>
        <mxCell id="NYheWyNIlXqnN4zP6Oqd-183" value="Id" style="shape=partialRectangle;connectable=0;fillColor=none;top=0;left=0;bottom=0;right=0;align=left;spacingLeft=6;fontStyle=5;overflow=hidden;html=1;whiteSpace=wrap;fontSize=16;" vertex="1" parent="NYheWyNIlXqnN4zP6Oqd-181">
          <mxGeometry x="100" width="190" height="30" as="geometry">
            <mxRectangle width="190" height="30" as="alternateBounds" />
          </mxGeometry>
        </mxCell>
        <mxCell id="NYheWyNIlXqnN4zP6Oqd-184" value="" style="shape=tableRow;horizontal=0;startSize=0;swimlaneHead=0;swimlaneBody=0;fillColor=none;collapsible=0;dropTarget=0;points=[[0,0.5],[1,0.5]];portConstraint=eastwest;top=0;left=0;right=0;bottom=0;fontSize=16;" vertex="1" parent="NYheWyNIlXqnN4zP6Oqd-180">
          <mxGeometry y="60" width="290" height="30" as="geometry" />
        </mxCell>
        <mxCell id="NYheWyNIlXqnN4zP6Oqd-185" value="string" style="shape=partialRectangle;connectable=0;fillColor=none;top=0;left=0;bottom=0;right=0;editable=1;overflow=hidden;fontSize=16;" vertex="1" parent="NYheWyNIlXqnN4zP6Oqd-184">
          <mxGeometry width="100" height="30" as="geometry">
            <mxRectangle width="100" height="30" as="alternateBounds" />
          </mxGeometry>
        </mxCell>
        <mxCell id="NYheWyNIlXqnN4zP6Oqd-186" value="display" style="shape=partialRectangle;connectable=0;fillColor=none;top=0;left=0;bottom=0;right=0;align=left;spacingLeft=6;overflow=hidden;fontSize=16;" vertex="1" parent="NYheWyNIlXqnN4zP6Oqd-184">
          <mxGeometry x="100" width="190" height="30" as="geometry">
            <mxRectangle width="190" height="30" as="alternateBounds" />
          </mxGeometry>
        </mxCell>
        <mxCell id="NYheWyNIlXqnN4zP6Oqd-187" value="" style="shape=tableRow;horizontal=0;startSize=0;swimlaneHead=0;swimlaneBody=0;fillColor=none;collapsible=0;dropTarget=0;points=[[0,0.5],[1,0.5]];portConstraint=eastwest;top=0;left=0;right=0;bottom=0;html=1;fontSize=16;" vertex="1" parent="NYheWyNIlXqnN4zP6Oqd-180">
          <mxGeometry y="90" width="290" height="30" as="geometry" />
        </mxCell>
        <mxCell id="NYheWyNIlXqnN4zP6Oqd-188" value="string" style="shape=partialRectangle;connectable=0;fillColor=none;top=0;left=0;bottom=0;right=0;editable=1;overflow=hidden;html=1;whiteSpace=wrap;fontSize=16;" vertex="1" parent="NYheWyNIlXqnN4zP6Oqd-187">
          <mxGeometry width="100" height="30" as="geometry">
            <mxRectangle width="100" height="30" as="alternateBounds" />
          </mxGeometry>
        </mxCell>
        <mxCell id="NYheWyNIlXqnN4zP6Oqd-189" value="description" style="shape=partialRectangle;connectable=0;fillColor=none;top=0;left=0;bottom=0;right=0;align=left;spacingLeft=6;overflow=hidden;html=1;whiteSpace=wrap;fontSize=16;" vertex="1" parent="NYheWyNIlXqnN4zP6Oqd-187">
          <mxGeometry x="100" width="190" height="30" as="geometry">
            <mxRectangle width="190" height="30" as="alternateBounds" />
          </mxGeometry>
        </mxCell>
        <mxCell id="NYheWyNIlXqnN4zP6Oqd-190" value="" style="shape=tableRow;horizontal=0;startSize=0;swimlaneHead=0;swimlaneBody=0;fillColor=none;collapsible=0;dropTarget=0;points=[[0,0.5],[1,0.5]];portConstraint=eastwest;top=0;left=0;right=0;bottom=0;html=1;fontSize=16;" vertex="1" parent="NYheWyNIlXqnN4zP6Oqd-180">
          <mxGeometry y="120" width="290" height="30" as="geometry" />
        </mxCell>
        <mxCell id="NYheWyNIlXqnN4zP6Oqd-191" value="double" style="shape=partialRectangle;connectable=0;fillColor=none;top=0;left=0;bottom=0;right=0;editable=1;overflow=hidden;html=1;whiteSpace=wrap;fontSize=16;" vertex="1" parent="NYheWyNIlXqnN4zP6Oqd-190">
          <mxGeometry width="100" height="30" as="geometry">
            <mxRectangle width="100" height="30" as="alternateBounds" />
          </mxGeometry>
        </mxCell>
        <mxCell id="NYheWyNIlXqnN4zP6Oqd-192" value="value" style="shape=partialRectangle;connectable=0;fillColor=none;top=0;left=0;bottom=0;right=0;align=left;spacingLeft=6;overflow=hidden;html=1;whiteSpace=wrap;fontSize=16;" vertex="1" parent="NYheWyNIlXqnN4zP6Oqd-190">
          <mxGeometry x="100" width="190" height="30" as="geometry">
            <mxRectangle width="190" height="30" as="alternateBounds" />
          </mxGeometry>
        </mxCell>
        <mxCell id="NYheWyNIlXqnN4zP6Oqd-193" value="ClientIP" style="shape=table;startSize=30;container=1;collapsible=1;childLayout=tableLayout;fixedRows=1;rowLines=0;fontStyle=1;align=center;resizeLast=1;html=1;whiteSpace=wrap;fontSize=16;" vertex="1" parent="1">
          <mxGeometry x="-590" y="-480" width="370" height="210" as="geometry" />
        </mxCell>
        <mxCell id="NYheWyNIlXqnN4zP6Oqd-194" value="" style="shape=tableRow;horizontal=0;startSize=0;swimlaneHead=0;swimlaneBody=0;fillColor=none;collapsible=0;dropTarget=0;points=[[0,0.5],[1,0.5]];portConstraint=eastwest;top=0;left=0;right=0;bottom=0;html=1;fontSize=16;" vertex="1" parent="NYheWyNIlXqnN4zP6Oqd-193">
          <mxGeometry y="30" width="370" height="30" as="geometry" />
        </mxCell>
        <mxCell id="NYheWyNIlXqnN4zP6Oqd-195" value="PK, uuid" style="shape=partialRectangle;connectable=0;fillColor=none;top=0;left=0;bottom=0;right=0;fontStyle=1;overflow=hidden;html=1;whiteSpace=wrap;fontSize=16;" vertex="1" parent="NYheWyNIlXqnN4zP6Oqd-194">
          <mxGeometry width="100" height="30" as="geometry">
            <mxRectangle width="100" height="30" as="alternateBounds" />
          </mxGeometry>
        </mxCell>
        <mxCell id="NYheWyNIlXqnN4zP6Oqd-196" value="Id" style="shape=partialRectangle;connectable=0;fillColor=none;top=0;left=0;bottom=0;right=0;align=left;spacingLeft=6;fontStyle=5;overflow=hidden;html=1;whiteSpace=wrap;fontSize=16;" vertex="1" parent="NYheWyNIlXqnN4zP6Oqd-194">
          <mxGeometry x="100" width="270" height="30" as="geometry">
            <mxRectangle width="270" height="30" as="alternateBounds" />
          </mxGeometry>
        </mxCell>
        <mxCell id="NYheWyNIlXqnN4zP6Oqd-206" value="" style="shape=tableRow;horizontal=0;startSize=0;swimlaneHead=0;swimlaneBody=0;fillColor=none;collapsible=0;dropTarget=0;points=[[0,0.5],[1,0.5]];portConstraint=eastwest;top=0;left=0;right=0;bottom=0;fontSize=16;" vertex="1" parent="NYheWyNIlXqnN4zP6Oqd-193">
          <mxGeometry y="60" width="370" height="30" as="geometry" />
        </mxCell>
        <mxCell id="NYheWyNIlXqnN4zP6Oqd-207" value="FK" style="shape=partialRectangle;connectable=0;fillColor=none;top=0;left=0;bottom=0;right=0;editable=1;overflow=hidden;fontSize=16;" vertex="1" parent="NYheWyNIlXqnN4zP6Oqd-206">
          <mxGeometry width="100" height="30" as="geometry">
            <mxRectangle width="100" height="30" as="alternateBounds" />
          </mxGeometry>
        </mxCell>
        <mxCell id="NYheWyNIlXqnN4zP6Oqd-208" value="clientId" style="shape=partialRectangle;connectable=0;fillColor=none;top=0;left=0;bottom=0;right=0;align=left;spacingLeft=6;overflow=hidden;fontSize=16;" vertex="1" parent="NYheWyNIlXqnN4zP6Oqd-206">
          <mxGeometry x="100" width="270" height="30" as="geometry">
            <mxRectangle width="270" height="30" as="alternateBounds" />
          </mxGeometry>
        </mxCell>
        <mxCell id="NYheWyNIlXqnN4zP6Oqd-209" value="" style="shape=tableRow;horizontal=0;startSize=0;swimlaneHead=0;swimlaneBody=0;fillColor=none;collapsible=0;dropTarget=0;points=[[0,0.5],[1,0.5]];portConstraint=eastwest;top=0;left=0;right=0;bottom=0;fontSize=16;" vertex="1" parent="NYheWyNIlXqnN4zP6Oqd-193">
          <mxGeometry y="90" width="370" height="30" as="geometry" />
        </mxCell>
        <mxCell id="NYheWyNIlXqnN4zP6Oqd-210" value="FK" style="shape=partialRectangle;connectable=0;fillColor=none;top=0;left=0;bottom=0;right=0;editable=1;overflow=hidden;fontSize=16;" vertex="1" parent="NYheWyNIlXqnN4zP6Oqd-209">
          <mxGeometry width="100" height="30" as="geometry">
            <mxRectangle width="100" height="30" as="alternateBounds" />
          </mxGeometry>
        </mxCell>
        <mxCell id="NYheWyNIlXqnN4zP6Oqd-211" value="compayId" style="shape=partialRectangle;connectable=0;fillColor=none;top=0;left=0;bottom=0;right=0;align=left;spacingLeft=6;overflow=hidden;fontSize=16;" vertex="1" parent="NYheWyNIlXqnN4zP6Oqd-209">
          <mxGeometry x="100" width="270" height="30" as="geometry">
            <mxRectangle width="270" height="30" as="alternateBounds" />
          </mxGeometry>
        </mxCell>
        <mxCell id="NYheWyNIlXqnN4zP6Oqd-197" value="" style="shape=tableRow;horizontal=0;startSize=0;swimlaneHead=0;swimlaneBody=0;fillColor=none;collapsible=0;dropTarget=0;points=[[0,0.5],[1,0.5]];portConstraint=eastwest;top=0;left=0;right=0;bottom=0;fontSize=16;" vertex="1" parent="NYheWyNIlXqnN4zP6Oqd-193">
          <mxGeometry y="120" width="370" height="30" as="geometry" />
        </mxCell>
        <mxCell id="NYheWyNIlXqnN4zP6Oqd-198" value="string" style="shape=partialRectangle;connectable=0;fillColor=none;top=0;left=0;bottom=0;right=0;editable=1;overflow=hidden;fontSize=16;" vertex="1" parent="NYheWyNIlXqnN4zP6Oqd-197">
          <mxGeometry width="100" height="30" as="geometry">
            <mxRectangle width="100" height="30" as="alternateBounds" />
          </mxGeometry>
        </mxCell>
        <mxCell id="NYheWyNIlXqnN4zP6Oqd-199" value="IP" style="shape=partialRectangle;connectable=0;fillColor=none;top=0;left=0;bottom=0;right=0;align=left;spacingLeft=6;overflow=hidden;fontSize=16;" vertex="1" parent="NYheWyNIlXqnN4zP6Oqd-197">
          <mxGeometry x="100" width="270" height="30" as="geometry">
            <mxRectangle width="270" height="30" as="alternateBounds" />
          </mxGeometry>
        </mxCell>
        <mxCell id="NYheWyNIlXqnN4zP6Oqd-218" value="" style="shape=tableRow;horizontal=0;startSize=0;swimlaneHead=0;swimlaneBody=0;fillColor=none;collapsible=0;dropTarget=0;points=[[0,0.5],[1,0.5]];portConstraint=eastwest;top=0;left=0;right=0;bottom=0;fontSize=16;" vertex="1" parent="NYheWyNIlXqnN4zP6Oqd-193">
          <mxGeometry y="150" width="370" height="30" as="geometry" />
        </mxCell>
        <mxCell id="NYheWyNIlXqnN4zP6Oqd-219" value="datetime" style="shape=partialRectangle;connectable=0;fillColor=none;top=0;left=0;bottom=0;right=0;editable=1;overflow=hidden;fontSize=16;" vertex="1" parent="NYheWyNIlXqnN4zP6Oqd-218">
          <mxGeometry width="100" height="30" as="geometry">
            <mxRectangle width="100" height="30" as="alternateBounds" />
          </mxGeometry>
        </mxCell>
        <mxCell id="NYheWyNIlXqnN4zP6Oqd-220" value="created" style="shape=partialRectangle;connectable=0;fillColor=none;top=0;left=0;bottom=0;right=0;align=left;spacingLeft=6;overflow=hidden;fontSize=16;" vertex="1" parent="NYheWyNIlXqnN4zP6Oqd-218">
          <mxGeometry x="100" width="270" height="30" as="geometry">
            <mxRectangle width="270" height="30" as="alternateBounds" />
          </mxGeometry>
        </mxCell>
        <mxCell id="NYheWyNIlXqnN4zP6Oqd-221" value="" style="shape=tableRow;horizontal=0;startSize=0;swimlaneHead=0;swimlaneBody=0;fillColor=none;collapsible=0;dropTarget=0;points=[[0,0.5],[1,0.5]];portConstraint=eastwest;top=0;left=0;right=0;bottom=0;fontSize=16;" vertex="1" parent="NYheWyNIlXqnN4zP6Oqd-193">
          <mxGeometry y="180" width="370" height="30" as="geometry" />
        </mxCell>
        <mxCell id="NYheWyNIlXqnN4zP6Oqd-222" value="datetime" style="shape=partialRectangle;connectable=0;fillColor=none;top=0;left=0;bottom=0;right=0;editable=1;overflow=hidden;fontSize=16;" vertex="1" parent="NYheWyNIlXqnN4zP6Oqd-221">
          <mxGeometry width="100" height="30" as="geometry">
            <mxRectangle width="100" height="30" as="alternateBounds" />
          </mxGeometry>
        </mxCell>
        <mxCell id="NYheWyNIlXqnN4zP6Oqd-223" value="updated" style="shape=partialRectangle;connectable=0;fillColor=none;top=0;left=0;bottom=0;right=0;align=left;spacingLeft=6;overflow=hidden;fontSize=16;" vertex="1" parent="NYheWyNIlXqnN4zP6Oqd-221">
          <mxGeometry x="100" width="270" height="30" as="geometry">
            <mxRectangle width="270" height="30" as="alternateBounds" />
          </mxGeometry>
        </mxCell>
        <mxCell id="NYheWyNIlXqnN4zP6Oqd-224" value="" style="edgeStyle=entityRelationEdgeStyle;fontSize=12;html=1;endArrow=ERmany;rounded=0;startSize=8;endSize=8;" edge="1" parent="1" source="NYheWyNIlXqnN4zP6Oqd-2" target="NYheWyNIlXqnN4zP6Oqd-206">
          <mxGeometry width="100" height="100" relative="1" as="geometry">
            <mxPoint x="-140" y="-85" as="sourcePoint" />
            <mxPoint x="-80" y="-275" as="targetPoint" />
          </mxGeometry>
        </mxCell>
        <mxCell id="NYheWyNIlXqnN4zP6Oqd-225" value="" style="edgeStyle=entityRelationEdgeStyle;fontSize=12;html=1;endArrow=ERmany;rounded=0;startSize=8;endSize=8;" edge="1" parent="1" source="H5C_QRacnQs3EDhZYAMX-6" target="NYheWyNIlXqnN4zP6Oqd-209">
          <mxGeometry width="100" height="100" relative="1" as="geometry">
            <mxPoint x="-140" y="-85" as="sourcePoint" />
            <mxPoint x="-230" y="-325" as="targetPoint" />
          </mxGeometry>
        </mxCell>
        <mxCell id="NYheWyNIlXqnN4zP6Oqd-226" value="ClientProjectSequence" style="shape=table;startSize=30;container=1;collapsible=1;childLayout=tableLayout;fixedRows=1;rowLines=0;fontStyle=1;align=center;resizeLast=1;html=1;whiteSpace=wrap;fontSize=16;" vertex="1" parent="1">
          <mxGeometry x="310" y="-720" width="280" height="180" as="geometry" />
        </mxCell>
        <mxCell id="NYheWyNIlXqnN4zP6Oqd-227" value="" style="shape=tableRow;horizontal=0;startSize=0;swimlaneHead=0;swimlaneBody=0;fillColor=none;collapsible=0;dropTarget=0;points=[[0,0.5],[1,0.5]];portConstraint=eastwest;top=0;left=0;right=0;bottom=0;html=1;fontSize=16;" vertex="1" parent="NYheWyNIlXqnN4zP6Oqd-226">
          <mxGeometry y="30" width="280" height="30" as="geometry" />
        </mxCell>
        <mxCell id="NYheWyNIlXqnN4zP6Oqd-228" value="PK, uuid" style="shape=partialRectangle;connectable=0;fillColor=none;top=0;left=0;bottom=0;right=0;fontStyle=1;overflow=hidden;html=1;whiteSpace=wrap;fontSize=16;" vertex="1" parent="NYheWyNIlXqnN4zP6Oqd-227">
          <mxGeometry width="100" height="30" as="geometry">
            <mxRectangle width="100" height="30" as="alternateBounds" />
          </mxGeometry>
        </mxCell>
        <mxCell id="NYheWyNIlXqnN4zP6Oqd-229" value="Id" style="shape=partialRectangle;connectable=0;fillColor=none;top=0;left=0;bottom=0;right=0;align=left;spacingLeft=6;fontStyle=5;overflow=hidden;html=1;whiteSpace=wrap;fontSize=16;" vertex="1" parent="NYheWyNIlXqnN4zP6Oqd-227">
          <mxGeometry x="100" width="180" height="30" as="geometry">
            <mxRectangle width="180" height="30" as="alternateBounds" />
          </mxGeometry>
        </mxCell>
        <mxCell id="NYheWyNIlXqnN4zP6Oqd-233" value="" style="shape=tableRow;horizontal=0;startSize=0;swimlaneHead=0;swimlaneBody=0;fillColor=none;collapsible=0;dropTarget=0;points=[[0,0.5],[1,0.5]];portConstraint=eastwest;top=0;left=0;right=0;bottom=0;fontSize=16;" vertex="1" parent="NYheWyNIlXqnN4zP6Oqd-226">
          <mxGeometry y="60" width="280" height="30" as="geometry" />
        </mxCell>
        <mxCell id="NYheWyNIlXqnN4zP6Oqd-234" value="FK" style="shape=partialRectangle;connectable=0;fillColor=none;top=0;left=0;bottom=0;right=0;editable=1;overflow=hidden;fontSize=16;" vertex="1" parent="NYheWyNIlXqnN4zP6Oqd-233">
          <mxGeometry width="100" height="30" as="geometry">
            <mxRectangle width="100" height="30" as="alternateBounds" />
          </mxGeometry>
        </mxCell>
        <mxCell id="NYheWyNIlXqnN4zP6Oqd-235" value="compayId" style="shape=partialRectangle;connectable=0;fillColor=none;top=0;left=0;bottom=0;right=0;align=left;spacingLeft=6;overflow=hidden;fontSize=16;" vertex="1" parent="NYheWyNIlXqnN4zP6Oqd-233">
          <mxGeometry x="100" width="180" height="30" as="geometry">
            <mxRectangle width="180" height="30" as="alternateBounds" />
          </mxGeometry>
        </mxCell>
        <mxCell id="NYheWyNIlXqnN4zP6Oqd-236" value="" style="shape=tableRow;horizontal=0;startSize=0;swimlaneHead=0;swimlaneBody=0;fillColor=none;collapsible=0;dropTarget=0;points=[[0,0.5],[1,0.5]];portConstraint=eastwest;top=0;left=0;right=0;bottom=0;fontSize=16;" vertex="1" parent="NYheWyNIlXqnN4zP6Oqd-226">
          <mxGeometry y="90" width="280" height="30" as="geometry" />
        </mxCell>
        <mxCell id="NYheWyNIlXqnN4zP6Oqd-237" value="int" style="shape=partialRectangle;connectable=0;fillColor=none;top=0;left=0;bottom=0;right=0;editable=1;overflow=hidden;fontSize=16;" vertex="1" parent="NYheWyNIlXqnN4zP6Oqd-236">
          <mxGeometry width="100" height="30" as="geometry">
            <mxRectangle width="100" height="30" as="alternateBounds" />
          </mxGeometry>
        </mxCell>
        <mxCell id="NYheWyNIlXqnN4zP6Oqd-238" value="sequence" style="shape=partialRectangle;connectable=0;fillColor=none;top=0;left=0;bottom=0;right=0;align=left;spacingLeft=6;overflow=hidden;fontSize=16;" vertex="1" parent="NYheWyNIlXqnN4zP6Oqd-236">
          <mxGeometry x="100" width="180" height="30" as="geometry">
            <mxRectangle width="180" height="30" as="alternateBounds" />
          </mxGeometry>
        </mxCell>
        <mxCell id="NYheWyNIlXqnN4zP6Oqd-239" value="" style="shape=tableRow;horizontal=0;startSize=0;swimlaneHead=0;swimlaneBody=0;fillColor=none;collapsible=0;dropTarget=0;points=[[0,0.5],[1,0.5]];portConstraint=eastwest;top=0;left=0;right=0;bottom=0;fontSize=16;" vertex="1" parent="NYheWyNIlXqnN4zP6Oqd-226">
          <mxGeometry y="120" width="280" height="30" as="geometry" />
        </mxCell>
        <mxCell id="NYheWyNIlXqnN4zP6Oqd-240" value="datetime" style="shape=partialRectangle;connectable=0;fillColor=none;top=0;left=0;bottom=0;right=0;editable=1;overflow=hidden;fontSize=16;" vertex="1" parent="NYheWyNIlXqnN4zP6Oqd-239">
          <mxGeometry width="100" height="30" as="geometry">
            <mxRectangle width="100" height="30" as="alternateBounds" />
          </mxGeometry>
        </mxCell>
        <mxCell id="NYheWyNIlXqnN4zP6Oqd-241" value="created" style="shape=partialRectangle;connectable=0;fillColor=none;top=0;left=0;bottom=0;right=0;align=left;spacingLeft=6;overflow=hidden;fontSize=16;" vertex="1" parent="NYheWyNIlXqnN4zP6Oqd-239">
          <mxGeometry x="100" width="180" height="30" as="geometry">
            <mxRectangle width="180" height="30" as="alternateBounds" />
          </mxGeometry>
        </mxCell>
        <mxCell id="NYheWyNIlXqnN4zP6Oqd-242" value="" style="shape=tableRow;horizontal=0;startSize=0;swimlaneHead=0;swimlaneBody=0;fillColor=none;collapsible=0;dropTarget=0;points=[[0,0.5],[1,0.5]];portConstraint=eastwest;top=0;left=0;right=0;bottom=0;fontSize=16;" vertex="1" parent="NYheWyNIlXqnN4zP6Oqd-226">
          <mxGeometry y="150" width="280" height="30" as="geometry" />
        </mxCell>
        <mxCell id="NYheWyNIlXqnN4zP6Oqd-243" value="datetime" style="shape=partialRectangle;connectable=0;fillColor=none;top=0;left=0;bottom=0;right=0;editable=1;overflow=hidden;fontSize=16;" vertex="1" parent="NYheWyNIlXqnN4zP6Oqd-242">
          <mxGeometry width="100" height="30" as="geometry">
            <mxRectangle width="100" height="30" as="alternateBounds" />
          </mxGeometry>
        </mxCell>
        <mxCell id="NYheWyNIlXqnN4zP6Oqd-244" value="updated" style="shape=partialRectangle;connectable=0;fillColor=none;top=0;left=0;bottom=0;right=0;align=left;spacingLeft=6;overflow=hidden;fontSize=16;" vertex="1" parent="NYheWyNIlXqnN4zP6Oqd-242">
          <mxGeometry x="100" width="180" height="30" as="geometry">
            <mxRectangle width="180" height="30" as="alternateBounds" />
          </mxGeometry>
        </mxCell>
        <mxCell id="NYheWyNIlXqnN4zP6Oqd-248" value="" style="edgeStyle=entityRelationEdgeStyle;fontSize=12;html=1;endArrow=ERmany;rounded=0;startSize=8;endSize=8;" edge="1" parent="1" source="H5C_QRacnQs3EDhZYAMX-6" target="NYheWyNIlXqnN4zP6Oqd-233">
          <mxGeometry width="100" height="100" relative="1" as="geometry">
            <mxPoint x="-140" y="-85" as="sourcePoint" />
            <mxPoint x="-210" y="-395" as="targetPoint" />
          </mxGeometry>
        </mxCell>
        <mxCell id="NYheWyNIlXqnN4zP6Oqd-250" value="DistanceRate" style="shape=table;startSize=30;container=1;collapsible=1;childLayout=tableLayout;fixedRows=1;rowLines=0;fontStyle=1;align=center;resizeLast=1;html=1;whiteSpace=wrap;fontSize=16;" vertex="1" parent="1">
          <mxGeometry x="-1160" y="-880" width="290" height="240" as="geometry" />
        </mxCell>
        <mxCell id="NYheWyNIlXqnN4zP6Oqd-251" value="" style="shape=tableRow;horizontal=0;startSize=0;swimlaneHead=0;swimlaneBody=0;fillColor=none;collapsible=0;dropTarget=0;points=[[0,0.5],[1,0.5]];portConstraint=eastwest;top=0;left=0;right=0;bottom=0;html=1;fontSize=16;" vertex="1" parent="NYheWyNIlXqnN4zP6Oqd-250">
          <mxGeometry y="30" width="290" height="30" as="geometry" />
        </mxCell>
        <mxCell id="NYheWyNIlXqnN4zP6Oqd-252" value="PK, uuid" style="shape=partialRectangle;connectable=0;fillColor=none;top=0;left=0;bottom=0;right=0;fontStyle=1;overflow=hidden;html=1;whiteSpace=wrap;fontSize=16;" vertex="1" parent="NYheWyNIlXqnN4zP6Oqd-251">
          <mxGeometry width="100" height="30" as="geometry">
            <mxRectangle width="100" height="30" as="alternateBounds" />
          </mxGeometry>
        </mxCell>
        <mxCell id="NYheWyNIlXqnN4zP6Oqd-253" value="Id" style="shape=partialRectangle;connectable=0;fillColor=none;top=0;left=0;bottom=0;right=0;align=left;spacingLeft=6;fontStyle=5;overflow=hidden;html=1;whiteSpace=wrap;fontSize=16;" vertex="1" parent="NYheWyNIlXqnN4zP6Oqd-251">
          <mxGeometry x="100" width="190" height="30" as="geometry">
            <mxRectangle width="190" height="30" as="alternateBounds" />
          </mxGeometry>
        </mxCell>
        <mxCell id="NYheWyNIlXqnN4zP6Oqd-254" value="" style="shape=tableRow;horizontal=0;startSize=0;swimlaneHead=0;swimlaneBody=0;fillColor=none;collapsible=0;dropTarget=0;points=[[0,0.5],[1,0.5]];portConstraint=eastwest;top=0;left=0;right=0;bottom=0;fontSize=16;" vertex="1" parent="NYheWyNIlXqnN4zP6Oqd-250">
          <mxGeometry y="60" width="290" height="30" as="geometry" />
        </mxCell>
        <mxCell id="NYheWyNIlXqnN4zP6Oqd-255" value="string" style="shape=partialRectangle;connectable=0;fillColor=none;top=0;left=0;bottom=0;right=0;editable=1;overflow=hidden;fontSize=16;" vertex="1" parent="NYheWyNIlXqnN4zP6Oqd-254">
          <mxGeometry width="100" height="30" as="geometry">
            <mxRectangle width="100" height="30" as="alternateBounds" />
          </mxGeometry>
        </mxCell>
        <mxCell id="NYheWyNIlXqnN4zP6Oqd-256" value="vehicule" style="shape=partialRectangle;connectable=0;fillColor=none;top=0;left=0;bottom=0;right=0;align=left;spacingLeft=6;overflow=hidden;fontSize=16;" vertex="1" parent="NYheWyNIlXqnN4zP6Oqd-254">
          <mxGeometry x="100" width="190" height="30" as="geometry">
            <mxRectangle width="190" height="30" as="alternateBounds" />
          </mxGeometry>
        </mxCell>
        <mxCell id="NYheWyNIlXqnN4zP6Oqd-257" value="" style="shape=tableRow;horizontal=0;startSize=0;swimlaneHead=0;swimlaneBody=0;fillColor=none;collapsible=0;dropTarget=0;points=[[0,0.5],[1,0.5]];portConstraint=eastwest;top=0;left=0;right=0;bottom=0;html=1;fontSize=16;" vertex="1" parent="NYheWyNIlXqnN4zP6Oqd-250">
          <mxGeometry y="90" width="290" height="30" as="geometry" />
        </mxCell>
        <mxCell id="NYheWyNIlXqnN4zP6Oqd-258" value="string" style="shape=partialRectangle;connectable=0;fillColor=none;top=0;left=0;bottom=0;right=0;editable=1;overflow=hidden;html=1;whiteSpace=wrap;fontSize=16;" vertex="1" parent="NYheWyNIlXqnN4zP6Oqd-257">
          <mxGeometry width="100" height="30" as="geometry">
            <mxRectangle width="100" height="30" as="alternateBounds" />
          </mxGeometry>
        </mxCell>
        <mxCell id="NYheWyNIlXqnN4zP6Oqd-259" value="power" style="shape=partialRectangle;connectable=0;fillColor=none;top=0;left=0;bottom=0;right=0;align=left;spacingLeft=6;overflow=hidden;html=1;whiteSpace=wrap;fontSize=16;" vertex="1" parent="NYheWyNIlXqnN4zP6Oqd-257">
          <mxGeometry x="100" width="190" height="30" as="geometry">
            <mxRectangle width="190" height="30" as="alternateBounds" />
          </mxGeometry>
        </mxCell>
        <mxCell id="NYheWyNIlXqnN4zP6Oqd-260" value="" style="shape=tableRow;horizontal=0;startSize=0;swimlaneHead=0;swimlaneBody=0;fillColor=none;collapsible=0;dropTarget=0;points=[[0,0.5],[1,0.5]];portConstraint=eastwest;top=0;left=0;right=0;bottom=0;html=1;fontSize=16;" vertex="1" parent="NYheWyNIlXqnN4zP6Oqd-250">
          <mxGeometry y="120" width="290" height="30" as="geometry" />
        </mxCell>
        <mxCell id="NYheWyNIlXqnN4zP6Oqd-261" value="double" style="shape=partialRectangle;connectable=0;fillColor=none;top=0;left=0;bottom=0;right=0;editable=1;overflow=hidden;html=1;whiteSpace=wrap;fontSize=16;" vertex="1" parent="NYheWyNIlXqnN4zP6Oqd-260">
          <mxGeometry width="100" height="30" as="geometry">
            <mxRectangle width="100" height="30" as="alternateBounds" />
          </mxGeometry>
        </mxCell>
        <mxCell id="NYheWyNIlXqnN4zP6Oqd-262" value="dmin" style="shape=partialRectangle;connectable=0;fillColor=none;top=0;left=0;bottom=0;right=0;align=left;spacingLeft=6;overflow=hidden;html=1;whiteSpace=wrap;fontSize=16;" vertex="1" parent="NYheWyNIlXqnN4zP6Oqd-260">
          <mxGeometry x="100" width="190" height="30" as="geometry">
            <mxRectangle width="190" height="30" as="alternateBounds" />
          </mxGeometry>
        </mxCell>
        <mxCell id="NYheWyNIlXqnN4zP6Oqd-263" value="" style="shape=tableRow;horizontal=0;startSize=0;swimlaneHead=0;swimlaneBody=0;fillColor=none;collapsible=0;dropTarget=0;points=[[0,0.5],[1,0.5]];portConstraint=eastwest;top=0;left=0;right=0;bottom=0;html=1;fontSize=16;" vertex="1" parent="NYheWyNIlXqnN4zP6Oqd-250">
          <mxGeometry y="150" width="290" height="30" as="geometry" />
        </mxCell>
        <mxCell id="NYheWyNIlXqnN4zP6Oqd-264" value="double" style="shape=partialRectangle;connectable=0;fillColor=none;top=0;left=0;bottom=0;right=0;editable=1;overflow=hidden;html=1;whiteSpace=wrap;fontSize=16;" vertex="1" parent="NYheWyNIlXqnN4zP6Oqd-263">
          <mxGeometry width="100" height="30" as="geometry">
            <mxRectangle width="100" height="30" as="alternateBounds" />
          </mxGeometry>
        </mxCell>
        <mxCell id="NYheWyNIlXqnN4zP6Oqd-265" value="dmax" style="shape=partialRectangle;connectable=0;fillColor=none;top=0;left=0;bottom=0;right=0;align=left;spacingLeft=6;overflow=hidden;html=1;whiteSpace=wrap;fontSize=16;" vertex="1" parent="NYheWyNIlXqnN4zP6Oqd-263">
          <mxGeometry x="100" width="190" height="30" as="geometry">
            <mxRectangle width="190" height="30" as="alternateBounds" />
          </mxGeometry>
        </mxCell>
        <mxCell id="NYheWyNIlXqnN4zP6Oqd-266" value="" style="shape=tableRow;horizontal=0;startSize=0;swimlaneHead=0;swimlaneBody=0;fillColor=none;collapsible=0;dropTarget=0;points=[[0,0.5],[1,0.5]];portConstraint=eastwest;top=0;left=0;right=0;bottom=0;html=1;fontSize=16;" vertex="1" parent="NYheWyNIlXqnN4zP6Oqd-250">
          <mxGeometry y="180" width="290" height="30" as="geometry" />
        </mxCell>
        <mxCell id="NYheWyNIlXqnN4zP6Oqd-267" value="double" style="shape=partialRectangle;connectable=0;fillColor=none;top=0;left=0;bottom=0;right=0;editable=1;overflow=hidden;html=1;whiteSpace=wrap;fontSize=16;" vertex="1" parent="NYheWyNIlXqnN4zP6Oqd-266">
          <mxGeometry width="100" height="30" as="geometry">
            <mxRectangle width="100" height="30" as="alternateBounds" />
          </mxGeometry>
        </mxCell>
        <mxCell id="NYheWyNIlXqnN4zP6Oqd-268" value="rate" style="shape=partialRectangle;connectable=0;fillColor=none;top=0;left=0;bottom=0;right=0;align=left;spacingLeft=6;overflow=hidden;html=1;whiteSpace=wrap;fontSize=16;" vertex="1" parent="NYheWyNIlXqnN4zP6Oqd-266">
          <mxGeometry x="100" width="190" height="30" as="geometry">
            <mxRectangle width="190" height="30" as="alternateBounds" />
          </mxGeometry>
        </mxCell>
        <mxCell id="NYheWyNIlXqnN4zP6Oqd-269" value="" style="shape=tableRow;horizontal=0;startSize=0;swimlaneHead=0;swimlaneBody=0;fillColor=none;collapsible=0;dropTarget=0;points=[[0,0.5],[1,0.5]];portConstraint=eastwest;top=0;left=0;right=0;bottom=0;html=1;fontSize=16;" vertex="1" parent="NYheWyNIlXqnN4zP6Oqd-250">
          <mxGeometry y="210" width="290" height="30" as="geometry" />
        </mxCell>
        <mxCell id="NYheWyNIlXqnN4zP6Oqd-270" value="double" style="shape=partialRectangle;connectable=0;fillColor=none;top=0;left=0;bottom=0;right=0;editable=1;overflow=hidden;html=1;whiteSpace=wrap;fontSize=16;" vertex="1" parent="NYheWyNIlXqnN4zP6Oqd-269">
          <mxGeometry width="100" height="30" as="geometry">
            <mxRectangle width="100" height="30" as="alternateBounds" />
          </mxGeometry>
        </mxCell>
        <mxCell id="NYheWyNIlXqnN4zP6Oqd-271" value="delta" style="shape=partialRectangle;connectable=0;fillColor=none;top=0;left=0;bottom=0;right=0;align=left;spacingLeft=6;overflow=hidden;html=1;whiteSpace=wrap;fontSize=16;" vertex="1" parent="NYheWyNIlXqnN4zP6Oqd-269">
          <mxGeometry x="100" width="190" height="30" as="geometry">
            <mxRectangle width="190" height="30" as="alternateBounds" />
          </mxGeometry>
        </mxCell>
      </root>
    </mxGraphModel>
  </diagram>
</mxfile>
